<svg width="152" height="106" viewBox="0 0 152 106" fill="none" xmlns="http://www.w3.org/2000/svg">
<path d="M22.776 16.384C22.392 18.848 22.2 23.376 22.2 29.968C22.2 36.528 22.424 41.328 22.872 44.368C24.12 44.592 25.08 44.864 25.752 45.184L25.608 46.432C23.304 46.144 20.792 46 18.072 46C15.384 46 13.08 46.144 11.16 46.432L10.968 45.136C11.672 44.752 12.568 44.448 13.656 44.224C14.072 41.088 14.28 36.576 14.28 30.688C14.28 24.8 14.04 20.08 13.56 16.528C12.472 16.304 11.576 16 10.872 15.616L11.064 14.32C12.984 14.608 15.288 14.752 17.976 14.752C20.696 14.752 23.208 14.608 25.512 14.32L25.656 15.568C24.984 15.888 24.024 16.16 22.776 16.384ZM43.0208 46.72C38.6048 46.72 35.1488 45.488 32.6528 43.024C30.1568 40.56 28.9088 37.184 28.9088 32.896C28.9088 28.608 30.2368 24.784 32.8928 21.424C35.5808 18.032 39.1808 15.568 43.6928 14.032C48.1088 14.032 51.4528 15.168 53.7248 17.44C55.9968 19.68 57.1328 23.056 57.1328 27.568C57.1328 32.048 55.8848 35.984 53.3888 39.376C50.8928 42.736 47.4368 45.184 43.0208 46.72ZM44.5568 18.592C43.8208 18.24 42.9408 18.064 41.9168 18.064C40.8928 18.064 40.0128 18.32 39.2768 18.832C38.0928 21.584 37.5008 25.216 37.5008 29.728C37.5008 32.928 37.9008 35.76 38.7008 38.224C39.1488 39.6 39.8208 40.688 40.7168 41.488C41.6448 42.288 42.6848 42.688 43.8368 42.688C44.9888 42.688 45.9648 42.416 46.7648 41.872C47.9488 39.152 48.5408 35.568 48.5408 31.12C48.5408 26.896 48.2048 23.952 47.5328 22.288C46.7968 20.4 45.8048 19.168 44.5568 18.592ZM87.8738 16.384C87.4898 18.848 87.2978 23.376 87.2978 29.968C87.2978 36.528 87.5218 41.328 87.9698 44.368C89.2178 44.592 90.1778 44.864 90.8498 45.184L90.7058 46.432C88.4018 46.144 86.2898 46 84.3698 46C82.4818 46 80.5778 46.144 78.6578 46.432L78.4658 45.568C78.7538 45.12 78.9618 44.208 79.0898 42.832C77.4578 44.4 75.3618 45.696 72.8018 46.72C68.8658 46.72 66.1458 45.744 64.6418 43.792C63.1378 41.84 62.3858 38.72 62.3858 34.432C62.3858 32.608 62.4978 29.712 62.7218 25.744C62.9458 21.776 63.0578 19.408 63.0578 18.64C63.0578 17.872 62.9458 17.152 62.7218 16.48C61.5698 16.224 60.7538 15.936 60.2738 15.616L60.4658 14.32C62.7378 14.608 65.0418 14.752 67.3778 14.752C69.7138 14.752 71.6018 14.64 73.0418 14.416L73.2338 15.232C72.4658 15.648 71.9378 16.176 71.6498 16.816C71.3618 17.456 71.1058 19.152 70.8818 21.904C70.6578 24.624 70.5458 27.392 70.5458 30.208C70.5458 32.992 70.5458 34.656 70.5458 35.2C70.5778 35.744 70.6258 36.448 70.6898 37.312C70.7858 38.176 70.9138 38.832 71.0738 39.28C71.2658 39.728 71.5218 40.192 71.8418 40.672C72.4498 41.568 73.4738 42.016 74.9138 42.016C76.3858 42.016 77.8258 41.472 79.2338 40.384C79.3298 38.976 79.3778 35.536 79.3778 30.064C79.3778 24.592 79.1378 20.08 78.6578 16.528C77.5698 16.304 76.6738 16 75.9698 15.616L76.1618 14.32C78.0818 14.608 80.3858 14.752 83.0738 14.752C85.7938 14.752 88.3058 14.608 90.6098 14.32L90.7538 15.568C90.0818 15.888 89.1218 16.16 87.8738 16.384Z" fill="#1E2225"/>
<path d="M16.3633 83.9786C14.8151 84.2272 13.342 84.2368 11.944 84.0076C10.5725 83.7416 9.42582 83.2613 8.50404 82.5667C7.58226 81.872 7.03259 80.9718 6.85504 79.8659C6.73836 79.1393 6.81068 78.4794 7.07199 77.8865C7.32822 77.262 7.7565 76.9015 8.35681 76.8052C8.73595 76.7443 9.15372 76.8231 9.61012 77.0415C10.5116 77.6097 11.6216 78.0635 12.94 78.4028C14.285 78.7054 15.6684 78.7426 17.0902 78.5143C18.9543 78.215 20.4126 77.6081 21.4649 76.6937C22.5438 75.7427 22.9818 74.6352 22.7788 73.3714C22.5861 72.1708 21.8936 71.3907 20.7016 71.0311C19.5095 70.6716 17.8959 70.4121 15.8609 70.2527C14.3518 70.1385 12.8747 69.9219 11.4299 69.6029C10.0167 69.2789 8.7916 68.7139 7.75474 67.9081C6.74441 67.0656 6.10988 65.8387 5.85116 64.2273C5.65331 62.9951 5.72657 61.7356 6.07091 60.4487C6.41019 59.1302 7.01998 57.8818 7.9003 56.7033C8.78061 55.5249 9.91506 54.5163 11.3037 53.6775C12.6872 52.8072 14.311 52.2224 16.1751 51.9231C17.5653 51.6999 18.8545 51.6549 20.0427 51.7882C21.2624 51.9165 22.2497 52.2117 23.0045 52.6739C23.7909 53.131 24.2501 53.7703 24.382 54.5918C24.4834 55.2237 24.3984 55.8045 24.127 56.3342C23.8555 56.864 23.5057 57.3091 23.0774 57.6695C22.644 57.9984 22.2536 58.1907 21.9061 58.2465C21.5901 58.2972 21.1407 58.2235 20.558 58.0254C19.5972 57.6935 18.5436 57.49 17.3972 57.4148C16.2773 57.3029 15.3066 57.3129 14.4851 57.4448C12.9369 57.6934 11.7289 58.2439 10.8611 59.0962C10.0198 59.9119 9.67265 60.7779 9.81976 61.6942C9.9821 62.7052 10.7194 63.4619 12.0316 63.9642C13.3704 64.4299 15.6804 64.7882 18.9617 65.0392C21.2015 65.2629 23.0028 65.784 24.3658 66.6022C25.7237 67.3889 26.5751 68.8565 26.9201 71.005C27.2295 72.9323 26.9973 74.8169 26.2236 76.6589C25.4814 78.4958 24.2619 80.0852 22.5652 81.4272C20.895 82.7324 18.8277 83.5829 16.3633 83.9786ZM38.1707 80.4772C36.275 80.7816 34.6488 80.4431 33.292 79.4618C31.9618 78.4438 31.1192 76.829 30.7641 74.6173C30.5104 73.0375 30.5595 71.4253 30.9112 69.7808C31.2895 68.0996 31.9616 66.5332 32.9278 65.0817C33.8939 63.6302 35.1375 62.3934 36.6587 61.3713C38.1799 60.3492 39.9674 59.6733 42.0211 59.3436C43.9168 59.0392 45.5814 59.1122 47.015 59.5626C48.475 59.9764 49.2938 60.7362 49.4714 61.8421C49.517 62.1264 49.5463 62.5106 49.5592 62.9947C49.5671 63.4472 49.5464 63.8232 49.4973 64.1228C49.4431 64.3908 49.3389 64.6506 49.1849 64.9022C49.0573 65.1171 48.8514 65.2474 48.567 65.2931C48.4407 65.3134 48.1961 65.304 47.8333 65.265C47.8135 65.9488 47.8227 66.6117 47.8609 67.2538C47.8992 67.8958 47.9691 68.5328 48.0705 69.1647C48.2633 70.3654 48.6096 71.4117 49.1093 72.3038C49.6356 73.1591 50.4536 73.6112 51.5633 73.6599C51.8578 73.6774 52.0942 73.7367 52.2725 73.8377C52.4823 73.9336 52.6202 74.187 52.6862 74.5977C52.742 74.9453 52.7182 75.4028 52.6149 75.9704C52.5432 76.5329 52.29 77.0759 51.8555 77.5994C51.4476 78.0862 50.7854 78.4032 49.8692 78.5503C48.637 78.7481 47.6181 78.458 46.8125 77.6798C46.0019 76.8701 45.4622 75.628 45.1933 73.9534C44.5888 75.6386 43.7017 77.0774 42.5319 78.2699C41.3938 79.4574 39.94 80.1931 38.1707 80.4772ZM38.8959 75.3048C40.1597 75.1019 41.2021 74.5294 42.0232 73.5873C42.8758 72.6402 43.4743 71.5232 43.8186 70.2363C44.0444 69.4222 44.1811 68.5576 44.2286 67.6425C44.2711 66.6958 44.2529 65.7751 44.174 64.8803C43.5963 64.7137 42.9473 64.6073 42.2268 64.5609C41.5063 64.5146 40.767 64.5522 40.0087 64.674C38.0814 64.9834 36.5771 65.8083 35.4959 67.1487C34.4463 68.484 34.0585 70.0047 34.3324 71.7108C34.5354 72.9746 35.0478 73.9457 35.8697 74.624C36.6865 75.2707 37.6953 75.4976 38.8959 75.3048ZM63.095 76.4754C61.1677 76.7848 59.676 76.3761 58.62 75.2493C57.5906 74.0858 56.9135 72.493 56.5888 70.4709C56.4721 69.7442 56.3896 69.0282 56.3412 68.3229C56.3244 67.6126 56.3075 66.9023 56.2907 66.192C56.2739 65.4817 56.2596 64.7872 56.2479 64.1084C56.2361 63.4297 56.2137 62.7851 56.1805 62.1747C55.5474 62.4708 54.8991 62.6721 54.2356 62.7786C53.5405 62.8902 53.1473 62.6617 53.056 62.093C52.9596 61.4927 53.1115 60.7228 53.5116 59.7835C53.9067 58.8126 54.4307 57.8372 55.0836 56.8573C55.7681 55.8723 56.4597 55.0321 57.1582 54.3365C57.8833 53.6043 58.5302 53.1926 59.099 53.1013C59.7941 52.9897 60.238 53.5342 60.4308 54.7348C60.4815 55.0507 60.5032 55.3876 60.4958 55.7453C60.5149 56.0663 60.5208 56.4057 60.5134 56.7633C61.0934 56.5406 61.676 56.3336 62.2611 56.1424C62.8778 55.9462 63.4705 55.8024 64.0392 55.7111C64.7659 55.5944 65.3391 55.632 65.7588 55.8239C66.2101 56.0107 66.4941 56.4675 66.6108 57.1942C66.7326 57.9525 66.6647 58.7412 66.4073 59.5604C66.1815 60.3744 65.8475 60.817 65.4051 60.888C65.3104 60.9032 65.1498 60.9128 64.9236 60.9167C64.6974 60.9206 64.4212 60.9164 64.0951 60.9039C63.6691 60.8751 63.1326 60.864 62.4855 60.8707C61.8383 60.8773 61.0724 60.9517 60.1878 61.0937C60.1239 62.1087 60.0808 63.1527 60.0587 64.2258C60.063 65.2622 60.1312 66.1912 60.263 67.0126C60.5573 68.8452 61.2158 70.0196 62.2386 70.536C63.2614 71.0524 64.6417 71.1711 66.3794 70.8921C66.9165 70.8058 67.3109 70.8397 67.5625 70.9938C67.809 71.1163 67.9678 71.3987 68.0388 71.841C68.2062 72.8837 67.8112 73.8546 66.8536 74.7537C65.896 75.6529 64.6432 76.2268 63.095 76.4754ZM73.5155 74.705C73.0731 74.776 72.6762 74.7263 72.3248 74.5559C71.9784 74.417 71.8089 74.1688 71.8163 73.8111C71.8844 71.2074 71.8684 68.5847 71.7684 65.9432C71.6949 63.265 71.4451 60.5989 71.0189 57.9448C70.6435 55.6068 70.2247 53.5026 69.7623 51.6322C69.2999 49.7619 68.5027 48.0263 67.3706 46.4255C67.1569 46.1034 66.9823 45.8235 66.8469 45.5859C66.7115 45.3484 66.6261 45.119 66.5906 44.8979C66.4942 44.2976 66.7479 43.6573 67.3517 42.9769C67.9871 42.2915 68.6997 41.8854 69.4896 41.7586C70.5954 41.5811 71.4653 42.1544 72.0993 43.4786C72.7332 44.8029 73.2683 46.8236 73.7046 49.5408C74.2271 52.7951 74.4941 55.6691 74.5056 58.1629C74.512 60.625 74.4745 62.5108 74.393 63.8203L74.5978 63.8846C74.9609 62.1086 75.468 60.4229 76.1193 58.8274C76.8023 57.2269 77.673 55.888 78.7316 54.8105C79.7902 53.7331 81.1093 53.0675 82.6891 52.8139C84.3636 52.545 85.7086 52.8476 86.724 53.7217C87.771 54.5907 88.4138 55.7677 88.6522 57.2527C88.7536 57.8846 88.7894 58.5109 88.7594 59.1315C88.7243 59.7205 88.6709 60.2962 88.5992 60.8587C88.5224 61.3896 88.4639 61.9337 88.4237 62.4912C88.3785 63.017 88.399 63.5484 88.4853 64.0856C88.6426 65.065 89.0089 65.8327 89.5843 66.3885C90.1546 66.9127 90.855 67.2378 91.6854 67.3637C91.9168 67.3914 92.0899 67.4608 92.205 67.572C92.3466 67.6465 92.4403 67.8259 92.4859 68.1102C92.5316 68.3946 92.5027 68.8206 92.3994 69.3881C92.2961 69.9557 92.0297 70.517 91.6003 71.0721C91.1658 71.5956 90.4588 71.936 89.4793 72.0932C88.2155 72.2962 87.165 72.0111 86.3279 71.238C85.4857 70.4334 84.9504 69.3201 84.7221 67.8984C84.6105 67.2033 84.5596 66.4822 84.5693 65.7352C84.6106 64.9832 84.6728 64.2602 84.7558 63.5662C84.8072 62.8774 84.8505 62.2384 84.8856 61.6494C84.9156 61.0288 84.8976 60.5131 84.8316 60.1024C84.5983 58.649 83.7233 58.0441 82.2067 58.2876C80.9429 58.4905 79.8948 59.1287 79.0625 60.2022C78.2567 61.2391 77.6178 62.5084 77.146 64.0102C76.7006 65.4754 76.3734 66.9701 76.1644 68.4945L76.4232 70.1059C76.6109 71.2749 76.418 72.2944 75.8447 73.1643C75.3029 74.0291 74.5265 74.5427 73.5155 74.705ZM96.1711 46.3711C95.2813 46.4816 94.5273 46.3271 93.909 45.9079C93.2908 45.4886 92.9081 44.8208 92.7609 43.9045C92.6353 42.92 92.8402 42.0769 93.3757 41.3751C93.9062 40.6417 94.6637 40.2122 95.6482 40.0865C96.5695 39.971 97.3235 40.1254 97.9102 40.5498C98.5285 40.9691 98.8954 41.6394 99.0109 42.5607C99.1315 43.5137 98.9424 44.3543 98.4436 45.0826C97.9396 45.7793 97.1821 46.2088 96.1711 46.3711ZM100.076 70.3918C99.1286 70.544 98.3455 70.4104 97.7272 69.9911C97.1039 69.5402 96.6907 68.6829 96.4878 67.4191C96.3711 66.6924 96.3202 65.9713 96.335 65.256C96.3813 64.5355 96.446 63.8283 96.5291 63.1344C96.6387 62.4037 96.6983 61.6649 96.708 60.918C96.7493 60.1659 96.704 59.3791 96.5721 58.5577C96.4808 57.9889 96.3155 57.4645 96.0764 56.9843C95.8322 56.4726 95.4212 56.1335 94.8435 55.9669C94.3973 55.8117 93.9984 55.6489 93.647 55.4784C93.322 55.2713 93.1291 54.9782 93.0682 54.5991C92.9972 54.1567 93.1265 53.6498 93.4561 53.0784C93.7856 52.5069 94.2543 51.9941 94.862 51.54C95.4962 51.0493 96.1766 50.7456 96.9033 50.6289C97.6932 50.5021 98.2949 50.6161 98.7084 50.9711C99.1535 51.3209 99.49 51.8017 99.7178 52.4133C99.9456 53.0249 100.113 53.6624 100.219 54.3259C100.382 55.337 100.463 56.3449 100.462 57.3498C100.456 58.323 100.44 59.233 100.414 60.0799C100.384 60.7005 100.378 61.2686 100.396 61.7843C100.414 62.2999 100.458 62.7789 100.529 63.2213C100.656 64.0112 100.942 64.581 101.387 64.9309C101.827 65.2492 102.423 65.5263 103.174 65.7622C103.483 65.8745 103.664 66.0887 103.714 66.4046C103.755 66.6574 103.692 67.0726 103.525 67.6503C103.359 68.228 102.995 68.7888 102.434 69.3326C101.905 69.8713 101.119 70.2244 100.076 70.3918Z" fill="#FD8900"/>
<path d="M12.2364 94.9407C12.0471 94.9725 11.8846 94.947 11.7491 94.8643C11.6135 94.7816 11.5193 94.5825 11.4663 94.2669C11.4399 94.1091 11.4212 93.9013 11.4104 93.6435C11.3996 93.3858 11.3888 93.128 11.378 92.8702C11.3708 92.2955 11.3525 91.7997 11.3231 91.3828C11.2938 90.9659 11.2433 90.5445 11.1718 90.1184C11.1057 89.7239 11.0204 89.361 10.9162 89.0297C10.8198 88.6971 10.6643 88.423 10.4497 88.2076C10.3694 88.1156 10.3246 88.042 10.3153 87.9867C10.2994 87.8921 10.3342 87.7848 10.4195 87.6651C10.5115 87.5361 10.6264 87.4235 10.7644 87.3274C10.9103 87.2299 11.0503 87.1699 11.1844 87.1474C11.429 87.1063 11.6093 87.1897 11.7252 87.3973C11.8478 87.5958 11.9362 87.8568 11.9904 88.1802C12.0235 88.3775 12.0527 88.6241 12.078 88.9199C12.1033 89.2158 12.1234 89.5045 12.1382 89.7859C12.1595 90.0582 12.1709 90.2712 12.1724 90.4251C12.1873 90.8525 12.2094 91.2503 12.2388 91.6185C12.2681 91.9868 12.304 92.2971 12.3463 92.5496C12.3966 92.8494 12.4666 93.0972 12.5562 93.2931C12.6538 93.4876 12.7887 93.6394 12.9611 93.7484C13.0796 93.8258 13.1487 93.9238 13.1686 94.0421C13.2004 94.2315 13.1302 94.4176 12.9581 94.6006C12.7926 94.7744 12.552 94.8878 12.2364 94.9407ZM20.3298 93.6194C19.5171 93.7557 18.8265 93.6282 18.2579 93.2369C17.6959 92.8364 17.3368 92.1706 17.1806 91.2396C17.1104 90.8215 17.0929 90.3783 17.1279 89.91C17.1708 89.4405 17.2893 88.9623 17.4834 88.4754C17.356 88.6347 17.2252 88.7256 17.0911 88.7481C16.8623 88.7865 16.7175 88.6242 16.6566 88.2613C16.6129 88.0009 16.633 87.7826 16.717 87.6063C16.801 87.4299 16.8863 87.2858 16.973 87.1739C17.1214 86.9949 17.3172 86.8079 17.5603 86.613C17.8021 86.4102 18.0958 86.2271 18.4415 86.0636C18.7873 85.9002 19.185 85.7807 19.6347 85.7053C20.6919 85.5279 21.5351 85.6947 22.1643 86.2056C22.8001 86.7073 23.2067 87.4868 23.3841 88.544C23.4887 89.1673 23.4952 89.7624 23.4038 90.3294C23.3123 90.8963 23.1307 91.4094 22.859 91.8687C22.5951 92.3267 22.2496 92.7091 21.8225 93.016C21.3954 93.3229 20.8978 93.524 20.3298 93.6194ZM20.5216 92.2244C20.9161 92.1582 21.2875 92.0026 21.6357 91.7576C21.9919 91.5113 22.2591 91.1704 22.4375 90.7348C22.6225 90.2901 22.6614 89.7482 22.5542 89.1091C22.4536 88.5095 22.2591 88.0514 21.9707 87.7347C21.681 87.4102 21.3454 87.1988 20.9639 87.1006C20.5889 86.9931 20.2082 86.9718 19.8216 87.0367C19.5297 87.0857 19.272 87.1695 19.0485 87.2881C18.8316 87.3975 18.6397 87.5108 18.4728 87.628C18.3206 87.978 18.1922 88.3971 18.0875 88.8851C17.9815 89.3653 17.9709 89.8578 18.0556 90.3628C18.1403 90.8677 18.3091 91.2693 18.5619 91.5676C18.8134 91.858 19.1102 92.0556 19.4523 92.1604C19.8022 92.264 20.1587 92.2853 20.5216 92.2244ZM26.5796 92.5829C26.3587 92.62 26.1587 92.5887 25.9798 92.4889C25.8074 92.3799 25.6795 92.1499 25.5963 91.7988C25.5355 91.5332 25.4497 91.2394 25.3389 90.9173C25.2359 90.5939 25.1245 90.2921 25.0045 90.0121C24.8845 89.7321 24.7646 89.5251 24.6448 89.3911C24.575 89.3136 24.5013 89.261 24.4237 89.2335C24.3526 89.1968 24.2487 89.1817 24.1119 89.1885C23.9686 89.2044 23.8804 89.1138 23.8473 88.9165C23.793 88.593 23.8401 88.3418 23.9885 88.1628C24.1356 87.9758 24.3196 87.8638 24.5405 87.8268C24.7772 87.7871 24.9837 87.8335 25.1601 87.9662C25.3352 88.0909 25.484 88.2769 25.6066 88.524C25.7357 88.7619 25.8425 89.036 25.927 89.3463C26.0194 89.6553 26.0928 89.9715 26.1471 90.295C26.1669 90.4133 26.1828 90.5323 26.1948 90.652C26.2133 90.7625 26.2318 90.8729 26.2504 90.9834C26.2636 91.0623 26.2906 91.1267 26.3315 91.1766C26.371 91.2187 26.4538 91.2291 26.5801 91.2079C26.7537 91.1788 26.9515 91.101 27.1736 90.9745C27.3944 90.8401 27.5738 90.6518 27.7116 90.4097C27.8573 90.1662 27.9004 89.867 27.8408 89.5119C27.8104 89.3305 27.7576 89.1852 27.6825 89.0761C27.6061 88.9591 27.5113 88.8534 27.3981 88.7588C27.3599 88.7246 27.3257 88.6898 27.2954 88.6543C27.2651 88.6189 27.2453 88.5735 27.2361 88.5183C27.2109 88.3684 27.2503 88.2401 27.354 88.1335C27.4644 88.0176 27.5912 87.9274 27.7345 87.8628C27.8843 87.789 28.0106 87.7435 28.1131 87.7263C28.2157 87.709 28.2992 87.7234 28.3637 87.7694C28.4348 87.8061 28.4987 87.8968 28.5554 88.0414C28.6041 88.1387 28.647 88.2491 28.684 88.3727C28.7196 88.4884 28.7506 88.6252 28.7771 88.783C28.8182 89.0275 28.8394 89.2268 28.8409 89.3806C28.8503 89.5332 28.853 89.6706 28.8492 89.7929C28.8428 89.8995 28.8403 90.0054 28.8417 90.1106C28.8497 90.2066 28.8649 90.3216 28.8874 90.4558C28.9113 90.5978 28.9548 90.6878 29.0179 90.7259C29.0811 90.764 29.1719 90.7731 29.2902 90.7532C29.7399 90.6778 30.081 90.4624 30.3134 90.107C30.5445 89.7438 30.6223 89.3373 30.5468 88.8876C30.5203 88.7298 30.4722 88.5878 30.4023 88.4616C30.3312 88.3275 30.2258 88.2073 30.0863 88.1009C30.01 88.0326 29.9481 87.9781 29.9007 87.9374C29.852 87.8888 29.821 87.825 29.8078 87.7461C29.7839 87.6041 29.8252 87.4633 29.9316 87.3238C30.0459 87.183 30.1838 87.0625 30.3455 86.9623C30.5137 86.853 30.6688 86.7864 30.8109 86.7626C31.0239 86.7269 31.1785 86.8023 31.2747 86.989C31.3709 87.1756 31.4402 87.3952 31.4826 87.6476C31.554 88.0737 31.5657 88.5301 31.5176 89.0167C31.476 89.4942 31.3752 89.9572 31.2153 90.4059C31.054 90.8467 30.8288 91.2211 30.5398 91.5291C30.2508 91.8372 29.8972 92.0263 29.4791 92.0965C29.053 92.168 28.7406 92.0946 28.5418 91.8765C28.3429 91.6584 28.2262 91.3738 28.1916 91.0227C28.0158 91.4253 27.7861 91.7721 27.5023 92.0631C27.2264 92.3527 26.9188 92.526 26.5796 92.5829ZM34.7541 91.1993C34.1545 91.2999 33.6566 91.209 33.2604 90.9267C32.8708 90.6351 32.6244 90.1816 32.5211 89.5663C32.4271 89.0061 32.464 88.4767 32.6318 87.978C32.7997 87.4794 33.0662 87.0615 33.4314 86.7245C33.8033 86.3782 34.2377 86.1633 34.7348 86.0799C35.2081 86.0005 35.6067 86.0553 35.9305 86.2443C36.2529 86.4255 36.4465 86.7094 36.5114 87.096C36.563 87.4037 36.516 87.7036 36.3703 87.9957C36.2246 88.2878 36.0072 88.5393 35.7181 88.75C35.4277 88.9529 35.0892 89.0867 34.7026 89.1516C34.2292 89.231 33.8247 89.1894 33.4892 89.0266C33.558 89.3882 33.7292 89.6596 34.003 89.8408C34.2846 90.0207 34.6148 90.0789 34.9935 90.0153C35.2223 89.977 35.4484 89.8985 35.6719 89.7799C35.9019 89.652 36.0918 89.5026 36.2415 89.3314C36.3361 89.2182 36.4307 89.1537 36.5254 89.1378C36.6043 89.1245 36.6721 89.1416 36.7287 89.1888C36.7918 89.2269 36.83 89.2854 36.8433 89.3643C36.8724 89.5379 36.7609 89.7918 36.5087 90.1262C36.0648 90.7198 35.48 91.0775 34.7541 91.1993ZM34.465 88.3884C34.749 88.3407 34.9758 88.2418 35.1453 88.0917C35.3148 87.9416 35.3843 87.7758 35.3539 87.5943C35.3287 87.4444 35.2464 87.3406 35.1069 87.2829C34.9662 87.2173 34.7853 87.203 34.5644 87.2401C34.2725 87.2891 34.0293 87.411 33.8348 87.6059C33.647 87.7915 33.5289 88.0303 33.4805 88.3224C33.6029 88.3748 33.7542 88.4062 33.9344 88.4166C34.1146 88.4269 34.2914 88.4175 34.465 88.3884ZM43.0245 89.7022C42.7799 89.7432 42.5859 89.723 42.4425 89.6417C42.2977 89.5524 42.2028 89.3736 42.1578 89.1054C42.1234 88.9002 42.1073 88.6109 42.1095 88.2374C42.1183 87.8547 42.1481 87.4278 42.1989 86.957C42.0828 86.652 41.949 86.3378 41.7974 86.0144C41.6524 85.6818 41.4949 85.3716 41.3249 85.0837C41.1048 84.6907 40.8645 84.3701 40.6038 84.1218C40.3431 83.8735 40.0668 83.7739 39.7749 83.8228C39.7197 83.8321 39.6651 83.8453 39.6112 83.8625C39.5652 83.8783 39.5238 83.8974 39.487 83.9198C39.4107 83.9488 39.3186 83.9075 39.2107 83.7958C39.1106 83.6828 39.046 83.5395 39.0169 83.366C38.9798 83.1451 39.0223 82.9392 39.1444 82.7483C39.2731 82.5483 39.4716 82.4258 39.7398 82.3808C40.0712 82.3252 40.3935 82.3847 40.7067 82.5592C41.0264 82.7246 41.3358 83.0458 41.6349 83.5229C41.9419 83.9987 42.2365 84.6672 42.5189 85.5283C42.6 85.1416 42.7055 84.7304 42.8352 84.295C42.9715 83.8503 43.1361 83.4293 43.329 83.0319C43.5206 82.6266 43.7438 82.289 43.9987 82.0191C44.2522 81.7413 44.5407 81.5753 44.8642 81.521C45.0772 81.4853 45.2475 81.5094 45.3752 81.5935C45.5108 81.6762 45.5938 81.8083 45.6242 81.9897C45.6454 82.116 45.6403 82.2547 45.6089 82.406C45.5854 82.5559 45.5388 82.6895 45.4692 82.8066C45.3997 82.9237 45.3175 82.9903 45.2229 83.0061C45.1913 83.0114 45.1558 83.0174 45.1163 83.024C45.0835 83.0214 45.046 83.0155 45.0039 83.0064C44.9184 82.9802 44.8243 82.9757 44.7218 82.9929C44.4693 83.0352 44.2223 83.2551 43.9807 83.6526C43.7391 84.05 43.5333 84.6362 43.3631 85.411C43.1917 86.2266 43.1663 86.9934 43.2867 87.7114C43.3145 87.877 43.362 88.0394 43.4293 88.1985C43.5031 88.3483 43.6104 88.4804 43.7513 88.5947C43.85 88.6998 43.908 88.8036 43.9252 88.9062C43.9543 89.0798 43.8848 89.2455 43.7166 89.4035C43.5471 89.5537 43.3164 89.6532 43.0245 89.7022ZM47.5713 89.0488C47.0269 89.1402 46.5646 89.0677 46.1842 88.8314C45.8104 88.5858 45.5752 88.1751 45.4786 87.5991C45.4336 87.3309 45.4254 87.0646 45.4541 86.8002C45.4906 86.5345 45.5535 86.2806 45.6426 86.0385C45.5296 86.1386 45.4416 86.1939 45.3785 86.2045C45.2838 86.2204 45.2081 86.1803 45.1515 86.0844C45.1014 85.9792 45.0677 85.8754 45.0505 85.7728C45.0201 85.5913 45.0317 85.4434 45.0855 85.3289C45.1459 85.2052 45.207 85.1098 45.2687 85.0426C45.4106 84.8728 45.6451 84.6753 45.9724 84.45C46.2983 84.2169 46.7098 84.0586 47.2068 83.9752C47.8853 83.8614 48.4418 83.9627 48.8761 84.2792C49.3184 84.5944 49.5964 85.0912 49.7102 85.7697C49.7989 86.2983 49.7692 86.7981 49.6211 87.2691C49.4717 87.7323 49.2209 88.1231 48.8688 88.4418C48.5245 88.7591 48.0921 88.9615 47.5713 89.0488ZM47.7357 87.7802C48.1302 87.714 48.441 87.5361 48.6682 87.2465C48.902 86.9477 48.9845 86.5932 48.9157 86.1829C48.8442 85.7569 48.6551 85.4763 48.3486 85.3411C48.042 85.206 47.7072 85.1689 47.3443 85.2298C47.1786 85.2576 47.0313 85.2985 46.9025 85.3526C46.7737 85.4066 46.6541 85.4672 46.5437 85.5344C46.4597 85.7108 46.3908 85.9048 46.3371 86.1166C46.2835 86.3284 46.2765 86.5527 46.3162 86.7894C46.3824 87.1839 46.551 87.4638 46.8221 87.6292C47.0919 87.7868 47.3964 87.8371 47.7357 87.7802ZM52.578 88.2088C52.1835 88.275 51.8566 88.2122 51.5973 88.0205C51.3459 87.8274 51.1838 87.5139 51.111 87.08C51.0594 86.7723 51.0498 86.4494 51.0823 86.1114C51.0993 85.9707 51.1083 85.8312 51.1095 85.6931C51.1107 85.555 51.1 85.4189 51.0775 85.2848C51.0193 84.9377 50.875 84.7307 50.6448 84.6638C50.4211 84.5878 50.2987 84.4867 50.2775 84.3604C50.2563 84.2342 50.2865 84.0994 50.3678 83.9559C50.4571 83.8111 50.574 83.6861 50.7186 83.5807C50.8618 83.4674 51.0123 83.3976 51.1701 83.3711C51.6198 83.2957 51.9063 83.6248 52.0294 84.3585C52.0691 84.5952 52.0864 84.8195 52.0814 85.0312C52.0829 85.2337 52.0752 85.4297 52.0583 85.6191C52.048 85.7507 52.0415 85.8815 52.039 86.0117C52.0444 86.1406 52.0551 86.2524 52.071 86.3471C52.1372 86.7416 52.3635 86.9064 52.7501 86.8415C53.1131 86.7806 53.4199 86.5304 53.6706 86.0909C53.9213 85.6513 54.091 85.0672 54.1797 84.3385L54.1301 84.1156C54.0482 83.7238 54.0649 83.4127 54.1804 83.1824C54.3038 82.9508 54.5154 82.8098 54.8152 82.7595C55.0755 82.7159 55.2196 82.7769 55.2474 82.9426C55.2567 82.9978 55.2568 83.0708 55.2477 83.1615C55.2464 83.251 55.236 83.3582 55.2164 83.4831C55.1865 83.7883 55.1717 84.1112 55.1721 84.4518C55.1712 84.7846 55.1938 85.089 55.2402 85.3651C55.2918 85.6728 55.3822 85.9213 55.5113 86.1106C55.639 86.2919 55.839 86.3963 56.1113 86.4236C56.1837 86.4196 56.2429 86.434 56.2889 86.4668C56.3416 86.4904 56.3771 86.5575 56.3957 86.6679C56.4274 86.8573 56.3796 87.0559 56.2523 87.2638C56.1249 87.4718 55.9114 87.6009 55.6116 87.6512C55.0356 87.7478 54.6795 87.3898 54.5431 86.5772C54.5193 86.4352 54.4954 86.2202 54.4714 85.9322L54.4457 85.9243C54.1631 87.2858 53.5406 88.0473 52.578 88.2088ZM62.2721 86.5824C61.8855 86.6472 61.5173 86.6523 61.1674 86.5974C60.824 86.5333 60.5365 86.4153 60.3049 86.2432C60.0732 86.0712 59.9342 85.8471 59.8879 85.5709C59.8574 85.3895 59.8744 85.2244 59.9386 85.0757C60.0016 84.9191 60.108 84.8283 60.2579 84.8031C60.3526 84.7872 60.4572 84.8062 60.5717 84.86C60.798 85.0005 61.0763 85.112 61.4065 85.1945C61.7433 85.2678 62.0892 85.2746 62.4442 85.2151C62.9097 85.137 63.2732 84.9827 63.5347 84.7522C63.8027 84.5126 63.9103 84.235 63.8573 83.9194C63.807 83.6196 63.6326 83.4258 63.3339 83.338C63.0353 83.2502 62.6314 83.1881 62.1224 83.1519C61.7449 83.126 61.3753 83.0744 61.0135 82.9972C60.6597 82.9187 60.3524 82.7796 60.0918 82.58C59.8377 82.3711 59.677 82.0655 59.6095 81.6632C59.5578 81.3555 59.5739 81.0404 59.6578 80.7181C59.7403 80.3879 59.8905 80.0748 60.1085 79.7786C60.3265 79.4824 60.6083 79.2283 60.954 79.0162C61.2983 78.7962 61.7033 78.6471 62.1688 78.569C62.5159 78.5108 62.8381 78.4973 63.1354 78.5285C63.4405 78.5584 63.6879 78.6305 63.8774 78.7447C64.0748 78.8576 64.1907 79.0166 64.2251 79.2218C64.2516 79.3796 64.2314 79.5249 64.1644 79.6578C64.0975 79.7907 64.0108 79.9026 63.9044 79.9935C63.7966 80.0765 63.6994 80.1252 63.6126 80.1398C63.5337 80.153 63.4212 80.1354 63.2752 80.0869C63.0344 80.0056 62.7706 79.9566 62.4839 79.9398C62.2038 79.9138 61.9611 79.918 61.756 79.9524C61.3694 80.0173 61.0683 80.157 60.8529 80.3716C60.644 80.577 60.5587 80.7941 60.5971 81.0229C60.6395 81.2754 60.8251 81.4632 61.1541 81.5865C61.4896 81.7006 62.0677 81.7861 62.8884 81.8431C63.4487 81.8951 63.9 82.0222 64.2422 82.2243C64.583 82.4186 64.7984 82.784 64.8885 83.3205C64.9692 83.8018 64.9145 84.2733 64.7243 84.7352C64.542 85.1957 64.2399 85.5952 63.8181 85.9336C63.4028 86.2629 62.8875 86.4791 62.2721 86.5824ZM67.7177 85.6687C67.2443 85.7482 66.8372 85.6664 66.4963 85.4235C66.1619 85.1713 65.9484 84.7691 65.8558 84.2168C65.7896 83.8223 65.799 83.4192 65.8841 83.0075C65.9757 82.5865 66.141 82.1937 66.3799 81.8292C66.6189 81.4646 66.9276 81.1532 67.3061 80.895C67.6846 80.6369 68.1303 80.4647 68.6431 80.3787C69.1165 80.2993 69.5328 80.3146 69.892 80.4247C70.2577 80.5256 70.4637 80.7141 70.51 80.9902C70.522 81.0612 70.53 81.1572 70.534 81.2782C70.5368 81.3913 70.5323 81.4854 70.5205 81.5603C70.5074 81.6274 70.4819 81.6926 70.4438 81.7557C70.4123 81.8097 70.361 81.8426 70.29 81.8545C70.2585 81.8598 70.1973 81.8579 70.1066 81.8488C70.1028 82.0198 70.1063 82.1855 70.117 82.3459C70.1277 82.5064 70.1462 82.6655 70.1727 82.8233C70.223 83.1231 70.3114 83.3841 70.4379 83.6062C70.571 83.8191 70.7763 83.9307 71.0538 83.9409C71.1274 83.9448 71.1866 83.9592 71.2314 83.9841C71.284 84.0077 71.3189 84.0708 71.3361 84.1734C71.3507 84.2602 71.3456 84.3746 71.3207 84.5167C71.3038 84.6574 71.2415 84.7936 71.1338 84.9253C71.0326 85.0477 70.8676 85.1281 70.6388 85.1665C70.3311 85.2181 70.0759 85.1474 69.8732 84.9542C69.6691 84.7532 69.532 84.4437 69.4618 84.0255C69.3137 84.4478 69.0944 84.8091 68.8041 85.1093C68.5216 85.4081 68.1595 85.5946 67.7177 85.6687ZM67.8899 84.3744C68.2055 84.3215 68.4651 84.1765 68.6687 83.9396C68.8802 83.7013 69.0278 83.421 69.1116 83.0987C69.1667 82.8948 69.1993 82.6784 69.2096 82.4495C69.2185 82.2128 69.2124 81.9826 69.1911 81.7591C69.0464 81.7184 68.8839 81.693 68.7037 81.6826C68.5235 81.6723 68.3388 81.683 68.1494 81.7148C67.6681 81.7956 67.2935 82.0044 67.0256 82.3414C66.7655 82.6771 66.6713 83.0579 66.7427 83.4839C66.7957 83.7995 66.9255 84.0414 67.1322 84.2095C67.3375 84.3697 67.5901 84.4247 67.8899 84.3744ZM73.9416 84.6245C73.4603 84.7053 73.0867 84.6057 72.8207 84.3259C72.5613 84.0368 72.3892 83.6398 72.3045 83.1349C72.2741 82.9534 72.2522 82.7746 72.2388 82.5983C72.2334 82.4208 72.2279 82.2432 72.2225 82.0657C72.217 81.8881 72.2122 81.7145 72.2081 81.5449C72.204 81.3752 72.1972 81.2141 72.1879 81.0616C72.0301 81.1367 71.8684 81.1882 71.7027 81.216C71.5291 81.2451 71.4304 81.1887 71.4066 81.0466C71.3815 80.8967 71.4181 80.704 71.5165 80.4685C71.6135 80.2251 71.7428 79.9803 71.9043 79.7342C72.0737 79.4868 72.2451 79.2755 72.4185 79.1004C72.5985 78.9161 72.7595 78.812 72.9015 78.7882C73.0751 78.759 73.187 78.8944 73.2373 79.1942C73.2506 79.2731 73.2566 79.3573 73.2554 79.4467C73.2607 79.5269 73.2628 79.6117 73.2616 79.7012C73.4062 79.6445 73.5514 79.5917 73.6974 79.5429C73.8512 79.4927 73.9991 79.4557 74.1411 79.4319C74.3226 79.4015 74.466 79.4099 74.5712 79.4571C74.6844 79.503 74.7562 79.6167 74.7866 79.7982C74.8184 79.9875 74.8028 80.1848 74.7399 80.3901C74.6849 80.594 74.6022 80.7052 74.4917 80.7237C74.468 80.7277 74.4279 80.7304 74.3714 80.7317C74.3148 80.7331 74.2458 80.7325 74.1642 80.73C74.0577 80.7235 73.9235 80.7217 73.7618 80.7245C73.6 80.7273 73.4087 80.7472 73.1878 80.7843C73.1736 81.0382 73.1646 81.2992 73.161 81.5675C73.1639 81.8266 73.1826 82.0587 73.217 82.2639C73.2938 82.7215 73.4604 83.0139 73.717 83.1412C73.9736 83.2685 74.3189 83.2958 74.7528 83.223C74.887 83.2005 74.9856 83.2082 75.0488 83.2463C75.1106 83.2765 75.1508 83.3468 75.1694 83.4573C75.213 83.7176 75.116 83.961 74.8782 84.1875C74.6404 84.414 74.3282 84.5597 73.9416 84.6245ZM76.5435 84.1636C76.4331 84.1822 76.3338 84.1704 76.2456 84.1284C76.1588 84.0943 76.1159 84.0326 76.1172 83.9431C76.1296 83.2921 76.121 82.6365 76.0914 81.9763C76.0683 81.3069 76.0011 80.6408 75.89 79.9781C75.792 79.3942 75.6836 78.8689 75.5647 78.4022C75.4458 77.9354 75.2435 77.5029 74.9577 77.1047C74.9037 77.0246 74.8595 76.9549 74.8253 76.8958C74.791 76.8366 74.7692 76.7794 74.76 76.7242C74.7348 76.5743 74.7971 76.4138 74.9469 76.2426C75.1045 76.0702 75.2819 75.9674 75.4792 75.9343C75.7553 75.888 75.9738 76.0298 76.1346 76.3597C76.2954 76.6897 76.4328 77.1939 76.5466 77.8724C76.6829 78.685 76.7547 79.4031 76.762 80.0265C76.7679 80.642 76.7618 81.1135 76.7438 81.441L76.7951 81.4567C76.8827 81.0121 77.0066 80.5898 77.1666 80.1898C77.3345 79.7884 77.5498 79.4522 77.8126 79.181C78.0753 78.9098 78.4039 78.7411 78.7984 78.6749C79.2166 78.6047 79.5533 78.678 79.8087 78.8947C80.072 79.1101 80.2347 79.4033 80.2969 79.7741C80.3234 79.9319 80.3335 80.0884 80.327 80.2436C80.3193 80.3909 80.307 80.5349 80.29 80.6756C80.2718 80.8085 80.2581 80.9446 80.249 81.0841C80.2387 81.2156 80.2447 81.3484 80.2672 81.4825C80.3083 81.7271 80.4012 81.9184 80.546 82.0563C80.6895 82.1864 80.8652 82.2664 81.073 82.2964C81.1309 82.3029 81.1743 82.32 81.2033 82.3476C81.2388 82.366 81.2625 82.4106 81.2744 82.4817C81.2863 82.5527 81.2799 82.6592 81.255 82.8013C81.2302 82.9433 81.1646 83.0841 81.0582 83.2237C80.9505 83.3553 80.7744 83.4416 80.5298 83.4827C80.2142 83.5356 79.9511 83.4662 79.7405 83.2744C79.5285 83.0747 79.3927 82.7974 79.3332 82.4423C79.304 82.2687 79.29 82.0886 79.2911 81.9018C79.3002 81.7137 79.3144 81.5329 79.334 81.3593C79.3456 81.187 79.3553 81.0272 79.363 80.8798C79.3694 80.7246 79.364 80.5958 79.3468 80.4932C79.2859 80.1303 79.0661 79.9806 78.6874 80.0441C78.3719 80.0971 78.111 80.2584 77.9048 80.5283C77.7051 80.7889 77.5477 81.1074 77.4323 81.4836C77.3236 81.8507 77.2444 82.2249 77.1948 82.6064L77.2623 83.0088C77.3113 83.3007 77.2649 83.5559 77.1231 83.7744C76.9892 83.9915 76.796 84.1213 76.5435 84.1636ZM82.1575 77.0405C81.9353 77.0697 81.7465 77.0324 81.5912 76.9287C81.4359 76.825 81.339 76.6587 81.3007 76.4299C81.2675 76.184 81.3173 75.9728 81.4499 75.7965C81.5812 75.6122 81.7698 75.5035 82.0157 75.4703C82.2459 75.4398 82.4346 75.4771 82.5821 75.5822C82.7374 75.6859 82.8303 75.8528 82.8608 76.083C82.8926 76.321 82.8468 76.5315 82.7233 76.7144C82.5986 76.8895 82.41 76.9982 82.1575 77.0405ZM83.176 83.0387C82.9393 83.0784 82.7433 83.0464 82.588 82.9427C82.4314 82.831 82.3266 82.6174 82.2737 82.3018C82.2432 82.1204 82.2292 81.9402 82.2317 81.7613C82.242 81.5811 82.2569 81.4042 82.2765 81.2306C82.3026 81.0478 82.3162 80.863 82.3173 80.6762C82.3263 80.4881 82.3136 80.2915 82.2792 80.0864C82.2553 79.9444 82.2131 79.8136 82.1525 79.6939C82.0905 79.5664 81.9872 79.4824 81.8425 79.4418C81.7306 79.4037 81.6306 79.3637 81.5425 79.3217C81.4609 79.2705 81.4121 79.1976 81.3963 79.1029C81.3777 78.9925 81.4092 78.8655 81.4905 78.7221C81.5719 78.5786 81.6882 78.4496 81.8393 78.335C81.997 78.2112 82.1666 78.1341 82.348 78.1037C82.5453 78.0706 82.6959 78.098 82.7999 78.186C82.9118 78.2727 82.9967 78.3923 83.0548 78.5448C83.1128 78.6973 83.1557 78.8564 83.1835 79.0221C83.2259 79.2745 83.2479 79.5264 83.2494 79.7776C83.2497 80.0209 83.2473 80.2484 83.2423 80.4602C83.2359 80.6154 83.2354 80.7574 83.2408 80.8863C83.2462 81.0152 83.2581 81.1349 83.2767 81.2453C83.3098 81.4426 83.3823 81.5845 83.4941 81.6712C83.6047 81.75 83.754 81.8182 83.9422 81.8759C84.0198 81.9034 84.0652 81.9566 84.0785 82.0355C84.0891 82.0987 84.0741 82.2026 84.0334 82.3473C83.9928 82.492 83.9029 82.6328 83.7636 82.7697C83.6323 82.9054 83.4364 82.995 83.176 83.0387Z" fill="#1E2225"/>
</svg>
