<svg width="50" height="50" viewBox="0 0 152 106" fill="none" xmlns="http://www.w3.org/2000/svg">
<path d="M22.776 16.384C22.392 18.848 22.2 23.376 22.2 29.968C22.2 36.528 22.424 41.328 22.872 44.368C24.12 44.592 25.08 44.864 25.752 45.184L25.608 46.432C23.304 46.144 20.792 46 18.072 46C15.384 46 13.08 46.144 11.16 46.432L10.968 45.136C11.672 44.752 12.568 44.448 13.656 44.224C14.072 41.088 14.28 36.576 14.28 30.688C14.28 24.8 14.04 20.08 13.56 16.528C12.472 16.304 11.576 16 10.872 15.616L11.064 14.32C12.984 14.608 15.288 14.752 17.976 14.752C20.696 14.752 23.208 14.608 25.512 14.32L25.656 15.568C24.984 15.888 24.024 16.16 22.776 16.384ZM43.0208 46.72C38.6048 46.72 35.1488 45.488 32.6528 43.024C30.1568 40.56 28.9088 37.184 28.9088 32.896C28.9088 28.608 30.2368 24.784 32.8928 21.424C35.5808 18.032 39.1808 15.568 43.6928 14.032C48.1088 14.032 51.4528 15.168 53.7248 17.44C55.9968 19.68 57.1328 23.056 57.1328 27.568C57.1328 32.048 55.8848 35.984 53.3888 39.376C50.8928 42.736 47.4368 45.184 43.0208 46.72ZM44.5568 18.592C43.8208 18.24 42.9408 18.064 41.9168 18.064C40.8928 18.064 40.0128 18.32 39.2768 18.832C38.0928 21.584 37.5008 25.216 37.5008 29.728C37.5008 32.928 37.9008 35.76 38.7008 38.224C39.1488 39.6 39.8208 40.688 40.7168 41.488C41.6448 42.288 42.6848 42.688 43.8368 42.688C44.9888 42.688 45.9648 42.416 46.7648 41.872C47.9488 39.152 48.5408 35.568 48.5408 31.12C48.5408 26.896 48.2048 23.952 47.5328 22.288C46.7968 20.4 45.8048 19.168 44.5568 18.592ZM87.8738 16.384C87.4898 18.848 87.2978 23.376 87.2978 29.968C87.2978 36.528 87.5218 41.328 87.9698 44.368C89.2178 44.592 90.1778 44.864 90.8498 45.184L90.7058 46.432C88.4018 46.144 86.2898 46 84.3698 46C82.4818 46 80.5778 46.144 78.6578 46.432L78.4658 45.568C78.7538 45.12 78.9618 44.208 79.0898 42.832C77.4578 44.4 75.3618 45.696 72.8018 46.72C68.8658 46.72 66.1458 45.744 64.6418 43.792C63.1378 41.84 62.3858 38.72 62.3858 34.432C62.3858 32.608 62.4978 29.712 62.7218 25.744C62.9458 21.776 63.0578 19.408 63.0578 18.64C63.0578 17.872 62.9458 17.152 62.7218 16.48C61.5698 16.224 60.7538 15.936 60.2738 15.616L60.4658 14.32C62.7378 14.608 65.0418 14.752 67.3778 14.752C69.7138 14.752 71.6018 14.64 73.0418 14.416L73.2338 15.232C72.4658 15.648 71.9378 16.176 71.6498 16.816C71.3618 17.456 71.1058 19.152 70.8818 21.904C70.6578 24.624 70.5458 27.392 70.5458 30.208C70.5458 32.992 70.5458 34.656 70.5458 35.2C70.5778 35.744 70.6258 36.448 70.6898 37.312C70.7858 38.176 70.9138 38.832 71.0738 39.28C71.2658 39.728 71.5218 40.192 71.8418 40.672C72.4498 41.568 73.4738 42.016 74.9138 42.016C76.3858 42.016 77.8258 41.472 79.2338 40.384C79.3298 38.976 79.3778 35.536 79.3778 30.064C79.3778 24.592 79.1378 20.08 78.6578 16.528C77.5698 16.304 76.6738 16 75.9698 15.616L76.1618 14.32C78.0818 14.608 80.3858 14.752 83.0738 14.752C85.7938 14.752 88.3058 14.608 90.6098 14.32L90.7538 15.568C90.0818 15.888 89.1218 16.16 87.8738 16.384Z" fill="#1E2225"/>
<path d="M16.3633 83.9786C14.8151 84.2272 13.342 84.2368 11.944 84.0076C10.5725 83.7416 9.42582 83.2613 8.50404 82.5667C7.58226 81.872 7.03259 80.9718 6.85504 79.8659C6.73836 79.1393 6.81068 78.4794 7.07199 77.8865C7.32822 77.262 7.7565 76.9015 8.35681 76.8052C8.73595 76.7443 9.15372 76.8231 9.61012 77.0415C10.5116 77.6097 11.6216 78.0635 12.94 78.4028C14.285 78.7054 15.6684 78.7426 17.0902 78.5143C18.9543 78.215 20.4126 77.6081 21.4649 76.6937C22.5438 75.7427 22.9818 74.6352 22.7788 73.3714C22.5861 72.1708 21.8936 71.3907 20.7016 71.0311C19.5095 70.6716 17.8959 70.4121 15.8609 70.2527C14.3518 70.1385 12.8747 69.9219 11.4299 69.6029C10.0167 69.2789 8.7916 68.7139 7.75474 67.9081C6.74441 67.0656 6.10988 65.8387 5.85116 64.2273C5.65331 62.9951 5.72657 61.7356 6.07091 60.4487C6.41019 59.1302 7.01998 57.8818 7.9003 56.7033C8.78061 55.5249 9.91506 54.5163 11.3037 53.6775C12.6872 52.8072 14.311 52.2224 16.1751 51.9231C17.5653 51.6999 18.8545 51.6549 20.0427 51.7882C21.2624 51.9165 22.2497 52.2117 23.0045 52.6739C23.7909 53.131 24.2501 53.7703 24.382 54.5918C24.4834 55.2237 24.3984 55.8045 24.127 56.3342C23.8555 56.864 23.5057 57.3091 23.0774 57.6695C22.644 57.9984 22.2536 58.1907 21.9061 58.2465C21.5901 58.2972 21.1407 58.2235 20.558 58.0254C19.5972 57.6935 18.5436 57.49 17.3972 57.4148C16.2773 57.3029 15.3066 57.3129 14.4851 57.4448C12.9369 57.6934 11.7289 58.2439 10.8611 59.0962C10.0198 59.9119 9.67265 60.7779 9.81976 61.6942C9.9821 62.7052 10.7194 63.4619 12.0316 63.9642C13.3704 64.4299 15.6804 64.7882 18.9617 65.0392C21.2015 65.2629 23.0028 65.784 24.3658 66.6022C25.7237 67.3889 26.5751 68.8565 26.9201 71.005C27.2295 72.9323 26.9973 74.8169 26.2236 76.6589C25.4814 78.4958 24.2619 80.0852 22.5652 81.4272C20.895 82.7324 18.8277 83.5829 16.3633 83.9786ZM38.1707 80.4772C36.275 80.7816 34.6488 80.4431 33.292 79.4618C31.9618 78.4438 31.1192 76.829 30.7641 74.6173C30.5104 73.0375 30.5595 71.4253 30.9112 69.7808C31.2895 68.0996 31.9616 66.5332 32.9278 65.0817C33.8939 63.6302 35.1375 62.3934 36.6587 61.3713C38.1799 60.3492 39.9674 59.6733 42.0211 59.3436C43.9168 59.0392 45.5814 59.1122 47.015 59.5626C48.475 59.9764 49.2938 60.7362 49.4714 61.8421C49.517 62.1264 49.5463 62.5106 49.5592 62.9947C49.5671 63.4472 49.5464 63.8232 49.4973 64.1228C49.4431 64.3908 49.3389 64.6506 49.1849 64.9022C49.0573 65.1171 48.8514 65.2474 48.567 65.2931C48.4407 65.3134 48.1961 65.304 47.8333 65.265C47.8135 65.9488 47.8227 66.6117 47.8609 67.2538C47.8992 67.8958 47.9691 68.5328 48.0705 69.1647C48.2633 70.3654 48.6096 71.4117 49.1093 72.3038C49.6356 73.1591 50.4536 73.6112 51.5633 73.6599C51.8578 73.6774 52.0942 73.7367 52.2725 73.8377C52.4823 73.9336 52.6202 74.187 52.6862 74.5977C52.742 74.9453 52.7182 75.4028 52.6149 75.9704C52.5432 76.5329 52.29 77.0759 51.8555 77.5994C51.4476 78.0862 50.7854 78.4032 49.8692 78.5503C48.637 78.7481 47.6181 78.458 46.8125 77.6798C46.0019 76.8701 45.4622 75.628 45.1933 73.9534C44.5888 75.6386 43.7017 77.0774 42.5319 78.2699C41.3938 79.4574 39.94 80.1931 38.1707 80.4772ZM38.8959 75.3048C40.1597 75.1019 41.2021 74.5294 42.0232 73.5873C42.8758 72.6402 43.4743 71.5232 43.8186 70.2363C44.0444 69.4222 44.1811 68.5576 44.2286 67.6425C44.2711 66.6958 44.2529 65.7751 44.174 64.8803C43.5963 64.7137 42.9473 64.6073 42.2268 64.5609C41.5063 64.5146 40.767 64.5522 40.0087 64.674C38.0814 64.9834 36.5771 65.8083 35.4959 67.1487C34.4463 68.484 34.0585 70.0047 34.3324 71.7108C34.5354 72.9746 35.0478 73.9457 35.8697 74.624C36.6865 75.2707 37.6953 75.4976 38.8959 75.3048ZM63.095 76.4754C61.1677 76.7848 59.676 76.3761 58.62 75.2493C57.5906 74.0858 56.9135 72.493 56.5888 70.4709C56.4721 69.7442 56.3896 69.0282 56.3412 68.3229C56.3244 67.6126 56.3075 66.9023 56.2907 66.192C56.2739 65.4817 56.2596 64.7872 56.2479 64.1084C56.2361 63.4297 56.2137 62.7851 56.1805 62.1747C55.5474 62.4708 54.8991 62.6721 54.2356 62.7786C53.5405 62.8902 53.1473 62.6617 53.056 62.093C52.9596 61.4927 53.1115 60.7228 53.5116 59.7835C53.9067 58.8126 54.4307 57.8372 55.0836 56.8573C55.7681 55.8723 56.4597 55.0321 57.1582 54.3365C57.8833 53.6043 58.5302 53.1926 59.099 53.1013C59.7941 52.9897 60.238 53.5342 60.4308 54.7348C60.4815 55.0507 60.5032 55.3876 60.4958 55.7453C60.5149 56.0663 60.5208 56.4057 60.5134 56.7633C61.0934 56.5406 61.676 56.3336 62.2611 56.1424C62.8778 55.9462 63.4705 55.8024 64.0392 55.7111C64.7659 55.5944 65.3391 55.632 65.7588 55.8239C66.2101 56.0107 66.4941 56.4675 66.6108 57.1942C66.7326 57.9525 66.6647 58.7412 66.4073 59.5604C66.1815 60.3744 65.8475 60.817 65.4051 60.888C65.3104 60.9032 65.1498 60.9128 64.9236 60.9167C64.6974 60.9206 64.4212 60.9164 64.0951 60.9039C63.6691 60.8751 63.1326 60.864 62.4855 60.8707C61.8383 60.8773 61.0724 60.9517 60.1878 61.0937C60.1239 62.1087 60.0808 63.1527 60.0587 64.2258C60.063 65.2622 60.1312 66.1912 60.263 67.0126C60.5573 68.8452 61.2158 70.0196 62.2386 70.536C63.2614 71.0524 64.6417 71.1711 66.3794 70.8921C66.9165 70.8058 67.3109 70.8397 67.5625 70.9938C67.809 71.1163 67.9678 71.3987 68.0388 71.841C68.2062 72.8837 67.8112 73.8546 66.8536 74.7537C65.896 75.6529 64.6432 76.2268 63.095 76.4754ZM73.5155 74.705C73.0731 74.776 72.6762 74.7263 72.3248 74.5559C71.9784 74.417 71.8089 74.1688 71.8163 73.8111C71.8844 71.2074 71.8684 68.5847 71.7684 65.9432C71.6949 63.265 71.4451 60.5989 71.0189 57.9448C70.6435 55.6068 70.2247 53.5026 69.7623 51.6322C69.2999 49.7619 68.5027 48.0263 67.3706 46.4255C67.1569 46.1034 66.9823 45.8235 66.8469 45.5859C66.7115 45.3484 66.6261 45.119 66.5906 44.8979C66.4942 44.2976 66.7479 43.6573 67.3517 42.9769C67.9871 42.2915 68.6997 41.8854 69.4896 41.7586C70.5954 41.5811 71.4653 42.1544 72.0993 43.4786C72.7332 44.8029 73.2683 46.8236 73.7046 49.5408C74.2271 52.7951 74.4941 55.6691 74.5056 58.1629C74.512 60.625 74.4745 62.5108 74.393 63.8203L74.5978 63.8846C74.9609 62.1086 75.468 60.4229 76.1193 58.8274C76.8023 57.2269 77.673 55.888 78.7316 54.8105C79.7902 53.7331 81.1093 53.0675 82.6891 52.8139C84.3636 52.545 85.7086 52.8476 86.724 53.7217C87.771 54.5907 88.4138 55.7677 88.6522 57.2527C88.7536 57.8846 88.7894 58.5109 88.7594 59.1315C88.7243 59.7205 88.6709 60.2962 88.5992 60.8587C88.5224 61.3896 88.4639 61.9337 88.4237 62.4912C88.3785 63.017 88.399 63.5484 88.4853 64.0856C88.6426 65.065 89.0089 65.8327 89.5843 66.3885C90.1546 66.9127 90.855 67.2378 91.6854 67.3637C91.9168 67.3914 92.0899 67.4608 92.205 67.572C92.3466 67.6465 92.4403 67.8259 92.4859 68.1102C92.5316 68.3946 92.5027 68.8206 92.3994 69.3881C92.2961 69.9557 92.0297 70.517 91.6003 71.0721C91.1658 71.5956 90.4588 71.936 89.4793 72.0932C88.2155 72.2962 87.165 72.0111 86.3279 71.238C85.4857 70.4334 84.9504 69.3201 84.7221 67.8984C84.6105 67.2033 84.5596 66.4822 84.5693 65.7352C84.6106 64.9832 84.6728 64.2602 84.7558 63.5662C84.8072 62.8774 84.8505 62.2384 84.8856 61.6494C84.9156 61.0288 84.8976 60.5131 84.8316 60.1024C84.5983 58.649 83.7233 58.0441 82.2067 58.2876C80.9429 58.4905 79.8948 59.1287 79.0625 60.2022C78.2567 61.2391 77.6178 62.5084 77.146 64.0102C76.7006 65.4754 76.3734 66.9701 76.1644 68.4945L76.4232 70.1059C76.6109 71.2749 76.418 72.2944 75.8447 73.1643C75.3029 74.0291 74.5265 74.5427 73.5155 74.705ZM96.1711 46.3711C95.2813 46.4816 94.5273 46.3271 93.909 45.9079C93.2908 45.4886 92.9081 44.8208 92.7609 43.9045C92.6353 42.92 92.8402 42.0769 93.3757 41.3751C93.9062 40.6417 94.6637 40.2122 95.6482 40.0865C96.5695 39.971 97.3235 40.1254 97.9102 40.5498C98.5285 40.9691 98.8954 41.6394 99.0109 42.5607C99.1315 43.5137 98.9424 44.3543 98.4436 45.0826C97.9396 45.7793 97.1821 46.2088 96.1711 46.3711ZM100.076 70.3918C99.1286 70.544 98.3455 70.4104 97.7272 69.9911C97.1039 69.5402 96.6907 68.6829 96.4878 67.4191C96.3711 66.6924 96.3202 65.9713 96.335 65.256C96.3813 64.5355 96.446 63.8283 96.5291 63.1344C96.6387 62.4037 96.6983 61.6649 96.708 60.918C96.7493 60.1659 96.704 59.3791 96.5721 58.5577C96.4808 57.9889 96.3155 57.4645 96.0764 56.9843C95.8322 56.4726 95.4212 56.1335 94.8435 55.9669C94.3973 55.8117 93.9984 55.6489 93.647 55.4784C93.322 55.2713 93.1291 54.9782 93.0682 54.5991C92.9972 54.1567 93.1265 53.6498 93.4561 53.0784C93.7856 52.5069 94.2543 51.9941 94.862 51.54C95.4962 51.0493 96.1766 50.7456 96.9033 50.6289C97.6932 50.5021 98.2949 50.6161 98.7084 50.9711C99.1535 51.3209 99.49 51.8017 99.7178 52.4133C99.9456 53.0249 100.113 53.6624 100.219 54.3259C100.382 55.337 100.463 56.3449 100.462 57.3498C100.456 58.323 100.44 59.233 100.414 60.0799C100.384 60.7005 100.378 61.2686 100.396 61.7843C100.414 62.2999 100.458 62.7789 100.529 63.2213C100.656 64.0112 100.942 64.581 101.387 64.9309C101.827 65.2492 102.423 65.5263 103.174 65.7622C103.483 65.8745 103.664 66.0887 103.714 66.4046C103.755 66.6574 103.692 67.0726 103.525 67.6503C103.359 68.228 102.995 68.7888 102.434 69.3326C101.905 69.8713 101.119 70.2244 100.076 70.3918Z" fill="#FD8900"/>
</svg>
