<svg xmlns="http://www.w3.org/2000/svg" viewBox="0 0 402.87 297.3">
  <defs>
    <style>
      .cls-1 {
        fill: #263238;
      }

      .cls-2 {
        fill: #37474f;
      }

      .cls-3 {
        fill: #dbdbdb;
      }

      .cls-4 {
        fill: #ffc727;
      }

      .cls-5 {
        fill: #a6a6a6;
      }

      .cls-6 {
        fill: #fff;
      }

      .cls-7 {
        fill: #f7a9a0;
      }

      .cls-8 {
        fill: #c7c7c7;
      }

      .cls-9 {
        fill: #eb9481;
      }

      .cls-10 {
        fill: #455a64;
      }

      .cls-11, .cls-13 {
        opacity: 0.1;
      }

      .cls-12 {
        fill: #ff9bbc;
      }

      .cls-14 {
        opacity: 0.3;
      }
    </style>
  </defs>
  <g id="Table">
    <path class="cls-1" d="M56.11,454.19c124.22-.61,263.56-.62,387.78,0-124.22.62-263.56.61-387.78,0Z" transform="translate(-50.79 -175.22)"/>
  </g>
  <g id="Calculator">
    <g>
      <rect class="cls-1" x="342.11" y="182.78" width="100.69" height="156.54" transform="translate(-8.6 -229.58) rotate(8.37)"/>
      <rect class="cls-2" x="334.89" y="181.72" width="100.69" height="156.54" transform="translate(-8.83 -228.54) rotate(8.37)"/>
      <g>
        <rect class="cls-3" x="347.17" y="217.17" width="19.36" height="19.36" transform="translate(-13.96 -224.76) rotate(8.37)"/>
        <rect class="cls-3" x="368.87" y="220.37" width="19.36" height="19.36" transform="translate(-13.26 -227.89) rotate(8.37)"/>
        <rect class="cls-4" x="390.58" y="223.56" width="19.36" height="19.36" transform="translate(-12.56 -231.02) rotate(8.37)"/>
        <rect class="cls-4" x="412.29" y="226.76" width="19.36" height="19.36" transform="translate(-11.87 -234.14) rotate(8.37)"/>
        <rect class="cls-5" x="343.93" y="239.14" width="19.36" height="19.36" transform="translate(-10.79 -224.06) rotate(8.37)"/>
        <rect class="cls-5" x="365.64" y="242.34" width="19.36" height="19.36" transform="translate(-10.09 -227.19) rotate(8.37)"/>
        <rect class="cls-5" x="387.35" y="245.53" width="19.36" height="19.36" transform="translate(-9.4 -230.31) rotate(8.37)"/>
        <rect class="cls-3" x="409.03" y="248.86" width="19.36" height="19.36" transform="translate(-8.68 -233.43) rotate(8.37)"/>
        <rect class="cls-5" x="340.7" y="261.11" width="19.36" height="19.36" transform="translate(-7.63 -223.35) rotate(8.37)"/>
        <rect class="cls-5" x="362.41" y="264.31" width="19.36" height="19.36" transform="translate(-6.93 -226.48) rotate(8.37)"/>
        <rect class="cls-5" x="384.11" y="267.5" width="19.36" height="19.36" transform="translate(-6.23 -229.61) rotate(8.37)"/>
        <rect class="cls-3" x="405.82" y="270.7" width="19.36" height="19.36" transform="translate(-5.54 -232.73) rotate(8.37)"/>
        <rect class="cls-5" x="337.47" y="283.08" width="19.36" height="19.36" transform="translate(-4.47 -222.64) rotate(8.37)"/>
        <rect class="cls-5" x="359.17" y="286.28" width="19.36" height="19.36" transform="translate(-3.77 -225.78) rotate(8.37)"/>
        <rect class="cls-5" x="380.88" y="289.47" width="19.36" height="19.36" transform="translate(-3.07 -228.9) rotate(8.37)"/>
        <rect class="cls-3" x="402.59" y="292.67" width="19.36" height="19.36" transform="translate(-2.37 -232.03) rotate(8.37)"/>
        <rect class="cls-5" x="334.23" y="305.05" width="19.36" height="19.36" transform="translate(-1.3 -221.94) rotate(8.37)"/>
        <rect class="cls-5" x="355.94" y="308.25" width="19.36" height="19.36" transform="translate(-0.6 -225.07) rotate(8.37)"/>
        <rect class="cls-3" x="377.65" y="311.44" width="19.36" height="19.36" transform="translate(0.09 -228.2) rotate(8.37)"/>
        <rect class="cls-3" x="399.35" y="314.64" width="19.36" height="19.36" transform="translate(0.79 -231.33) rotate(8.37)"/>
        <path class="cls-2" d="M354.28,224.57h0a1.33,1.33,0,1,1,2.63.37h0a1.35,1.35,0,0,1-1.53,1.23A1.33,1.33,0,0,1,354.28,224.57Zm1.92.28h0a.74.74,0,0,0-.49-.91c-.38-.05-.66.28-.72.71v0c-.07.45.13.85.49.9S356.13,225.28,356.2,224.85Zm-1.56,3.58L359,224a.32.32,0,0,1,.29-.11.33.33,0,0,1,.28.36.43.43,0,0,1-.11.2l-4.39,4.46a.31.31,0,0,1-.3.1.31.31,0,0,1-.27-.35A.42.42,0,0,1,354.64,228.43Zm2.59-.51h0a1.34,1.34,0,1,1,2.64.37h0a1.33,1.33,0,1,1-2.63-.37Zm1.92.29v0c.07-.45-.13-.85-.49-.9s-.65.27-.72.7v0c-.07.46.14.85.5.9S359.09,228.64,359.15,228.21Z" transform="translate(-50.79 -175.22)"/>
        <g>
          <path class="cls-2" d="M395.48,232a3,3,0,0,1,5.1-1.55.46.46,0,0,1-.66.64,2.06,2.06,0,0,0-1.22-.63,2.11,2.11,0,0,0-1.52.37,2,2,0,0,0-.79,1.3,1.94,1.94,0,0,0,.38,1.47,2.11,2.11,0,0,0,1.35.79,2.06,2.06,0,0,0,1.35-.25.49.49,0,0,1,.62.18.48.48,0,0,1-.17.63,3.07,3.07,0,0,1-1.93.35A3,3,0,0,1,395.48,232Z" transform="translate(-50.79 -175.22)"/>
          <path class="cls-2" d="M401.52,235.37l.69-4.71a.44.44,0,0,1,.5-.37h0l2.58.38a.45.45,0,0,1-.13.89l-2.16-.32-.21,1.46,1.85.27a.47.47,0,0,1,.38.51.46.46,0,0,1-.51.38l-1.85-.27-.22,1.46,2.16.32a.45.45,0,0,1,.37.51.45.45,0,0,1-.5.38l-2.58-.38h0A.43.43,0,0,1,401.52,235.37Z" transform="translate(-50.79 -175.22)"/>
        </g>
        <path class="cls-2" d="M419.55,235.54a3,3,0,0,1,3.35-2.44,3,3,0,0,1,1.75.89.48.48,0,0,1,0,.65.46.46,0,0,1-.65,0,2.05,2.05,0,0,0-1.22-.62,2.11,2.11,0,0,0-1.52.36,2,2,0,0,0-.41,2.78,2.14,2.14,0,0,0,1.35.78,2,2,0,0,0,1.35-.25.49.49,0,0,1,.62.18.48.48,0,0,1-.17.63,3,3,0,0,1-1.93.35A3,3,0,0,1,419.55,235.54Z" transform="translate(-50.79 -175.22)"/>
        <path class="cls-6" d="M355.69,246.88,353,251.3a.48.48,0,0,1-.61.15.47.47,0,0,1-.15-.61l2.32-3.84-2.05-.3a.46.46,0,0,1-.38-.51.46.46,0,0,1,.51-.38l2.73.41h.08l.16.09,0,0,0,0s0,0,0,0,0,0,0,0a.06.06,0,0,1,0,0,.13.13,0,0,0,0,.05v0s0,0,0,0a.57.57,0,0,1,0,.18Z" transform="translate(-50.79 -175.22)"/>
        <path class="cls-6" d="M376.93,253.15a1.93,1.93,0,1,1-2.73-2,1.29,1.29,0,0,1-.14-.83,1.33,1.33,0,0,1,2.63.39,1.29,1.29,0,0,1-.38.75A1.93,1.93,0,0,1,376.93,253.15Zm-.87-.13a1,1,0,1,0-1.18.88A1,1,0,0,0,376.06,253Zm-1.13-2.59a.45.45,0,1,0,.89.13.43.43,0,0,0-.37-.5A.44.44,0,0,0,374.93,250.43Z" transform="translate(-50.79 -175.22)"/>
        <path class="cls-6" d="M395.12,254a2,2,0,0,1,2.22-1.65,2,2,0,0,1,1.67,2h0c0,.16,0,.31,0,.46a4.87,4.87,0,0,1-.52,1.59,2.84,2.84,0,0,1-1.23,1.22,2.27,2.27,0,0,1-1.25.19.44.44,0,0,1-.4-.49.46.46,0,0,1,.49-.4,1.44,1.44,0,0,0,.79-.11,1.54,1.54,0,0,0,.58-.48l.14-.19a1.9,1.9,0,0,1-.79,0A2,2,0,0,1,395.12,254Zm.89.13a1.06,1.06,0,1,0,2.09.31,1,1,0,0,0-.89-1.2A1,1,0,0,0,396,254.17Z" transform="translate(-50.79 -175.22)"/>
        <path class="cls-2" d="M417,258.3a.47.47,0,0,1,.54-.41l2.48.36a.48.48,0,0,1,.4.55.46.46,0,0,1-.53.4l-2.49-.36A.48.48,0,0,1,417,258.3Z" transform="translate(-50.79 -175.22)"/>
        <path class="cls-6" d="M352.35,272.26a.46.46,0,0,1-.51.38l-.08,0-.09.61a.44.44,0,0,1-.88-.13l.09-.61-2.5-.36h0a.38.38,0,0,1-.26-.13.44.44,0,0,1,0-.63l3.49-3.23h0l0,0,0,0,0,0h.05l0,0h.26l0,0h0l0,0,0,0s0,0,0,0l0,0,0,0,0,0,0,0a.06.06,0,0,0,0,0,.13.13,0,0,0,0,.05v0a0,0,0,0,1,0,0s0,0,0,0v0l-.47,3.23H352A.45.45,0,0,1,352.35,272.26Zm-1.05-2.61-1.88,1.73,1.59.24Z" transform="translate(-50.79 -175.22)"/>
        <path class="cls-6" d="M373.25,273.4a2,2,0,0,1,.37,1.49,2,2,0,0,1-.79,1.31,2,2,0,0,1-1.48.37h0a2,2,0,0,1-1.31-.78.45.45,0,0,1,.1-.64.46.46,0,0,1,.64.09,1,1,0,0,0,.71.43,1.08,1.08,0,0,0,.81-.2,1.1,1.1,0,0,0,.43-.71,1.06,1.06,0,0,0-.21-.82,1,1,0,0,0-.71-.42,1,1,0,0,0-.81.2.45.45,0,0,1-.64-.1l-.07-.11v-.07s0,0,0-.06h0a.59.59,0,0,1,0-.14l.54-2a.55.55,0,0,1,.25-.29h.06a.49.49,0,0,1,.21,0l2.36.35a.44.44,0,0,1,.38.52.45.45,0,0,1-.52.38l-2-.29-.21.77a2.53,2.53,0,0,1,.55,0A2,2,0,0,1,373.25,273.4Z" transform="translate(-50.79 -175.22)"/>
        <path class="cls-6" d="M395.52,278.16a2,2,0,0,1-3.89-.37s0,0,0,0,0-.3.05-.45a4.69,4.69,0,0,1,.52-1.6,2.87,2.87,0,0,1,1.23-1.21,2.35,2.35,0,0,1,1.25-.2.45.45,0,0,1,.4.49.47.47,0,0,1-.5.4,1.52,1.52,0,0,0-.78.12,1.65,1.65,0,0,0-.59.48c0,.06-.09.12-.13.19a1.9,1.9,0,0,1,.79,0A1.94,1.94,0,0,1,395.52,278.16Zm-.88-.13a1.06,1.06,0,1,0-2.1-.31,1.06,1.06,0,0,0,2.1.31Z" transform="translate(-50.79 -175.22)"/>
        <path class="cls-2" d="M413.92,280.39a.41.41,0,1,1,.12-.82l3.22.47a.41.41,0,0,1,.35.48.42.42,0,0,1-.47.35Zm2.47-1.77v0a.56.56,0,0,1-1.1-.17v0a.54.54,0,0,1,.62-.44A.55.55,0,0,1,416.39,278.62Zm-.49,3.32v0a.54.54,0,0,1-.63.45.55.55,0,0,1-.47-.61v0a.54.54,0,0,1,.63-.45A.55.55,0,0,1,415.9,281.94Z" transform="translate(-50.79 -175.22)"/>
        <path class="cls-6" d="M348.36,290.38l-.69,4.71a.47.47,0,0,1-.52.37.44.44,0,0,1-.37-.5l.58-3.93-.35.14a.38.38,0,0,1-.23,0,.46.46,0,0,1-.11-.86l1.07-.43s0,0,0,0l0,0h.26l.05,0h0l0,0,0,0,0,0,0,0,0,0,0,0v0a.09.09,0,0,1,0,.05s0,0,0,0v0a.13.13,0,0,0,0,.06Z" transform="translate(-50.79 -175.22)"/>
        <path class="cls-6" d="M370.3,298.42a.43.43,0,0,1-.5.37l-2.83-.41h0a.42.42,0,0,1-.31-.19.45.45,0,0,1,.12-.62l2.67-1.79a1,1,0,0,0,.45-.71,1,1,0,0,0-.88-1.18,1,1,0,0,0-.73.16l-.28.19a.44.44,0,0,1-.62-.13.45.45,0,0,1,.13-.62l.28-.18a1.92,1.92,0,0,1,2.68.53,1.93,1.93,0,0,1-.53,2.69l-1.71,1.14,1.7.25A.43.43,0,0,1,370.3,298.42Z" transform="translate(-50.79 -175.22)"/>
        <path class="cls-6" d="M391.78,298.56a2,2,0,0,1-1.9,3.18,2,2,0,0,1-1.31-.79.45.45,0,1,1,.73-.54,1.06,1.06,0,0,0,.71.42,1.08,1.08,0,0,0,.81-.2,1.06,1.06,0,0,0,.43-.72,1,1,0,0,0-.2-.8,1.1,1.1,0,0,0-.71-.43.43.43,0,0,1-.31-.19h0a.47.47,0,0,1,.08-.64l.94-.71-1.29-.19a.45.45,0,0,1-.38-.52.44.44,0,0,1,.51-.38l2.35.34a.47.47,0,0,1,.21.82l-1.16.89A2,2,0,0,1,391.78,298.56Z" transform="translate(-50.79 -175.22)"/>
        <path class="cls-2" d="M413.71,301.9l-1.14,1.17.75,1.45a.42.42,0,0,1-.16.56.38.38,0,0,1-.27.05.47.47,0,0,1-.32-.22l-.64-1.21-1,1a.43.43,0,0,1-.35.13.38.38,0,0,1-.24-.13.4.4,0,0,1,0-.58l1.15-1.18-.76-1.45a.41.41,0,0,1,.17-.55.43.43,0,0,1,.57.17l.64,1.19.95-.95a.45.45,0,0,1,.62,0A.42.42,0,0,1,413.71,301.9Z" transform="translate(-50.79 -175.22)"/>
        <path class="cls-6" d="M344,316.29a.6.6,0,0,1,.51.68.62.62,0,0,1-.69.51.6.6,0,0,1,.18-1.19Z" transform="translate(-50.79 -175.22)"/>
        <path class="cls-6" d="M363.33,317.43a3.52,3.52,0,0,1,.82-1.82,1.84,1.84,0,0,1,1.62-.67,1.82,1.82,0,0,1,1.34,1.1,3.69,3.69,0,0,1-.56,3.82,1.7,1.7,0,0,1-3-.44A3.52,3.52,0,0,1,363.33,317.43Zm3.15.47a2.76,2.76,0,0,0-.17-1.48c-.19-.37-.43-.57-.67-.59a1,1,0,0,0-.83.37,2.59,2.59,0,0,0-.59,1.36,2.63,2.63,0,0,0,.17,1.47,1,1,0,0,0,.69.61,1,1,0,0,0,.81-.39A2.64,2.64,0,0,0,366.48,317.9Z" transform="translate(-50.79 -175.22)"/>
        <path class="cls-2" d="M385.74,320.13a.48.48,0,0,1,.55-.39l2.44.36a.47.47,0,0,1,.4.53.46.46,0,0,1-.53.39l-2.45-.36A.48.48,0,0,1,385.74,320.13Zm-.21,1.47a.47.47,0,0,1,.54-.4l2.45.36a.47.47,0,0,1,.39.54.47.47,0,0,1-.53.41l-2.45-.36A.48.48,0,0,1,385.53,321.6Z" transform="translate(-50.79 -175.22)"/>
        <path class="cls-2" d="M408.6,324.53l-1.13-.17a.43.43,0,0,1-.37-.5.45.45,0,0,1,.5-.38l1.13.17.16-1.11a.46.46,0,0,1,.53-.38.45.45,0,0,1,.38.52l-.16,1.11,1.13.16a.46.46,0,0,1,.38.51.46.46,0,0,1-.51.37l-1.13-.17-.16,1.11a.46.46,0,0,1-.52.39.45.45,0,0,1-.39-.52Z" transform="translate(-50.79 -175.22)"/>
        <path class="cls-2" d="M381.69,227.74a.35.35,0,0,1-.39.3l-1-.15c-.59,1.1-2.09,4-2.46,4.8a.63.63,0,0,1-.21.24.37.37,0,0,1-.25.06.41.41,0,0,1-.29-.19s-.92-1.2-1.19-1.61c-.4-.6-.16-.82-.08-.85a.36.36,0,0,1,.2,0,.54.54,0,0,1,.28.16l.29.41.25.33.23.31.26.35c.37-.77,2-3.78,2.38-4.53h0a.52.52,0,0,1,.11-.1.36.36,0,0,1,.27-.08l1.31.19A.35.35,0,0,1,381.69,227.74Z" transform="translate(-50.79 -175.22)"/>
      </g>
      <rect class="cls-6" x="351.35" y="190.64" width="85.18" height="20.38" transform="translate(-17.35 -230.44) rotate(8.37)"/>
    </g>
  </g>
  <g id="Character">
    <g>
      <g>
        <path class="cls-1" d="M266.92,257.7c1.19,21.53,2.05,43.69-.07,65.16-1.65,16.73-8.68,30.5-26.07,34.61-16.13,3.8-39.1,3.51-52.74-7.18-6.36-5-8.57-12-8.14-19.9.58-11,9.27-71,11.86-89.69,1.56-11.4,3.09-22.95,6.67-34,7.5-23.11,19-23.54,20.62-24,1.37-.88,10-4.17,22.53-.19a24.36,24.36,0,0,1,14.84,13.21C265.4,214.3,265.79,237.55,266.92,257.7Z" transform="translate(-50.79 -175.22)"/>
        <path class="cls-1" d="M215.38,186.55c-13.75,6.43-17,21.44-20.36,34.9-4.63,18.74-9,37.56-12.35,56.56-1.64,9.14-3.07,18.31-4.23,27.52-1.1,8.82-2.82,18.22-2.23,27.13,1,14.73,14.45,21.42,27.51,23.52a.5.5,0,0,0,.19-1c-7.44-1.48-15-3.54-20.56-9.06-7.09-7.07-6.27-16.3-5.43-25.49,1.43-15.65,3.74-31.2,6.62-46.64s6.3-30.82,10-46.11c3.49-14.56,6-33.72,21-41.12C215.61,186.71,215.53,186.48,215.38,186.55Z" transform="translate(-50.79 -175.22)"/>
        <path class="cls-1" d="M262.75,211.47c-2.61-11.25-8.46-22.22-20.31-25.49,0,0,0,0,0,0,15.31,4.88,19,21.62,21.08,35.6q3.23,22.06,4.79,44.32c1,14.26,1.75,28.64,1.48,42.94-.3,15.44-3.1,29.9-12.22,42.62a.26.26,0,0,0,.39.33c9-10.29,12-24.47,12.67-37.74.95-17.48-.18-35.26-1.55-52.69C267.78,244.84,266.51,227.68,262.75,211.47Z" transform="translate(-50.79 -175.22)"/>
      </g>
      <g>
        <g>
          <g>
            <path class="cls-7" d="M87.22,466.78c.91-3.64,57.84-91.18,62-93.08.48-.25,30,17.74,30,17.74,1.27,1.46,53.87-13.64,53.87-13.64l5.13,64.39-97.43,4.88s-12.59,8.67-24.16,15.82c0,0,0,0,0,0-7.12,4.43-13.44,8.18-15.27,8.8C96.56,473.3,86.27,470.39,87.22,466.78Z" transform="translate(-50.79 -175.22)"/>
            <path class="cls-6" d="M101.34,471.7c1.84-.62,8.15-4.37,15.26-8.8,0,0,0,0,.05,0,11.56-7.15,24.15-15.82,24.15-15.82L162.49,446l30-57.12c-7.35,1.85-12.84,3-13.25,2.56,0,0-29.51-18-30-17.73-4.18,1.9-61.1,89.44-62,93.07S96.56,473.3,101.34,471.7Z" transform="translate(-50.79 -175.22)"/>
            <g>
              <path class="cls-8" d="M86.65,466.93c1-3.73,58.18-91.24,62.47-93.2,1.63-.75,16,6.76,30.12,17.71l-37,56.37s-36.19,22.62-41.13,24.26S85.67,470.65,86.65,466.93Z" transform="translate(-50.79 -175.22)"/>
              <g>
                <g>
                  <path class="cls-1" d="M91,468c10-14.43,48.72-73.59,57.46-88.62.07-.12,0-.17-.09-.06-10.18,14.1-48.47,73.57-57.61,88.52C90.54,468.12,90.76,468.27,91,468Z" transform="translate(-50.79 -175.22)"/>
                  <path class="cls-1" d="M108,468.5a14.12,14.12,0,0,0,2.15-11.12c-.8-3.12-2.58-6.51-5.69-8.4-.09-.05-.2.11-.11.18,5.19,4.59,6.82,13.11,3.46,19.22A.11.11,0,0,0,108,468.5Z" transform="translate(-50.79 -175.22)"/>
                  <path class="cls-1" d="M137.81,451.45c3.92-5.81,6.29-14,3.88-20.76-.1-.27-.47-.13-.49.1A97.66,97.66,0,0,1,137,451.08.44.44,0,0,0,137.81,451.45Z" transform="translate(-50.79 -175.22)"/>
                  <path class="cls-1" d="M133.08,454.83c3.92-5.82,6.29-14,3.88-20.77-.1-.26-.47-.12-.49.11a97.66,97.66,0,0,1-4.18,20.29A.44.44,0,0,0,133.08,454.83Z" transform="translate(-50.79 -175.22)"/>
                  <path class="cls-1" d="M128.35,458.21c3.92-5.82,6.29-14,3.88-20.77-.1-.26-.47-.12-.49.11a97.8,97.8,0,0,1-4.18,20.29A.44.44,0,0,0,128.35,458.21Z" transform="translate(-50.79 -175.22)"/>
                  <path class="cls-1" d="M123.62,461.59c3.92-5.82,6.29-14,3.88-20.77-.1-.26-.47-.13-.49.11a97.93,97.93,0,0,1-4.18,20.29A.44.44,0,0,0,123.62,461.59Z" transform="translate(-50.79 -175.22)"/>
                  <path class="cls-1" d="M159.92,392.19c4.29-6.6-6-13.28-10.26-6.66S155.62,398.8,159.92,392.19Z" transform="translate(-50.79 -175.22)"/>
                </g>
                <path class="cls-1" d="M149.33,468c4.4-1.36,4.44-6.68,3.08-10.18a36.69,36.69,0,0,0-11.53-15.15.18.18,0,0,0-.28.07.86.86,0,0,0-1.17.75c.16,6.07-.42,12.58,1.6,18.42C142.2,465.36,145.16,469.33,149.33,468Zm-7.77-15.36c-.15-3-.16-6-.42-8.93a110.81,110.81,0,0,1,6.54,9,40.05,40.05,0,0,1,2.56,4.74c1.1,2.54,2.24,11.51-4.53,7.92C142,463.42,141.74,456.24,141.56,452.68Z" transform="translate(-50.79 -175.22)"/>
                <path class="cls-1" d="M148.24,426.7c-4.12,4.59-6.11,10.82-8.62,16.35a.85.85,0,0,0,.78,1.14c0,.12.1.22.24.18a36.89,36.89,0,0,0,16.51-9.48c2.61-2.7,4.64-7.62,1.11-10.59C154.92,421.5,150.65,424,148.24,426.7Zm5.66-1.36c7.64-.69,3.1,7.14,1.1,9.05a40,40,0,0,1-4.2,3.37c-3,2.18-6.31,3.89-9.52,5.75,1.4-2.64,2.56-5.38,3.85-8.07C146.68,432.23,149.69,425.71,153.9,425.34Z" transform="translate(-50.79 -175.22)"/>
              </g>
            </g>
          </g>
          <g>
            <path class="cls-1" d="M216.76,364.21s81.7-38.06,118.25-37.86c43.49.24,77.62,51.65,24.54,89.21-46.92,33.2-195.49,31.75-195.49,31.75l34.32-62.57s40.93-16.17,94.66-18.2l-74.89,15.71Z" transform="translate(-50.79 -175.22)"/>
            <path class="cls-2" d="M218.35,376.63c6.42-1.68,13-2.82,19.47-4s13.16-2.32,19.76-3.35A395.91,395.91,0,0,1,297.34,365c1.25-.07,2.5-.11,3.75-.15a6.8,6.8,0,0,1,.8-.26c.63-.2,1.25-.41,1.89-.58,1.18-.31,2.38-.57,3.57-.85,2.49-.56,5-1,7.46-1.65.15,0,.23.18.08.23-2.48.74-4.9,1.64-7.38,2.37l-2.15.62c4.9-.1,9.79-.07,14.69,0,.15,0,.17.24,0,.24-6.65.08-13.33.51-19.95,1.1s-13.14,1.19-19.69,2c-13.25,1.71-26.45,3.85-39.6,6.19-7.38,1.31-14.77,2.76-22.21,3.61C217.9,378,217.63,376.81,218.35,376.63Z" transform="translate(-50.79 -175.22)"/>
            <path class="cls-2" d="M179.15,444.38c2.1-4,3.84-8.18,5.74-12.26s3.8-8.19,5.72-12.28c3.81-8.15,17.61-35.66,19-37.62.09-.12.3,0,.26.14-.59,2.09-9.14,20.26-11.11,24.32-4,8.11-8.15,16.09-12.27,24.11-1.17,2.3-2.4,4.56-3.6,6.84s-2.48,4.53-3.56,6.86A.12.12,0,1,1,179.15,444.38Z" transform="translate(-50.79 -175.22)"/>
          </g>
        </g>
        <g>
          <g>
            <path class="cls-7" d="M372.76,464.75c-1.09-3.58-62.12-88.31-66.39-90-.49-.23-29.12,19.15-29.12,19.15-1.2,1.52-54.46-11.05-54.46-11.05l-2.06,64.56,97.56.23s13,8.05,24.89,14.64c0,0,0,0,0,0,7.32,4.08,13.8,7.53,15.66,8.06C363.73,471.71,373.88,468.32,372.76,464.75Z" transform="translate(-50.79 -175.22)"/>
            <path class="cls-6" d="M358.89,470.34c-1.87-.52-8.35-4-15.67-8.06,0,0,0,0,0,0-11.89-6.59-24.89-14.66-24.89-14.66l-21.71,0L263.9,392c7.43,1.5,13,2.42,13.35,1.93,0,0,28.63-19.37,29.12-19.14,4.26,1.7,65.29,86.42,66.39,90S363.73,471.72,358.89,470.34Z" transform="translate(-50.79 -175.22)"/>
            <g>
              <path class="cls-8" d="M373.33,464.88c-1.15-3.68-62.47-88.36-66.85-90.12-1.65-.67-15.63,7.51-29.23,19.13l39.6,54.55s37.23,20.86,42.23,22.27S374.49,468.55,373.33,464.88Z" transform="translate(-50.79 -175.22)"/>
              <g>
                <g>
                  <path class="cls-1" d="M369.07,466.11c-10.63-13.94-52.18-71.18-61.62-85.77-.08-.12,0-.18.08-.07,10.84,13.59,51.92,71.17,61.77,85.68C369.51,466.25,369.29,466.41,369.07,466.11Z" transform="translate(-50.79 -175.22)"/>
                  <path class="cls-1" d="M352.09,467.46a14.1,14.1,0,0,1-2.68-11c.65-3.16,2.27-6.63,5.28-8.66.09-.06.21.1.13.17-5,4.84-6.19,13.42-2.55,19.37A.11.11,0,1,1,352.09,467.46Z" transform="translate(-50.79 -175.22)"/>
                  <path class="cls-1" d="M321.49,451.86c-4.19-5.62-6.95-13.66-4.86-20.56.08-.27.46-.15.49.08a96.69,96.69,0,0,0,5.15,20.07A.45.45,0,0,1,321.49,451.86Z" transform="translate(-50.79 -175.22)"/>
                  <path class="cls-1" d="M326.38,455c-4.19-5.63-7-13.67-4.87-20.56.09-.27.46-.15.5.08a96.67,96.67,0,0,0,5.14,20.07A.44.44,0,0,1,326.38,455Z" transform="translate(-50.79 -175.22)"/>
                  <path class="cls-1" d="M331.27,458.16c-4.2-5.63-7-13.67-4.87-20.56.08-.27.46-.15.49.08A97.49,97.49,0,0,0,332,457.75.44.44,0,0,1,331.27,458.16Z" transform="translate(-50.79 -175.22)"/>
                  <path class="cls-1" d="M336.15,461.31c-4.19-5.63-6.95-13.67-4.86-20.56.08-.27.46-.15.49.08a97,97,0,0,0,5.14,20.07A.44.44,0,0,1,336.15,461.31Z" transform="translate(-50.79 -175.22)"/>
                  <path class="cls-1" d="M296.58,393.72c-4.6-6.39,5.32-13.55,9.93-7.15S301.19,400.12,296.58,393.72Z" transform="translate(-50.79 -175.22)"/>
                </g>
                <path class="cls-1" d="M308,459.85c5-3.66,8.2-9.35,11.78-14.26a.85.85,0,0,0-.53-1.27.19.19,0,0,0-.2-.23A36.82,36.82,0,0,0,301,450c-3.11,2.11-6.1,6.51-3.25,10.14C300.44,463.57,305.13,462,308,459.85Zm-5.81.17c-7.62-.89-1.58-7.62.78-9.09a40.68,40.68,0,0,1,4.79-2.44c3.41-1.52,7-2.52,10.49-3.69-1.9,2.31-3.6,4.75-5.42,7.12C310.7,454.74,306.41,460.52,302.22,460Z" transform="translate(-50.79 -175.22)"/>
                <path class="cls-1" d="M299.77,425.72c-3.39,3.13-1.13,7.94,1.62,10.52a36.87,36.87,0,0,0,16.94,8.68.18.18,0,0,0,.22-.19.86.86,0,0,0,.73-1.18c-2.76-5.4-5-11.53-9.39-15.92C307.35,425.06,303,422.75,299.77,425.72Zm13.64,10.49c1.43,2.63,2.71,5.31,4.24,7.88a108.71,108.71,0,0,1-9.79-5.29,39.52,39.52,0,0,1-4.35-3.16c-2.09-1.82-7-9.42.66-9.1C308.39,426.71,311.71,433.08,313.41,436.21Z" transform="translate(-50.79 -175.22)"/>
              </g>
            </g>
          </g>
          <g>
            <path class="cls-1" d="M220.31,363S137.68,338.09,93.6,343.35C50.41,348.5,32.69,402.66,74.8,432c46,32.05,219.11,20.83,219.11,20.83l-37-66.18S198,372.78,144.22,373.31l75.56,12.13Z" transform="translate(-50.79 -175.22)"/>
            <path class="cls-2" d="M259.41,390.92a1.4,1.4,0,0,1-.08-.34l-.06-.27c0-.22-.1-.43-.15-.64a12.12,12.12,0,0,0-.42-1.29c-.15-.42-.33-.84-.51-1.25a9.71,9.71,0,0,0-.69-1.17s-.07,0-.1-.08l-.07-.05-.1,0-.09,0c-6.49-1.37-50.61-8.75-57.18-9.65s-13.26-1.69-19.9-2.41a397.37,397.37,0,0,0-39.92-2.38c-1.25,0-2.49,0-3.74,0a7.62,7.62,0,0,0-.82-.22c-.63-.17-1.27-.35-1.91-.49-1.2-.26-2.4-.46-3.61-.67-2.51-.45-5-.78-7.53-1.3-.15,0-.22.19-.07.23,2.51.62,5,1.41,7.49,2,.72.17,1.44.35,2.17.51-4.89.14-9.78.4-14.67.73-.15,0-.16.25,0,.24,6.64-.23,13.33-.12,20,.15s13.19.57,19.77,1.1c13.31,1.08,26.61,2.59,39.85,4.29,7.43,1,52.41,8.61,59.89,9.1H257a5.38,5.38,0,0,0,.2.51c.19.42.39.82.6,1.23s.41.77.64,1.14l.36.55.18.27a1.27,1.27,0,0,1,.18.29C259.23,391.18,259.49,391.07,259.41,390.92Z" transform="translate(-50.79 -175.22)"/>
            <path class="cls-2" d="M280.12,448.54c-2.3-3.88-4.24-8-6.33-12s-4.19-8-6.29-12c-4.2-8-19.3-34.78-20.81-36.67-.1-.12-.3,0-.26.15.7,2.07,10.1,19.81,12.27,23.76,4.33,7.92,8.9,15.68,13.4,23.51,1.28,2.23,2.62,4.43,3.92,6.66s2.69,4.4,3.89,6.68C280,448.8,280.2,448.67,280.12,448.54Z" transform="translate(-50.79 -175.22)"/>
          </g>
        </g>
      </g>
      <g>
        <g>
          <g>
            <path class="cls-9" d="M209.7,271.46c11.7,30.48,32,66.11,39.28,71.33,9.18,6.61,58.15,10.89,60.86,10.8,6.7-.27,10.54-45.27,3.36-45.29-10.93,0-41,1.29-43.65-.78S247.41,287,227.19,265.94C213.23,251.41,202.45,252.56,209.7,271.46Z" transform="translate(-50.79 -175.22)"/>
            <g>
              <path class="cls-9" d="M307.27,353.67c.8.28,12.17,4.11,19,5.08,5.1.73,19.83,2.42,21.18-3.11.93-3.77-7.61-5.79-13.62-7.35-3.17-.82-7.3-3.43-6.69-5.48,1.07-3.58,9.24-1.29,14.72.93,10.6,4.3,25.09,12.7,30.36,6.88,2-2.2-1.11-5.24-5.43-8.05,6.79,3,13.89,5.29,16.19,2.93,1.33-1.34,1.18-2.9.1-4.56,2,.36,3.7,0,4.7-1.43,1.73-2.4.3-5.39-2.37-8.29a2.42,2.42,0,0,0,1.67-1.46c3.36-7.15-20.76-22.88-28.44-23.59-22.57-2.1-45.45,2.13-45.45,2.13C305.59,316.37,307.25,353.66,307.27,353.67Z" transform="translate(-50.79 -175.22)"/>
              <g>
                <path class="cls-1" d="M336.54,329a37.33,37.33,0,0,1,15.36,3.54c6.06,2.87,10.34,6.63,15.59,10.28.14.09,0,.31-.14.22-2.51-1.74-12.77-8.14-15.39-9.55a35.61,35.61,0,0,0-15.43-4.4C336.47,329.11,336.48,329,336.54,329Z" transform="translate(-50.79 -175.22)"/>
                <path class="cls-1" d="M339.3,319.17c6,.76,12.07,1.51,17.78,3.47,6.25,2.15,11.5,6.35,16.65,10.37q4.63,3.63,9.1,7.46c.13.11,0,.32-.14.22q-7.86-6.26-16.07-12a47.41,47.41,0,0,0-16.84-7.55c-3.46-.79-7-1.3-10.49-1.82A.06.06,0,0,1,339.3,319.17Z" transform="translate(-50.79 -175.22)"/>
                <path class="cls-1" d="M344.28,310.2c5.74.36,10.74.65,16.11,2.93,7.09,3,14.35,8.81,16.9,10.86,2.82,2.26,5.55,4.62,8.25,7,.12.09-.05.29-.17.19A187.3,187.3,0,0,0,366,316.76a37.3,37.3,0,0,0-10.39-4.84,67.28,67.28,0,0,0-11.3-1.68S344.26,310.2,344.28,310.2Z" transform="translate(-50.79 -175.22)"/>
              </g>
            </g>
          </g>
          <g>
            <path class="cls-10" d="M313,304.94l-9.07,54.44s-46.34-6.41-55.72-14-30.82-50.82-38.35-72.16,3.65-22.37,15.82-10,42.34,42.37,43.87,42.9S313,304.94,313,304.94Z" transform="translate(-50.79 -175.22)"/>
            <path class="cls-1" d="M296.35,336.83c1.12-6.42,2.29-12.84,3.18-19.31.5-3.68,1-7.35,1.49-11,0-.14-.22-.19-.25-.05-1.38,6.41-2.75,12.83-3.84,19.3s-2.22,12.86-3.22,19.31c-.57,3.67-1,7.34-1.37,11,0,.07.11.1.13,0C294.07,349.75,295.22,343.3,296.35,336.83Z" transform="translate(-50.79 -175.22)"/>
            <path class="cls-11" d="M304.81,354l-.91,5.42s-46.34-6.41-55.72-14-30.83-50.82-38.36-72.17c-5.5-15.6-1-20.36,6.57-16.93C238.62,280.36,280.57,326.1,304.81,354Z" transform="translate(-50.79 -175.22)"/>
          </g>
        </g>
        <g>
          <path class="cls-10" d="M148.39,362.56l107.47,1.8L250.51,330s8.73-7.56,3.64-21.94c-3.33-9.4-18.4-31.44-26-40.6-18.58-22.34-31.45-9.87-36.6-4.12C171.85,285.26,148.39,362.56,148.39,362.56Z" transform="translate(-50.79 -175.22)"/>
          <g>
            <path class="cls-1" d="M218,329.69a95.65,95.65,0,0,1,14.06-.24c2.33.17,4.63.44,6.94.76,1.16.16,2.31.29,3.46.4a15.29,15.29,0,0,0,3.64,0,.08.08,0,0,1,0,.16,24.33,24.33,0,0,1-3.4.55,23.27,23.27,0,0,1-3.34,0c-2.36-.14-4.72-.4-7.08-.57-4.76-.34-9.52-.68-14.3-.68C217.83,330.08,217.82,329.71,218,329.69Z" transform="translate(-50.79 -175.22)"/>
            <path class="cls-1" d="M207.41,335.83a101.85,101.85,0,0,1,11.31-2.62c1.91-.33,3.82-.54,5.76-.7l2.76-.18c1-.06,2,0,3.06,0,.11,0,.14.15,0,.16-1,.09-1.9.35-2.85.5l-2.86.44c-1.91.3-3.81.62-5.72.9-3.83.56-7.64,1.16-11.44,1.85C207.25,336.18,207.22,335.88,207.41,335.83Z" transform="translate(-50.79 -175.22)"/>
          </g>
        </g>
        <g>
          <g>
            <path class="cls-9" d="M204.54,258.37c-.07,2,5.72,16.9,14.58,18.84,2.88.62,7-15,7-15l.57-1.08L234.62,246,219,228.79l-2.3-2.34s-1.9,4.29-4.21,9.65c-.11.24-.22.49-.33.76s-.27.58-.39.87c-.35.79-.71,1.61-1,2.43-.26.62-.52,1.22-.77,1.89s-.52,1.3-.79,2A110,110,0,0,0,204.54,258.37Z" transform="translate(-50.79 -175.22)"/>
            <path class="cls-1" d="M212.45,236.1a34.27,34.27,0,0,0,14.24,25.06L234.62,246,219,228.79l-2.3-2.34S214.76,230.74,212.45,236.1Z" transform="translate(-50.79 -175.22)"/>
          </g>
          <g>
            <path class="cls-9" d="M264,225.87c-3.37,29.81-21.61,31.16-28,30.43-5.84-.67-25.62-3.67-25.35-33.67s15.19-37.86,28.62-37S267.33,196.06,264,225.87Z" transform="translate(-50.79 -175.22)"/>
            <g>
              <path class="cls-1" d="M260.34,220.25a19.64,19.64,0,0,1-1.95-.69,3.34,3.34,0,0,1-1.85-1.09,1.06,1.06,0,0,1,.17-1.29,2.66,2.66,0,0,1,2.67-.27,3.87,3.87,0,0,1,2.23,1.69A1.14,1.14,0,0,1,260.34,220.25Z" transform="translate(-50.79 -175.22)"/>
              <path class="cls-1" d="M240,216.52a17.85,17.85,0,0,0,2.07-.15,3.37,3.37,0,0,0,2.08-.55,1.07,1.07,0,0,0,.17-1.3,2.65,2.65,0,0,0-2.5-1,3.89,3.89,0,0,0-2.6,1A1.13,1.13,0,0,0,240,216.52Z" transform="translate(-50.79 -175.22)"/>
              <g>
                <g>
                  <path class="cls-1" d="M243.69,225.36c0-.08-.17.08-.18.16-.16,2-.69,4.35-2.6,4.82-.06,0-.07.11,0,.11C243.19,230.39,243.86,227.32,243.69,225.36Z" transform="translate(-50.79 -175.22)"/>
                  <path class="cls-1" d="M242.11,223c-3.24-.61-4.22,5.91-1.22,6.48S244.83,223.55,242.11,223Z" transform="translate(-50.79 -175.22)"/>
                </g>
                <path class="cls-1" d="M240.78,223.19c-.63.28-1.28.85-2,.81s-1.3-.81-1.72-1.55c0-.07-.11,0-.12.06-.21,1.25.07,2.6,1.39,3s2.24-.62,2.74-1.82C241.18,223.45,241,223.08,240.78,223.19Z" transform="translate(-50.79 -175.22)"/>
              </g>
              <g>
                <g>
                  <path class="cls-1" d="M255,226.64c0-.08.14.12.13.2-.39,2-.49,4.37,1.23,5.33.05,0,0,.13,0,.11C254.12,231.61,254.29,228.48,255,226.64Z" transform="translate(-50.79 -175.22)"/>
                  <path class="cls-1" d="M257.12,224.82c3.28.27,2.5,6.81-.54,6.56S254.36,224.59,257.12,224.82Z" transform="translate(-50.79 -175.22)"/>
                </g>
                <path class="cls-1" d="M258.43,225.41c.48.41.91,1.1,1.53,1.22s1.32-.52,1.86-1.14c.06-.07.1,0,.09.08-.11,1.26-.68,2.51-1.91,2.61s-1.8-1.08-1.95-2.37C258,225.58,258.24,225.25,258.43,225.41Z" transform="translate(-50.79 -175.22)"/>
              </g>
              <path class="cls-1" d="M241,241.91c.38.56.73,1.3,1.45,1.51a5.51,5.51,0,0,0,2.25-.08.07.07,0,0,1,.07.12A2.75,2.75,0,0,1,242,244a2.17,2.17,0,0,1-1.22-2.08C240.73,241.84,240.89,241.82,241,241.91Z" transform="translate(-50.79 -175.22)"/>
              <path class="cls-1" d="M250.42,235.77s0,3.08-.2,4.51c0,.13-.37.15-.86.11,0,0,0,0-.05,0a6.83,6.83,0,0,1-6.23-3.45c-.08-.15.12-.27.24-.16a10.29,10.29,0,0,0,5.94,2.63c.15-.38-.17-5.28.06-5.26a12.79,12.79,0,0,1,3.13,1.18c.19-6.41-.64-12.81-.35-19.19a.19.19,0,0,1,.38,0c1.35,6.64,1.29,14,1.26,20.66C253.75,237.57,251,236.09,250.42,235.77Z" transform="translate(-50.79 -175.22)"/>
              <g>
                <path class="cls-1" d="M249.25,239.67a8.26,8.26,0,0,1-3.5,2.36,3.7,3.7,0,0,1-2.28,0c-1.61-.54-1.55-2.05-1.17-3.32a9.2,9.2,0,0,1,.87-1.92A10.78,10.78,0,0,0,249.25,239.67Z" transform="translate(-50.79 -175.22)"/>
                <path class="cls-12" d="M245.75,242a3.7,3.7,0,0,1-2.28,0c-1.61-.54-1.55-2.05-1.17-3.32C244.05,239,245.72,240.31,245.75,242Z" transform="translate(-50.79 -175.22)"/>
              </g>
            </g>
            <g>
              <path class="cls-1" d="M210.67,226.27a12.43,12.43,0,0,0,8.6-8.78,32.54,32.54,0,0,0,14.86-8.21c-.31.57-2.52,4.75-3.71,6.84,19.48-.23,27.84-13.65,27.84-13.65,5.05,7.17,5.59,11.29,6.13,13.39,0,0,2.16-11.55-2.44-20.33-5.62-10.76-15.87-10.69-15.87-10.69a27.09,27.09,0,0,0-27.44,3.46C204.06,199.51,210.67,226.27,210.67,226.27Z" transform="translate(-50.79 -175.22)"/>
              <path class="cls-1" d="M245.3,215.5A35.57,35.57,0,0,1,235,217.36a0,0,0,1,1,0,0,30,30,0,0,0,15.3-6,28.12,28.12,0,0,0,5.07-5,19.7,19.7,0,0,0,3.76-6.75.15.15,0,0,1,.29.08,23.18,23.18,0,0,1-2.8,7.17,21,21,0,0,1-5.28,5.51,24.07,24.07,0,0,1-6,3.11Z" transform="translate(-50.79 -175.22)"/>
            </g>
            <g>
              <path class="cls-9" d="M208.81,232.75a6.92,6.92,0,0,0,1.29.63,4.61,4.61,0,0,0,1.38.31,4.23,4.23,0,0,0,1.81-.2,5.11,5.11,0,0,0,1.28-.64,5.92,5.92,0,0,0,1.45-1.42l-.05-8.19s-4.57-10.47-9.19-9S204.28,230,208.81,232.75Z" transform="translate(-50.79 -175.22)"/>
              <path class="cls-1" d="M207.49,218.29c-.08,0-.11.08-.05.13,3.15,2.08,4.31,5.62,4.91,9.17-.76-1.47-2-2.45-4-1.58-.1.05,0,.21.06.2A3.13,3.13,0,0,1,211.6,228a14.69,14.69,0,0,1,1.06,3c.1.34.69.29.64-.09,0,0,0-.06,0-.09C214.26,226.48,212.1,219.68,207.49,218.29Z" transform="translate(-50.79 -175.22)"/>
            </g>
          </g>
        </g>
        <g>
          <g>
            <path class="cls-9" d="M189.32,268.87c-12.59,20-38.76,91.66-24.31,101.06s79.18-19.35,96.48-32.06c5.15-3.78-23.12-35-29.93-34.51-5.67.37-31.51,18.74-32.64,17.27-1.28-1.66.62-16.12,2.73-42C204.08,248.73,194.88,260.05,189.32,268.87Z" transform="translate(-50.79 -175.22)"/>
            <g>
              <path class="cls-9" d="M249.73,288.56c12.49-6.64,16.71-6.43,24.27-17.63,5-7.36,11.79-7.34,10.77,1.82-1.65,15-16,27-22.11,29.67Z" transform="translate(-50.79 -175.22)"/>
              <g>
                <g>
                  <path class="cls-4" d="M309.34,267.11c39.48,7.09,29.05,65.58-10.5,58.49S269.78,260,309.34,267.11Z" transform="translate(-50.79 -175.22)"/>
                  <path class="cls-11" d="M309.34,267.11c39.48,7.09,29.05,65.58-10.5,58.49S269.78,260,309.34,267.11Z" transform="translate(-50.79 -175.22)"/>
                </g>
                <path class="cls-4" d="M305.63,266.45c37.63,6.75,27.2,65.25-10.5,58.48S267.93,259.68,305.63,266.45Z" transform="translate(-50.79 -175.22)"/>
                <path class="cls-11" d="M276.51,297.07c.21,10.42,6.27,20.52,19.52,22.89,31.28,5.61,39.94-42.94,8.71-48.54l-.61-.1c29.28,5.87,20.89,51.81-8.94,46.46C283,315.59,277.16,306.6,276.51,297.07Z" transform="translate(-50.79 -175.22)"/>
                <g class="cls-13">
                  <path d="M296.09,276.62a1,1,0,0,1,1.13.83l.25,1.64a13.5,13.5,0,0,1,7.71,1.76,1.17,1.17,0,0,1,.72.85,1.07,1.07,0,0,1-.91,1.19,1.05,1.05,0,0,1-.78-.18,11.83,11.83,0,0,0-6.54-1.73l1.73,11.45c6.41.37,9.38,2.31,10,6.32.65,4.33-2.52,7.95-7.61,8.88l.48,3.19a1,1,0,0,1-2,.3l-.49-3.23a15.54,15.54,0,0,1-9.8-2.58,1,1,0,0,1-.58-.79,1.08,1.08,0,0,1,.87-1.18,1.11,1.11,0,0,1,.78.18,13.37,13.37,0,0,0,8.53,2.52l-1.76-11.66c-6.34-.42-9.21-2.29-9.83-6.38s2.5-7.82,7.47-8.7l-.23-1.55A1,1,0,0,1,296.09,276.62Zm1.45,15.67-1.69-11.16c-4,.68-6.21,3.45-5.77,6.39C290.5,290.3,292.07,291.82,297.54,292.29Zm2.17,2.23,1.71,11.29c4.08-.7,6.38-3.48,5.91-6.59C306.9,296.4,305.21,294.9,299.71,294.52Z" transform="translate(-50.79 -175.22)"/>
                </g>
              </g>
              <path class="cls-9" d="M219.42,314s11.78-13.62,24.38-22c8.72-5.81,29.09-16.33,57.24-2.73,6.68,3.23,13.9,12.56,1.09,11.25-9.11-.93-14.6-4.27-20-3.84,0,0,7.78,13,4.29,19.52a137,137,0,0,1-10.35,16.5,29.75,29.75,0,0,1-3.26-1.66s-3.84,5.82-14.1,8.5Z" transform="translate(-50.79 -175.22)"/>
              <g>
                <path class="cls-9" d="M253,287.78c5.44.72,16.95,2.42,25.88,7.08,9.93,5.19,27.64,17.85,23.74,25.13-2.86,5.34-10.05,1.11-10.05,1.11s6.22,6.77,2.58,11c-3.32,3.88-8.68.27-8.68.27s3.06,4.76-.85,7.88c-4.71,3.76-10.37-6.83-18.42-7.15C265.4,333.06,253,287.78,253,287.78Z" transform="translate(-50.79 -175.22)"/>
                <g>
                  <path class="cls-1" d="M271.67,304.43c5,1.51,15.51,7.86,20.9,16.43.13.2.05.39-.1.24a109.79,109.79,0,0,0-20.85-16.57C271.57,304.5,271.61,304.42,271.67,304.43Z" transform="translate(-50.79 -175.22)"/>
                  <path class="cls-1" d="M266.73,314.6c4.18,1.75,14.71,8.77,19.88,17.65.12.2,0,.39-.12.23a117.24,117.24,0,0,0-19.82-17.79C266.62,314.66,266.67,314.58,266.73,314.6Z" transform="translate(-50.79 -175.22)"/>
                </g>
              </g>
              <path class="cls-1" d="M282.1,296.59c4.75-.31,8.31.78,12.85,2a60.55,60.55,0,0,0,6.8,1.48c2.09.31,5.19.79,6.51-1.37.73-1.2.17-2.69-.49-3.79a18.33,18.33,0,0,0-4.14-4c-.06-.05,0-.15.07-.11a26.17,26.17,0,0,1,4.16,3.4,6,6,0,0,1,1.62,3.21c.23,2.59-2.44,3.92-4.66,4a19.66,19.66,0,0,1-4-.4c-1.26-.21-2.5-.49-3.74-.8-2.54-.63-5-1.41-7.58-2.07a62,62,0,0,0-7.44-1.33C282,296.74,282,296.59,282.1,296.59Z" transform="translate(-50.79 -175.22)"/>
              <path class="cls-1" d="M296.6,308.39c-2-2-11.74-10-14.55-11.67a.06.06,0,1,1,.06-.11c4.5,1.94,12.95,8.39,15.19,10.63s4.88,5.09,6,8.06c1.64,4.48-1,6.42-2,7a6.18,6.18,0,0,1-4,.77,12.41,12.41,0,0,1-4.64-2c-.07-.05,0-.16.06-.12,2.2,1.2,5.41,2,7.73.78a4.31,4.31,0,0,0,2.22-2.5,5.63,5.63,0,0,0-.6-3.87A26,26,0,0,0,296.6,308.39Z" transform="translate(-50.79 -175.22)"/>
            </g>
          </g>
          <g>
            <path class="cls-10" d="M223.5,306.82l30.41,41.48s-81.19,35.27-91.33,21.9,11.75-77.45,23.38-97.12c13.47-22.79,16.94-16.58,16.45,1.43-.51,18.86-3.16,46.5-3.16,46.5Z" transform="translate(-50.79 -175.22)"/>
            <g>
              <path class="cls-1" d="M175.79,338.09a100.59,100.59,0,0,1,11-9.64,99,99,0,0,1,12.14-7.79c2.41-1.34,4.87-2.56,7.32-3.79.08,0,.13.08.06.11A126.18,126.18,0,0,0,194,324.7q-5.93,4.13-11.69,8.45c-2.17,1.64-4.27,3.38-6.39,5.08A.09.09,0,1,1,175.79,338.09Z" transform="translate(-50.79 -175.22)"/>
              <path class="cls-1" d="M223.24,306.73c-.4.2-22.13,12.29-22.83,12.79,0-.37,1.83-13.5,2.11-15.42,0-.19,0-.39.08-.58.26-.88.54-1.77.77-2.67.3-1.15.59-2.3.88-3.45a0,0,0,1,0-.05,0c-.34,1.14-.69,2.27-1,3.41-.16.52-.29,1-.43,1.59.16-1.36.31-2.71.46-4.07.23-2.17.39-4.34.55-6.51,0-.07-.1-.08-.11,0-.54,3.83-1.2,7.65-1.76,11.48s-2.79,18-2.76,18S223,307.33,223.4,307A.17.17,0,0,0,223.24,306.73Z" transform="translate(-50.79 -175.22)"/>
              <path class="cls-1" d="M230.5,336.19c-3.36-4.63-6.69-9.3-10.22-13.81-2-2.56-4-5.13-6-7.68-.08-.09-.26,0-.19.13,3.19,4.78,6.4,9.58,9.81,14.21s6.74,9.27,10.19,13.84c2,2.6,4,5.13,6.12,7.61a.06.06,0,0,0,.09-.07C237.24,345.53,233.88,340.86,230.5,336.19Z" transform="translate(-50.79 -175.22)"/>
              <path class="cls-1" d="M255.14,348.8c-1.12-1.24-2.58-3.06-3.75-4.25-.31-.32-.57-.19-.31.15.89,1.15,1.7,2.48,2.59,3.67-1.14.46-2.3.9-3.44,1.38l-4,1.66q-3.89,1.6-7.8,3.13-7.92,3.09-16,5.84a327.24,327.24,0,0,1-32.77,9.51c-3.1.71-6.22,1.37-9.35,1.92a92.76,92.76,0,0,1-9.31,1.32.08.08,0,0,0,0,.15,52.65,52.65,0,0,0,8.23-.49c2.85-.4,5.7-.88,8.52-1.45,5.63-1.15,11.19-2.59,16.71-4.18q16.4-4.73,32.37-10.83c3-1.13,5.95-2.3,8.91-3.5,1.49-.61,3-1.22,4.45-1.86S255.33,349,255.14,348.8Z" transform="translate(-50.79 -175.22)"/>
            </g>
          </g>
        </g>
      </g>
    </g>
  </g>
  <g id="Piggy_Bank" data-name="Piggy Bank">
    <g>
      <g>
        <path class="cls-4" d="M242.84,370.09c.33-1.69.53-3.2.7-4.82a48.26,48.26,0,0,0,.24-4.84,27.31,27.31,0,0,0-.44-5,12,12,0,0,0-2.25-5.31,7,7,0,0,0-2.74-2.07,7.14,7.14,0,0,0-1.65-.46,8.4,8.4,0,0,0-1.58-.07,9.58,9.58,0,0,0-5.36,2.16,15,15,0,0,0-3.43,3.92,13.61,13.61,0,0,0-1.88,4.86,5.87,5.87,0,0,0,.24,3.08,3.39,3.39,0,0,0,1.24,1.57,3.64,3.64,0,0,0,1.8.6,3.4,3.4,0,0,0,1.89-.46,3.91,3.91,0,0,0,1.22-1.21,7,7,0,0,0,1-2.58,14.19,14.19,0,0,0,0-4.91A11.93,11.93,0,0,0,230,350a5.43,5.43,0,0,0-1.89-1.76,4,4,0,0,0-2.58-.43,7.79,7.79,0,0,0-4.11,2.41,25.83,25.83,0,0,0-4.85,7.72,25.41,25.41,0,0,1,5.35-7.19,6.83,6.83,0,0,1,3.73-1.84,3.21,3.21,0,0,1,3,1.92,10,10,0,0,1,1.07,4,11.92,11.92,0,0,1-.34,4.11,4.71,4.71,0,0,1-.75,1.59,1.12,1.12,0,0,1-.42.34.48.48,0,0,1-.29,0,.59.59,0,0,1-.32-.15.81.81,0,0,1-.09-.23,3.09,3.09,0,0,1,.11-1.39,11.33,11.33,0,0,1,4.51-6.05,5.17,5.17,0,0,1,3-.94,3.61,3.61,0,0,1,.67.1,2.26,2.26,0,0,1,.52.21,2.14,2.14,0,0,1,.76.74,7.36,7.36,0,0,1,.9,3.11,22.48,22.48,0,0,1,0,4,40.87,40.87,0,0,1-.57,4.19c-.26,1.38-.59,2.85-1,4.11Z" transform="translate(-50.79 -175.22)"/>
        <path class="cls-11" d="M242.84,370.09c.33-1.69.53-3.2.7-4.82a48.26,48.26,0,0,0,.24-4.84,27.31,27.31,0,0,0-.44-5,12,12,0,0,0-2.25-5.31,7,7,0,0,0-2.74-2.07,7.14,7.14,0,0,0-1.65-.46,8.4,8.4,0,0,0-1.58-.07,9.58,9.58,0,0,0-5.36,2.16,15,15,0,0,0-3.43,3.92,13.61,13.61,0,0,0-1.88,4.86,5.87,5.87,0,0,0,.24,3.08,3.39,3.39,0,0,0,1.24,1.57,3.64,3.64,0,0,0,1.8.6,3.4,3.4,0,0,0,1.89-.46,3.91,3.91,0,0,0,1.22-1.21,7,7,0,0,0,1-2.58,14.19,14.19,0,0,0,0-4.91A11.93,11.93,0,0,0,230,350a5.43,5.43,0,0,0-1.89-1.76,4,4,0,0,0-2.58-.43,7.79,7.79,0,0,0-4.11,2.41,25.83,25.83,0,0,0-4.85,7.72,25.41,25.41,0,0,1,5.35-7.19,6.83,6.83,0,0,1,3.73-1.84,3.21,3.21,0,0,1,3,1.92,10,10,0,0,1,1.07,4,11.92,11.92,0,0,1-.34,4.11,4.71,4.71,0,0,1-.75,1.59,1.12,1.12,0,0,1-.42.34.48.48,0,0,1-.29,0,.59.59,0,0,1-.32-.15.81.81,0,0,1-.09-.23,3.09,3.09,0,0,1,.11-1.39,11.33,11.33,0,0,1,4.51-6.05,5.17,5.17,0,0,1,3-.94,3.61,3.61,0,0,1,.67.1,2.26,2.26,0,0,1,.52.21,2.14,2.14,0,0,1,.76.74,7.36,7.36,0,0,1,.9,3.11,22.48,22.48,0,0,1,0,4,40.87,40.87,0,0,1-.57,4.19c-.26,1.38-.59,2.85-1,4.11Z" transform="translate(-50.79 -175.22)"/>
      </g>
      <g>
        <g>
          <path class="cls-4" d="M249.32,442.68c4.38,6.2,3.49,25.11,6.14,27.76s29.86,2.38,31.7.82,1-8.25,3-9.35C291,461.48,249.32,442.68,249.32,442.68Z" transform="translate(-50.79 -175.22)"/>
          <path class="cls-11" d="M290.18,461.92a3,3,0,0,0-1.17,2,129.27,129.27,0,0,1-36.44-9.8c-.62-4.61-1.53-9-3.25-11.44C249.32,442.69,291,461.49,290.18,461.92Z" transform="translate(-50.79 -175.22)"/>
        </g>
        <g>
          <path class="cls-4" d="M379.72,443c-5.47,7.91-2.51,24.81-5.17,27.46s-29.86,2.38-31.69.82-1-8.61-2.08-9.95C340.21,460.6,379.72,443,379.72,443Z" transform="translate(-50.79 -175.22)"/>
          <path class="cls-11" d="M379.72,443c-2,2.95-2.91,7.16-3.33,11.4a124.08,124.08,0,0,1-35,9.68,6.07,6.07,0,0,0-.61-2.75C340.21,460.6,379.72,443,379.72,443Z" transform="translate(-50.79 -175.22)"/>
        </g>
      </g>
      <path class="cls-4" d="M313,329.61c-61.11,0-84.5,42.84-84.5,67.91,0,24.74,17.76,66.78,84.5,66.78s88.88-35.61,88.88-67.35S374.71,329.61,313,329.61Z" transform="translate(-50.79 -175.22)"/>
      <g>
        <path class="cls-4" d="M335.42,332.71s25-19.18,52.07-16.89c9.32.79-6.16,21-6.44,36.76Z" transform="translate(-50.79 -175.22)"/>
        <path class="cls-11" d="M370.61,344.86c-.16,1,8.47,4.69,9.36,4.13s1.79-13,8.83-26.24C389.84,320.8,372.28,334.18,370.61,344.86Z" transform="translate(-50.79 -175.22)"/>
      </g>
      <path class="cls-14" d="M376,394.09a4.45,4.45,0,0,0,3.59-3.13,6.61,6.61,0,0,1-2.91,5c-.12.08-.06.31.1.26,4.78-1.8,4.26-8.55,2.58-12.85-.09-.24-.18-.48-.29-.71-1.07-2.5-2.94-4.31-5.29-4C366.09,379.77,368.87,395.13,376,394.09Z" transform="translate(-50.79 -175.22)"/>
      <g>
        <path class="cls-4" d="M394.45,372.22c1.19,3.59,12.05.67,14.78,2.95,4.31,3.57,3.12,47.91-.82,51.48-2.21,2-14.52-.11-18,2.33S394.45,372.22,394.45,372.22Z" transform="translate(-50.79 -175.22)"/>
        <path class="cls-11" d="M409.81,399.83c0,10.8-.9,19.55-2,19.55s-2-8.75-2-19.55.9-19.55,2-19.55S409.81,389,409.81,399.83Z" transform="translate(-50.79 -175.22)"/>
      </g>
      <path class="cls-14" d="M283.45,344.66c.28-.07,28.19-7.41,54.18-1.67l2.59-7.65c-28.92-6.38-58.62,1.46-59.87,1.8l3.11,7.52-1.56-3.76Z" transform="translate(-50.79 -175.22)"/>
      <g>
        <path class="cls-6" d="M257.31,438c-24.65-28.32-9.56-61.22-8.88-62.63a4.05,4.05,0,0,0-7.28-3.57,68.51,68.51,0,0,0-5.81,23.62c-1.19,18,4.77,34.56,18.87,45.82C258.47,444.59,260.48,441.59,257.31,438Z" transform="translate(-50.79 -175.22)"/>
        <path class="cls-6" d="M246.59,362.75a4.41,4.41,0,1,0,4.4-4.41A4.41,4.41,0,0,0,246.59,362.75Z" transform="translate(-50.79 -175.22)"/>
      </g>
    </g>
  </g>
</svg>
