<svg xmlns="http://www.w3.org/2000/svg" xmlns:xlink="http://www.w3.org/1999/xlink" viewBox="0 0 688.29 490.52">
  <defs>
    <style>
      .cls-1, .cls-12, .cls-14, .cls-15, .cls-16, .cls-21, .cls-32, .cls-33, .cls-34, .cls-35, .cls-36, .cls-38, .cls-39 {
        fill: none;
      }

      .cls-2 {
        isolation: isolate;
      }

      .cls-3 {
        clip-path: url(#clip-path);
      }

      .cls-19, .cls-4 {
        fill: #fff;
      }

      .cls-5 {
        fill: #494745;
      }

      .cls-18, .cls-25, .cls-31, .cls-38, .cls-41, .cls-42, .cls-6, .cls-8 {
        mix-blend-mode: multiply;
      }

      .cls-18, .cls-25, .cls-29, .cls-31, .cls-38, .cls-42, .cls-43, .cls-6, .cls-8 {
        opacity: 0.5;
      }

      .cls-7, .cls-8 {
        fill: #d8726c;
      }

      .cls-9 {
        fill: #eec299;
      }

      .cls-10 {
        fill: #dca584;
      }

      .cls-11 {
        fill: #331810;
      }

      .cls-12 {
        stroke: #331810;
      }

      .cls-12, .cls-14, .cls-15, .cls-16, .cls-21, .cls-32, .cls-33, .cls-34, .cls-35, .cls-36, .cls-38, .cls-39 {
        stroke-linecap: round;
      }

      .cls-12, .cls-14, .cls-15, .cls-16, .cls-21, .cls-32, .cls-33, .cls-34, .cls-35, .cls-36, .cls-38 {
        stroke-linejoin: round;
      }

      .cls-13 {
        fill: #e49b83;
      }

      .cls-14 {
        stroke: #512e21;
      }

      .cls-15 {
        stroke: #7a4836;
      }

      .cls-16 {
        stroke: #b67a5d;
      }

      .cls-17, .cls-18 {
        fill: #512e21;
      }

      .cls-19 {
        opacity: 0.1;
      }

      .cls-20 {
        fill: #c28c75;
      }

      .cls-21, .cls-39 {
        stroke: #fff;
      }

      .cls-22 {
        fill: #bd8a6b;
      }

      .cls-23, .cls-25 {
        fill: #dbdbdb;
      }

      .cls-24 {
        fill: #d1a077;
      }

      .cls-26 {
        fill: #a3564a;
      }

      .cls-27 {
        fill: #c17665;
      }

      .cls-28 {
        fill: #664229;
      }

      .cls-29 {
        fill: #7a4836;
      }

      .cls-30, .cls-31 {
        fill: #b7b7b7;
      }

      .cls-32, .cls-33, .cls-34, .cls-35, .cls-36 {
        stroke: #efefef;
        stroke-width: 2px;
      }

      .cls-33 {
        stroke-dasharray: 6.06 6.06;
      }

      .cls-34 {
        stroke-dasharray: 5.85 5.85;
      }

      .cls-35 {
        stroke-dasharray: 6.09 6.09;
      }

      .cls-36 {
        stroke-dasharray: 6.35 6.35;
      }

      .cls-37 {
        fill: #e5bc7a;
      }

      .cls-38 {
        stroke: #e5bc7a;
        stroke-width: 3px;
      }

      .cls-39 {
        stroke-miterlimit: 10;
      }

      .cls-40, .cls-42 {
        fill: #efefef;
      }

      .cls-44 {
        fill: #934138;
      }
    </style>
    <clipPath id="clip-path" transform="translate(-29.87 -19.75)">
      <rect class="cls-1" width="750" height="500"/>
    </clipPath>
  </defs>
  <g class="cls-2">
    <g id="OBJECTS">
      <g class="cls-3">
        <g>
          <g>


          </g>
          <g>
            <path class="cls-5" d="M213.9,508q6-47.18,10.84-94.47c.95-9.27,1-19,1.7-28.33,1.51-20.16-6.83-39.17-15.65-57.35a147.08,147.08,0,0,1-14.66-1.66c-16.61-2.74-32.85-8.78-49.69-8.41-11,17.34-19.8,36.31-23.71,56.47s-2.85,40.9-1.77,61.4c1.25,23.79,1,48.15,4.93,71.65h45c5.67-16.68,4.68-34.59,6.16-52.14.46-5.56,1.21-11.1,1.75-16.65.86-8.79,1.22-17.62,1.58-26.44s.71-6.21,1.07-15c1.31,2.69-.37,72.86-5.07,110.26Z" transform="translate(-29.87 -19.75)"/>
            <g class="cls-6">
              <path class="cls-5" d="M216,392.8c-8,8.27-18.25,14-28.81,18.52a89.72,89.72,0,0,0-6-25q-2.15,10.55-5,20.94a103.43,103.43,0,0,1-5.55,16.1c-4.15,9-10.36,16.84-16.51,24.59a98.13,98.13,0,0,1-9.65,11,98.87,98.87,0,0,1-11.68,9L122.61,475a297.39,297.39,0,0,0,3.28,32.34h45c5.67-16.68,4.68-34.59,6.16-52.14.46-5.56,1.21-11.1,1.75-16.65.86-8.79,1.22-17.62,1.58-26.44s.71-6.21,1.07-15c1.31,2.69-.37,72.86-5.07,110.26l37.5.69q6-47.18,10.84-94.47c.95-9.27,1-19,1.7-28.33a67,67,0,0,0,.06-8.73A49.33,49.33,0,0,1,216,392.8Z" transform="translate(-29.87 -19.75)"/>
            </g>
            <g class="cls-6">
              <path class="cls-5" d="M159.77,362.77c4.33-5.67,6.15-12.82,7.66-19.79,1.59-7.32,2.92-14.69,4.06-22.09-1.48-.33-3-.64-4.45-.93q-1.59,11.87-4.12,23.58c-1.23,5.69-2.72,11.54-6.26,16.17a33.08,33.08,0,0,1-9.89,8.11,72.71,72.71,0,0,1-24.46,8.83c-.36,2.05-.68,4.11-.94,6.17a88.79,88.79,0,0,0,26.3-10.13C152.21,370.05,156.58,366.94,159.77,362.77Z" transform="translate(-29.87 -19.75)"/>
            </g>
            <g class="cls-6">
              <path class="cls-5" d="M204.94,359.19c2.46,6.48,7.78,11.55,13.77,15a57,57,0,0,0,7.85,3.74c-.07-2-.25-4-.5-6a46,46,0,0,1-7-3.25c-4.72-2.74-8.92-6.74-10.85-11.84-1.44-3.78-1.56-7.91-1.52-11.95a162.31,162.31,0,0,1,1.11-17.22c-1.31-.11-2.63-.24-3.94-.38q-.78,8.35-.88,16.74C203,349.16,203.12,354.4,204.94,359.19Z" transform="translate(-29.87 -19.75)"/>
            </g>
            <g class="cls-6">
              <path class="cls-5" d="M186.12,342a91.15,91.15,0,0,0,10.81-1.19A71.59,71.59,0,0,0,214.62,336q-1.87-4.07-3.83-8.09a147.08,147.08,0,0,1-14.66-1.66c-16.61-2.74-32.85-8.78-49.69-8.41q-3.57,5.64-6.81,11.53C154.22,336.89,169.86,342.66,186.12,342Z" transform="translate(-29.87 -19.75)"/>
            </g>
            <g class="cls-6">
              <path class="cls-1" d="M181.47,397.62h0s0,0,0,0Z" transform="translate(-29.87 -19.75)"/>
              <path class="cls-5" d="M184.79,395.05c1.43-2.09,2-4.78,2.59-7.39,3.88-18.65,5.92-42,5.9-61.47-3.8-.84-7.57-1.85-11.34-2.9q-.94,37.14-3.15,74.22a3.76,3.76,0,0,0,2.68.11v-.05s0,0,0,0A6.49,6.49,0,0,0,184.79,395.05Z" transform="translate(-29.87 -19.75)"/>
            </g>
            <circle class="cls-5" cx="158.13" cy="317.03" r="2.25"/>
          </g>
          <g>
            <g>
              <path class="cls-5" d="M452.17,508.76c-1.27-29.87-6.66-153.71-23.43-190.68-27.18-12.93-58.2-18.51-87.91-13.65q-3.19,77.28-6.4,154.57c-.3,7.32-.6,14.65-.56,22a231,231,0,0,0,1.87,27.81h46.39c1.32-43.22,4.64-86,8.64-129Q395.84,445,400.9,510.27Z" transform="translate(-29.87 -19.75)"/>
              <g class="cls-6">
                <path class="cls-5" d="M357.6,353.14c5.67-12.55,8.66-26.14,10.87-39.73q.86-5.25,1.55-10.51-3-.16-6.1-.2a139.77,139.77,0,0,1-7.9,38.42,100.49,100.49,0,0,1-18,31c-.11,2.77-.23,5.54-.34,8.31C346.32,373.11,352.93,363.47,357.6,353.14Z" transform="translate(-29.87 -19.75)"/>
              </g>
              <g class="cls-6">
                <path class="cls-5" d="M436.08,380.24a77,77,0,0,0,6.9,4.85c-.36-2.89-.72-5.75-1.1-8.57A92.22,92.22,0,0,1,411,310.88q-2.45-.83-4.93-1.58a117.55,117.55,0,0,0,5,32.89C415.64,356.89,424,370.65,436.08,380.24Z" transform="translate(-29.87 -19.75)"/>
              </g>
              <g class="cls-6">
                <path class="cls-5" d="M381.43,363.1c.5,3.43,1.1,6.94,2.79,10s4.71,5.55,8.18,5.71c1-24.45-4.08-49.21-2.15-73.39q-5.58-1.08-11.2-1.73A282.78,282.78,0,0,0,381.43,363.1Z" transform="translate(-29.87 -19.75)"/>
              </g>
              <g class="cls-6">
                <path class="cls-5" d="M395.12,342.46c13.31-1,26.8-2.59,39.34-7a106.17,106.17,0,0,0-5.72-17.4c-27.18-12.93-58.2-18.51-87.91-13.65q-.61,14.81-1.22,29.6c7.95,5,17.24,7.59,26.58,8.62C375.78,343.72,385.49,343.21,395.12,342.46Z" transform="translate(-29.87 -19.75)"/>
              </g>
              <path class="cls-5" d="M386.55,338.4a1.75,1.75,0,1,1-1.75-1.75A1.76,1.76,0,0,1,386.55,338.4Z" transform="translate(-29.87 -19.75)"/>
            </g>
            <g>
              <path class="cls-7" d="M413.68,165.24A29.86,29.86,0,0,1,439,175.51a59.38,59.38,0,0,1,6.2,9.65l32.52,58.74c1,1.77,2,3.67,1.86,5.69a4,4,0,0,0,.14,2.32c.44.74,1.49,1,1.76,1.84.5,1.46-2,2.56-1.75,4.1a4.51,4.51,0,0,0,.94,1.58,3.12,3.12,0,0,1-1.46,4.4,53.2,53.2,0,0,0-4.69,7.44,120.39,120.39,0,0,1-30.76,38.67c-3.14,2.59-6.56,5.09-10.55,5.87.32,0-.14-.48-.27-.77a133.18,133.18,0,0,0-6.88-12.79c-1.61-2.66-3.44-5.37-6.2-6.81a115.92,115.92,0,0,0,17.86-19.55,10,10,0,0,0,2.19-4.17c.19-1.1,0-2.33.71-3.22.42-.54,1.08-.84,1.53-1.36,1.83-2.07-.84-5.25-.4-8,.24-1.45,1.35-2.61,1.79-4,.57-1.85-.09-3.84-.85-5.63-4.14-9.76-11.18-18.05-15.53-27.71-1.26-2.8-2.29-5.7-3.73-8.41-2.3-4.34-5.62-8.11-7.81-12.51a50.94,50.94,0,0,1-3.35-9.64C410.05,182.92,408.82,172.36,413.68,165.24Z" transform="translate(-29.87 -19.75)"/>
              <g class="cls-6">
                <path class="cls-7" d="M461.12,248.28l1.44.2A14.24,14.24,0,0,0,461.12,248.28Z" transform="translate(-29.87 -19.75)"/>
                <path class="cls-7" d="M442.37,277.15c2.81-2.29,6.31-4.78,6.23-8.4,0-1.94-1.16-3.88-.53-5.71a5.56,5.56,0,0,1,3-2.8,20.76,20.76,0,0,1,13.4-1.8A14.84,14.84,0,0,0,447,254.56a15.77,15.77,0,0,1,14.08-6.28l-11.6-1.67a7.82,7.82,0,0,1-3.2-.94,7.6,7.6,0,0,1-2.3-2.92,152.86,152.86,0,0,1-8-17.12,38.62,38.62,0,0,1-3-11.47,78.73,78.73,0,0,1,.26-8.4c.39-9.71-1.95-19.32-4.68-28.66a26.69,26.69,0,0,0-3.67-8.51,17.29,17.29,0,0,0-2.77-2.9,28.67,28.67,0,0,0-8.47-.45c-4.86,7.12-3.63,17.68-1.42,26a50.94,50.94,0,0,0,3.35,9.64c2.19,4.4,5.51,8.17,7.81,12.51,1.44,2.71,2.47,5.61,3.73,8.41,4.35,9.66,11.39,17.95,15.53,27.71.76,1.79,1.42,3.78.85,5.63-.44,1.41-1.55,2.57-1.79,4-.44,2.72,2.23,5.9.4,8-.45.52-1.11.82-1.53,1.36-.67.89-.52,2.12-.71,3.22a10,10,0,0,1-2.19,4.17,115.92,115.92,0,0,1-17.86,19.55,12.68,12.68,0,0,1,4.07,3.62l7.33-9.54C434.63,285.11,438.06,280.66,442.37,277.15Z" transform="translate(-29.87 -19.75)"/>
              </g>
              <g class="cls-6">
                <path class="cls-7" d="M426.72,289a91.24,91.24,0,0,1-6.87,6.46c2.76,1.44,4.59,4.15,6.2,6.81A133.18,133.18,0,0,1,432.93,315c.13.29.59.75.27.77,3.74-.73,7-3,9.94-5.38A31.87,31.87,0,0,0,426.72,289Z" transform="translate(-29.87 -19.75)"/>
              </g>
            </g>
            <g>
              <path class="cls-7" d="M346.11,294.88c-3.44-4.21-8.25-7-12.63-10.22-6.78-5-12.65-11.09-18.48-17.17a1.53,1.53,0,0,1-.57-1.08,1.57,1.57,0,0,1,.35-.72c8-10.93,16.18-21.79,22.85-33.58a41.72,41.72,0,0,0,3.88-8.46c2.05-6.89.9-14.28-.27-21.38L337.4,179c-.2-1.21-1.06-2.38-2.07-1.68a65.62,65.62,0,0,0-15.52,15,108.56,108.56,0,0,0-8.08,13.89c-10.43,20.16-20.87,40.33-30,61.13a9.07,9.07,0,0,0-1.12,5.05,8.84,8.84,0,0,0,2.5,4.17c12.9,14.34,27.05,22.1,43,32.67A5.2,5.2,0,0,0,329,314.5a17.08,17.08,0,0,0,6.48,1.77,4.39,4.39,0,0,0,2.25-.08,4.23,4.23,0,0,0,1.34-1,29.56,29.56,0,0,0,6.57-9.27C347.08,302.39,348.52,297.83,346.11,294.88Z" transform="translate(-29.87 -19.75)"/>
              <g class="cls-6">
                <path class="cls-7" d="M346.11,294.88a40.67,40.67,0,0,0-8.39-7.23,43.52,43.52,0,0,0-11.67,21.52l.09.06A5.2,5.2,0,0,0,329,314.5a17.08,17.08,0,0,0,6.48,1.77,4.39,4.39,0,0,0,2.25-.08,4.23,4.23,0,0,0,1.34-1,29.56,29.56,0,0,0,6.57-9.27C347.08,302.39,348.52,297.83,346.11,294.88Z" transform="translate(-29.87 -19.75)"/>
              </g>
              <g class="cls-6">
                <path class="cls-7" d="M328.64,206.72c.22,4.7.83,9.41.45,14.1a47.9,47.9,0,0,1-1.84,9.32C322.7,245.87,313,260.42,299,269a18.9,18.9,0,0,1,15.43-2.27.88.88,0,0,1,0-.32,1.57,1.57,0,0,1,.35-.72c8-10.93,16.18-21.79,22.85-33.58a41.72,41.72,0,0,0,3.88-8.46c2.05-6.89.9-14.28-.27-21.38L337.4,179c-.2-1.21-1.06-2.38-2.07-1.68a74.49,74.49,0,0,0-7.59,6.13C329,191.06,328.28,199,328.64,206.72Z" transform="translate(-29.87 -19.75)"/>
              </g>
            </g>
            <g>
              <path class="cls-7" d="M433.81,328.84a49.69,49.69,0,0,0-1.53-10.21,13.23,13.23,0,0,1-.44-2.15,15.05,15.05,0,0,1,.17-2.76,30,30,0,0,0-1.23-11.16c-2.15-7.79-4.32-15.77-3.63-23.82.27-3.21,1-6.43.57-9.62-.34-2.54-1.4-5-1.45-7.53-.09-4.18,2.53-8.06,2.39-12.23-.08-2.6-1.24-5.08-1.34-7.67a26.94,26.94,0,0,1,.57-5.05,67,67,0,0,0,.47-11.06l-.15-13c-.17-14-.35-28.09-3.1-41.81a9.4,9.4,0,0,0-2.07-4.9,8.84,8.84,0,0,0-4.42-2c-18.82-4.31-38,3.55-56.79,7.87-8.12,1.86-16.87,2.81-25,4.74-2.29.54-3.91,2.7-4.5,5a18.87,18.87,0,0,0-.08,7c3.53,30.71,11.12,61.56,7.4,92.25-.5,4.1-1.18,8.2-1,12.33a29.79,29.79,0,0,0,3.77,13.28c3.74,6.7,2.72,12.83-1.17,19.45,20.3,7.9,45.5,9.41,67.17,7.29C417.19,332.19,425.37,331.3,433.81,328.84Z" transform="translate(-29.87 -19.75)"/>
              <g class="cls-6">
                <path class="cls-7" d="M432.28,318.63a13.23,13.23,0,0,1-.44-2.15,15.05,15.05,0,0,1,.17-2.76,30,30,0,0,0-1.23-11.16c-2.15-7.79-4.32-15.77-3.63-23.82.27-3.21,1-6.43.57-9.62-.34-2.54-1.4-5-1.45-7.53-.09-4.18,2.53-8.06,2.39-12.23-.08-2.6-1.24-5.08-1.34-7.67a26.94,26.94,0,0,1,.57-5.05,67,67,0,0,0,.47-11.06v-.64a70,70,0,0,1-15.18,31.41c-12.11,14-30.88,22.53-49.35,20.81,10.48,5.57,23.62,4.22,34.25-1.05s19.14-14,26.72-23.11a54.52,54.52,0,0,1-65.32,42.21A30.06,30.06,0,0,1,348,290.35c3.94,4.32,8.06,8.78,13.47,11a30.13,30.13,0,0,0,11.31,1.85,61.91,61.91,0,0,0,50.68-27,40,40,0,0,1-4.59,21.88c-1.77,3.3-4.06,6.48-4.59,10.18-.39,2.69.16,5.56-.92,8.05-1.57,3.6-5.86,5-9.68,5.89C383.48,327,362,328.76,342,324.52c-.22.41-.45.82-.7,1.24,20.3,7.9,45.5,9.41,67.17,7.29,8.75-.86,16.93-1.75,25.37-4.21A49.69,49.69,0,0,0,432.28,318.63Z" transform="translate(-29.87 -19.75)"/>
              </g>
              <path class="cls-8" d="M378.3,264.46a31.73,31.73,0,0,1-22.8-13.73,39.83,39.83,0,0,1-4.66-9.68,51.35,51.35,0,0,1-2.65-14.94c-.28,8.37,5,16,11.32,21.53,6.78,6,15.28,10.52,24.33,10.89s18.59-4,22.72-12.11c-1.29,2.52-1.95,5.3-3.55,7.81a18.83,18.83,0,0,1-5.91,5.6A29.69,29.69,0,0,1,378.3,264.46Z" transform="translate(-29.87 -19.75)"/>
            </g>
            <g class="cls-6">
              <path class="cls-7" d="M347.67,322.64c.29-.26.7-.34,1-.6,1-.86.23-3.14,1.52-3.45.35-.09.73,0,1.06-.09a1.33,1.33,0,0,0,.66-.86,12.46,12.46,0,0,0-.25-7.77,26.11,26.11,0,0,0-12.88-15.33,29.65,29.65,0,0,0,3.66,11.77c3.74,6.7,2.72,12.83-1.17,19.45,1.55.6,3.14,1.15,4.74,1.68a6.31,6.31,0,0,0,1.12-3A2.62,2.62,0,0,1,347.67,322.64Z" transform="translate(-29.87 -19.75)"/>
            </g>
            <g class="cls-6">
              <path class="cls-7" d="M340.4,186.8c10.33,3,19.51,9,29.53,12.88,3.52,1.37,7.33,2.48,11,1.76a15.48,15.48,0,0,0,5.42-2.34c8.19-5.32,12.22-15,18.79-22.28,4.26-4.68,9.52-8.25,14.61-12-.52-.17-1.06-.31-1.59-.43-18.82-4.32-38,3.54-56.78,7.86-8.13,1.86-16.88,2.82-25,4.74a6.69,6.69,0,0,0-4.5,5,11.43,11.43,0,0,0-.26,1.42l.42.31C334.53,185.36,337.54,186,340.4,186.8Z" transform="translate(-29.87 -19.75)"/>
            </g>
            <g>
              <path class="cls-7" d="M335,175.73c-.84,1.19-1.63,2.88-.68,4s3.06.39,4.67,0a11.44,11.44,0,0,1,6,.67c10.76,3.49,19.54,11.27,29.57,16.49a13.07,13.07,0,0,0,4.2,1.55c3.62.47,7.08-1.9,9.26-4.84s3.46-6.42,5.3-9.58c2.68-4.58,6.52-8.35,10.32-12.06a47.61,47.61,0,0,1,8.78-7.33c.8-.47,1.75-1.43,1.14-2.13a1.55,1.55,0,0,0-.71-.39L395,156.23c-4.64-1.53-9.32-3.07-14.18-3.58-7.57-.78-15.08,1-22.27,3.19a24.84,24.84,0,0,0-9,4.47,74.09,74.09,0,0,0-7.55,6.84A71.78,71.78,0,0,0,335,175.73Z" transform="translate(-29.87 -19.75)"/>
              <g class="cls-6">
                <path class="cls-7" d="M350.33,165.47c1.8,5.14,5.89,9.09,10,12.68a206.29,206.29,0,0,0,16.56,13.08,2.56,2.56,0,0,0,4.31-.72,151.6,151.6,0,0,0,12.24-18.95c2.39-4.4,4.58-9.33,5-14.21l-3.4-1.12c-4.64-1.53-9.32-3.08-14.18-3.58-7.57-.78-15.08,1-22.27,3.19a24.84,24.84,0,0,0-9,4.47l-.05.05A14.2,14.2,0,0,0,350.33,165.47Z" transform="translate(-29.87 -19.75)"/>
              </g>
            </g>
            <g>
              <g>
                <path class="cls-9" d="M358,152a131.93,131.93,0,0,0,1.91,15.87,13.56,13.56,0,0,0,1,3.62,12.76,12.76,0,0,0,2.53,3.17,138.06,138.06,0,0,0,15.24,13.53q3.54-6.51,7.59-12.67c2.43-3.71,5.07-7.52,5.66-12,.53-4-.68-8.05-1.49-12a64,64,0,0,1-1.1-18.38c.39-.32-.05-.25-.44-.58a2.13,2.13,0,0,0-1.4-.36c-3.9,0-7.61,1.84-10.87,4.14s-6.2,5.08-9.47,7.37C363.61,146.24,360.44,148.27,358,152Z" transform="translate(-29.87 -19.75)"/>
                <path class="cls-10" d="M378,167.1a13.42,13.42,0,0,0,4.44-4.77,57.86,57.86,0,0,0,7.1-16.62,65,65,0,0,1-.18-12.55c.39-.32-.05-.25-.44-.58a2.13,2.13,0,0,0-1.4-.36c-3.9,0-7.61,1.84-10.87,4.14s-6.2,5.08-9.47,7.37c-3.58,2.51-6.75,4.54-9.2,8.31.21,3.59.58,7.17,1.09,10.73a35.24,35.24,0,0,0,10.57,4.7C372.42,168.18,375.48,168.5,378,167.1Z" transform="translate(-29.87 -19.75)"/>
              </g>
              <g>
                <path class="cls-9" d="M336.42,123.44a178.27,178.27,0,0,0,14.05,27.61,26.65,26.65,0,0,0,3.21,4.38c3,3.17,7.34,4.75,11.51,6.11a21.26,21.26,0,0,0,6.7,1.35,7.57,7.57,0,0,0,6-2.73c4.22-5.76,9-11.76,9.63-18.87a18.83,18.83,0,0,0-.55-6.56c-1.19-4.45-2.41-9.64-4.52-13.73a72.16,72.16,0,0,0-9.15-13,21.43,21.43,0,0,0-15.11-7.55,22.74,22.74,0,0,0-16,5.54,14.77,14.77,0,0,0-3.5,4.21,18.6,18.6,0,0,0-1.62,5.13C336.57,117.94,335.44,121,336.42,123.44Z" transform="translate(-29.87 -19.75)"/>
                <path class="cls-10" d="M342.88,128.25a7.54,7.54,0,0,0,5.87-6.49,17.86,17.86,0,0,0,17.52-6.09,16,16,0,0,0,10.13,7.59,2.84,2.84,0,0,1,1.22.48,2.79,2.79,0,0,1,.73,1.64,15.8,15.8,0,0,0,3.43,7.2,10.85,10.85,0,0,0,5.5,3.42c-.09-.43-.17-.85-.28-1.27-1.19-4.45-2.41-9.64-4.52-13.73a72.16,72.16,0,0,0-9.15-13,21.4,21.4,0,0,0-15.11-7.55,22.74,22.74,0,0,0-16,5.54,14.77,14.77,0,0,0-3.5,4.21,18.6,18.6,0,0,0-1.62,5.13c-.52,2.58-1.65,5.64-.67,8.08q2.31,5.72,5,11.27A9.3,9.3,0,0,0,342.88,128.25Z" transform="translate(-29.87 -19.75)"/>
                <g>
                  <path class="cls-10" d="M351.33,128.45a16,16,0,0,1,7.54,16.82,18.45,18.45,0,0,0-5.39-10.2,13.57,13.57,0,0,0-10.79-3.59c.54-.07,2.43-3.24,3.34-3.72C347.74,126.87,349.72,127.54,351.33,128.45Z" transform="translate(-29.87 -19.75)"/>
                  <path class="cls-11" d="M352,135.43c.79,1.51.79,3.07,0,3.5s-2.1-.46-2.9-2-.78-3.08,0-3.5S351.18,133.92,352,135.43Z" transform="translate(-29.87 -19.75)"/>
                  <path class="cls-11" d="M367,128.75c.8,1.51.79,3.07,0,3.5s-2.1-.46-2.9-2-.79-3.08,0-3.5S366.22,127.24,367,128.75Z" transform="translate(-29.87 -19.75)"/>
                  <path class="cls-12" d="M364.3,152.5A16,16,0,0,0,375.54,143" transform="translate(-29.87 -19.75)"/>
                  <path class="cls-13" d="M378,130.3c1.3,1.13.69,3.94-1.35,6.28s-4.75,3.32-6,2.19-.68-3.94,1.36-6.28S376.7,129.17,378,130.3Z" transform="translate(-29.87 -19.75)"/>
                  <path class="cls-14" d="M342.66,132.14A5.69,5.69,0,0,1,346.1,128" transform="translate(-29.87 -19.75)"/>
                  <path class="cls-14" d="M362,121.74a9.44,9.44,0,0,1,6,.54" transform="translate(-29.87 -19.75)"/>
                  <path class="cls-10" d="M364.64,146.17c.28-1.23,1-2.45.7-3.66a13.9,13.9,0,0,1-7.14,3.91.48.48,0,0,0,.09.19,1.4,1.4,0,0,0,.67.38,27,27,0,0,0,5.69,1.29A4.7,4.7,0,0,1,364.64,146.17Z" transform="translate(-29.87 -19.75)"/>
                  <path class="cls-15" d="M352.57,129.68a13.51,13.51,0,0,1,5.73,15.43c-.16.5-.35,1.1,0,1.5a1.4,1.4,0,0,0,.67.38,28,28,0,0,0,6.6,1.4" transform="translate(-29.87 -19.75)"/>
                  <path class="cls-16" d="M367.68,154.56a6.7,6.7,0,0,0,6.21-3.81" transform="translate(-29.87 -19.75)"/>
                  <path class="cls-13" d="M355.35,143.66c-.74-1.54-3.61-1.7-6.41-.36a9.5,9.5,0,0,0-2.2,1.48q1.39,2.44,2.86,4.84a9.51,9.51,0,0,0,2-.72C354.43,147.55,356.09,145.21,355.35,143.66Z" transform="translate(-29.87 -19.75)"/>
                </g>
              </g>
              <g>
                <path class="cls-17" d="M376.37,90.62a6.93,6.93,0,0,1,6.06,2.14,19.19,19.19,0,0,1,4.15,7.15A78.17,78.17,0,0,1,390.71,139q-3.88-6.25-7.25-12.81a21.77,21.77,0,0,1-2.27-7,10.52,10.52,0,0,1-3.91.23c-3.13-.49-5.65-2.79-7.7-5.21-.77-.92-2.27-5.82-2.21-7.23a17.35,17.35,0,0,1-9,10.94c-3.2,1.57-7.26,2-10.2,0a17,17,0,0,1-6.36,7.9c-.14,1.09-2,3.78-3.89,4.76a6.5,6.5,0,0,1-6,.14c-2.1-1.15-3.19-3.53-3.86-5.83a31.33,31.33,0,0,1,.69-19.52,8,8,0,0,0,4.76,8.42,16.19,16.19,0,0,1-2.61-10.6A30.74,30.74,0,0,1,334.07,93a11.55,11.55,0,0,0-.22,4.71,3.24,3.24,0,0,0,3.07,2.55c1.42-.1,2.4-1.41,3.22-2.59a43,43,0,0,1,9.71-10.5,21.07,21.07,0,0,1,13.42-4.33C368.05,83.12,374.22,86.34,376.37,90.62Z" transform="translate(-29.87 -19.75)"/>
                <g class="cls-6">
                  <path class="cls-17" d="M376.56,118.82c-3.8-3.35-7.73-7.53-7.61-12.6a43.68,43.68,0,0,1,8.2,8.81L371.3,103a20.1,20.1,0,0,1,8.77,9.07,41.62,41.62,0,0,0-6.75-13.35,19.58,19.58,0,0,1,11.79,13.67,27.47,27.47,0,0,0-8.45-17.54,13.66,13.66,0,0,1,8.45,5.62,13.22,13.22,0,0,0-9.12-9c-4.62-1.25-8-5.26-12.77-4.65a16.6,16.6,0,0,1,8.58,7.47,19.32,19.32,0,0,0-25.56,7.45A21.69,21.69,0,0,1,365,95.92a17,17,0,0,0-12.16,6.48,22.51,22.51,0,0,1,12-2,30.21,30.21,0,0,1-6.93,4.92,10.46,10.46,0,0,1-8.28.52,7.75,7.75,0,0,0,7.48,2.48,15.58,15.58,0,0,0,7.22-3.87c-.28,4.42-3.8,7.91-7.42,10.45-2.76,1.94-6.25,3.66-9.4,2.45a7.17,7.17,0,0,0,.68.67v0c2.94,2,7,1.56,10.2,0a17.35,17.35,0,0,0,9-10.94c-.06,1.41,1.44,6.31,2.21,7.23a16.26,16.26,0,0,0,5.68,4.61A5.67,5.67,0,0,0,376.56,118.82Z" transform="translate(-29.87 -19.75)"/>
                </g>
                <path class="cls-18" d="M341.86,108.42a18.19,18.19,0,0,0,9.44,3.17,14.33,14.33,0,0,0,9.39-3.08c-2.75,3.64-7.5,4.82-11.86,4.6a13.88,13.88,0,0,1-8.18-2.77,8.89,8.89,0,0,1-3.21-8.11C336.87,104.47,340.3,107.38,341.86,108.42Z" transform="translate(-29.87 -19.75)"/>
                <g class="cls-6">
                  <path class="cls-1" d="M341.55,126.67a8.3,8.3,0,0,0,1.58-.91,8.22,8.22,0,0,1-1.11,0l-.2.14A2.69,2.69,0,0,1,341.55,126.67Z" transform="translate(-29.87 -19.75)"/>
                  <path class="cls-17" d="M334.45,126.83c-4.64-2-6.75-7.43-7.08-12.46a29,29,0,0,1,0-4.17A31.37,31.37,0,0,0,328,125c.67,2.3,1.76,4.68,3.86,5.83a6.5,6.5,0,0,0,6-.14,9.8,9.8,0,0,0,3.62-4A9,9,0,0,1,334.45,126.83Z" transform="translate(-29.87 -19.75)"/>
                  <path class="cls-17" d="M335.38,115c3.07,1.75,6.88,1.5,10.37.92a12.29,12.29,0,0,1-10.48-5.75,18.15,18.15,0,0,1-2.48-12,27.68,27.68,0,0,1,.88-4.31,29.5,29.5,0,0,0-2.79,9.44,16.71,16.71,0,0,0,1.8,9.28A9.24,9.24,0,0,0,335.38,115Z" transform="translate(-29.87 -19.75)"/>
                  <path class="cls-17" d="M333.63,117.54a9.32,9.32,0,0,0,8.39,8.21,17.19,17.19,0,0,0,4.86-5.15,15.78,15.78,0,0,1-5.15,1.15C338.52,121.85,335.07,120.42,333.63,117.54Z" transform="translate(-29.87 -19.75)"/>
                </g>
                <path class="cls-19" d="M331.83,121.09a26.8,26.8,0,0,1-2.73-8.37,20.14,20.14,0,0,0,16.61,5.52,5.86,5.86,0,0,1-2.62.87,15.38,15.38,0,0,1-11.3-3.06c.45.35.8,2.89,1.12,3.55a13.73,13.73,0,0,0,2.27,3.33c1.52,1.63,3.47,2.34,5.14,3.59C336.75,126.93,333.45,123.94,331.83,121.09Z" transform="translate(-29.87 -19.75)"/>
                <path class="cls-19" d="M360,110.51a15.3,15.3,0,0,1-25.4-10.18,19.12,19.12,0,0,0,2,7.12,17.61,17.61,0,0,0,4.14,5.71,12.53,12.53,0,0,0,10.41,2.29C354.78,114.72,357.26,113,360,110.51Z" transform="translate(-29.87 -19.75)"/>
                <path class="cls-19" d="M345.5,103.31a10.44,10.44,0,0,1-5.49.75,6.27,6.27,0,0,0,5.81,1.63,10.39,10.39,0,0,0,5.31-3.24,29.7,29.7,0,0,1,3.69-4A7.78,7.78,0,0,1,358.71,97C353.43,95.39,349.89,101.42,345.5,103.31Z" transform="translate(-29.87 -19.75)"/>
                <path class="cls-19" d="M349.15,95.66a21.06,21.06,0,0,1,19.6-5,4.1,4.1,0,0,0-3-1.76A20,20,0,0,0,348,94.15c-1.56,1.52-2.85,3.3-4.41,4.84a12.18,12.18,0,0,1-6.2,3.29C342.63,101.75,345.49,99.14,349.15,95.66Z" transform="translate(-29.87 -19.75)"/>
                <path class="cls-19" d="M345.65,107.38l4.5,1c2.54.58,5.28,1.15,7.77.06A10,10,0,0,1,345.65,107.38Z" transform="translate(-29.87 -19.75)"/>
                <path class="cls-19" d="M378.89,116.61a53.85,53.85,0,0,0-3.6-8.42,43.68,43.68,0,0,1,7.53,9.79c-.53-4.13-1.09-8.36-3.08-12a37.45,37.45,0,0,1,6.77,14.51,57.11,57.11,0,0,0-2.22-18.8,38.84,38.84,0,0,1,3.46,28.46,100.86,100.86,0,0,1-3.62-12.65c-.09,1.63-.17,3.27-.25,4.9q-2.07-3.7-4.12-7.41c.09,1,.19,2,.28,3a9,9,0,0,1-5.8-3.06,22,22,0,0,1-3.51-5.56A21.17,21.17,0,0,0,378.89,116.61Z" transform="translate(-29.87 -19.75)"/>
              </g>
              <g>
                <path class="cls-10" d="M381,115.37a3.1,3.1,0,0,1,1.72-1.76c1.31-.36,2.49.89,3.19,2.06a21.29,21.29,0,0,1,2.79,13.49,4.84,4.84,0,0,1-.57,1.94,2,2,0,0,1-1.65,1,2.88,2.88,0,0,1-2-1.48C381.37,126.22,378.42,120.57,381,115.37Z" transform="translate(-29.87 -19.75)"/>
                <path class="cls-20" d="M385.46,120.37a9.53,9.53,0,0,1,1.64,3.1,4.26,4.26,0,0,1,.16,2.37,2.05,2.05,0,0,1-1.65,1.55c-1.22.11-2.09-1.12-2.6-2.23s-1.58-3.81-.77-5.13S384.59,119.26,385.46,120.37Z" transform="translate(-29.87 -19.75)"/>
                <path class="cls-9" d="M384.83,127.72a2.43,2.43,0,0,1,.29-2.21c.17-.23.4-.41.56-.65a1.75,1.75,0,0,0-.18-2,2.47,2.47,0,0,0-2-.8,1.31,1.31,0,0,1-.71-.08,1,1,0,0,1-.35-.94,9.11,9.11,0,0,1,1-4,3.54,3.54,0,0,1,1.13-1.41,2.36,2.36,0,0,1,1-.38c-.71-1-1.74-1.88-2.87-1.57a3.1,3.1,0,0,0-1.72,1.76c-2.59,5.2.36,10.85,3.47,15.27a2.88,2.88,0,0,0,2,1.48,2,2,0,0,0,1.65-1l0,0a6.52,6.52,0,0,1-2.06-1.43A4.88,4.88,0,0,1,384.83,127.72Z" transform="translate(-29.87 -19.75)"/>
              </g>
            </g>
            <g>
              <g>
                <path class="cls-9" d="M333.79,316.36c.22,1.87,1.44,3.45,2.65,4.89,1.43,1.7,2.89,3.35,4.41,5,.48.51,1.29,1,1.8.57a1.3,1.3,0,0,0,.24-1.14,17.85,17.85,0,0,0-4.19-8.81C337.3,315.07,333.17,311.16,333.79,316.36Z" transform="translate(-29.87 -19.75)"/>
                <path class="cls-10" d="M342.89,325.65a17.85,17.85,0,0,0-4.19-8.81c-1.21-1.53-4.46-4.65-4.92-2.1q4.46,5.88,9.09,11.62A1.89,1.89,0,0,0,342.89,325.65Z" transform="translate(-29.87 -19.75)"/>
                <path class="cls-4" d="M340.62,324.35a1.12,1.12,0,0,0-.84-.44.71.71,0,0,0-.57.51c.54.6,1.08,1.21,1.64,1.8s1.21,1,1.73.61A15.61,15.61,0,0,0,340.62,324.35Z" transform="translate(-29.87 -19.75)"/>
              </g>
              <g>
                <path class="cls-9" d="M333.39,311.72a3.22,3.22,0,0,0,.57,1.16,96.29,96.29,0,0,0,8.93,11.49c.54.6,1.4,1.24,2.06.78a6,6,0,0,0,.67-4.56,15.49,15.49,0,0,0-1.86-4.33c-1.33-2.32-3.05-6.32-5.22-7.94S332.86,308.88,333.39,311.72Z" transform="translate(-29.87 -19.75)"/>
                <g>
                  <path class="cls-10" d="M345.62,320.59a15.49,15.49,0,0,0-1.86-4.33c-1.33-2.32-3.05-6.32-5.22-7.94-1.42-1.07-3.59-.39-4.62,1.07l11.8,13.68A6.9,6.9,0,0,0,345.62,320.59Z" transform="translate(-29.87 -19.75)"/>
                  <path class="cls-4" d="M341.6,320.58a1,1,0,0,0-1,.21,1.07,1.07,0,0,0-.13.83c.78.93,1.58,1.85,2.4,2.75.54.6,1.4,1.24,2.06.78a4.42,4.42,0,0,0,.49-1c-.38-.51-.76-1-1.16-1.52A5.11,5.11,0,0,0,341.6,320.58Z" transform="translate(-29.87 -19.75)"/>
                </g>
              </g>
              <g>
                <path class="cls-9" d="M334.49,302.12a3.46,3.46,0,0,0-.95,3.77,9.61,9.61,0,0,0,2.27,3.43A146.3,146.3,0,0,0,346.41,320a1.09,1.09,0,0,0,.73.36c.41,0,.63-.51.71-.92.47-2.54-.89-5-2.21-7.25C343.43,308.45,340.17,297.88,334.49,302.12Z" transform="translate(-29.87 -19.75)"/>
                <path class="cls-4" d="M343.8,315.81a1.06,1.06,0,0,0-.5.06,1,1,0,0,0-.51.71c1.19,1.16,2.39,2.3,3.62,3.42a1.09,1.09,0,0,0,.73.36c.41,0,.63-.51.71-.92a.66.66,0,0,0,0-.14c-.7-.78-1.41-1.55-2.14-2.3A3.23,3.23,0,0,0,343.8,315.81Z" transform="translate(-29.87 -19.75)"/>
                <path class="cls-10" d="M347.77,317a16.76,16.76,0,0,0-2.13-4.76c-2.15-3.64-5.29-13.72-10.68-10.39a25.76,25.76,0,0,0,2.41,3.2C340.78,309,344.26,313,347.77,317Z" transform="translate(-29.87 -19.75)"/>
              </g>
              <g>
                <path class="cls-9" d="M337.48,297.88a3.42,3.42,0,0,0-1.39,1.24c-.66,1.28.31,2.76,1.25,3.85q5.12,6,10.59,11.73a3.24,3.24,0,0,0,1.12.86,1.09,1.09,0,0,0,1.28-.29,1.6,1.6,0,0,0,.15-1.08c-.55-4.62-3.27-8.65-5.91-12.48C344.25,301.25,339.7,296.57,337.48,297.88Z" transform="translate(-29.87 -19.75)"/>
                <path class="cls-4" d="M348.38,312.26a3.51,3.51,0,0,0-1.38-.94,1.29,1.29,0,0,0-1.47.49,1,1,0,0,0-.09.21c.83.89,1.65,1.8,2.49,2.68a3.24,3.24,0,0,0,1.12.86,1.09,1.09,0,0,0,1.28-.29,1.13,1.13,0,0,0,.17-.7A27.24,27.24,0,0,0,348.38,312.26Z" transform="translate(-29.87 -19.75)"/>
              </g>
            </g>
            <g>
              <g>
                <path class="cls-9" d="M434.52,312.74c-.22,1.87-1.44,3.45-2.65,4.89-1.43,1.7-2.9,3.35-4.41,5-.48.51-1.29,1-1.8.56a1.31,1.31,0,0,1-.25-1.13,18,18,0,0,1,4.2-8.81C431,311.45,435.13,307.54,434.52,312.74Z" transform="translate(-29.87 -19.75)"/>
                <path class="cls-10" d="M425.41,322a18,18,0,0,1,4.2-8.81c1.21-1.53,4.45-4.66,4.91-2.1q-4.44,5.88-9.09,11.62A2.42,2.42,0,0,1,425.41,322Z" transform="translate(-29.87 -19.75)"/>
                <path class="cls-4" d="M427.69,320.73a1.15,1.15,0,0,1,.84-.45.74.74,0,0,1,.57.52c-.54.6-1.09,1.21-1.64,1.8s-1.21,1-1.73.61A15.06,15.06,0,0,1,427.69,320.73Z" transform="translate(-29.87 -19.75)"/>
              </g>
              <g>
                <path class="cls-9" d="M434.91,308.1a3,3,0,0,1-.56,1.16,97.34,97.34,0,0,1-8.93,11.49c-.54.6-1.4,1.24-2.07.78a6,6,0,0,1-.67-4.56,15.82,15.82,0,0,1,1.87-4.33c1.32-2.32,3.05-6.32,5.21-7.94S435.45,305.26,434.91,308.1Z" transform="translate(-29.87 -19.75)"/>
                <g>
                  <path class="cls-10" d="M422.68,317a15.82,15.82,0,0,1,1.87-4.33c1.32-2.32,3.05-6.32,5.21-7.94,1.43-1.07,3.6-.39,4.63,1.07l-11.8,13.68A7.13,7.13,0,0,1,422.68,317Z" transform="translate(-29.87 -19.75)"/>
                  <path class="cls-4" d="M426.71,317a1,1,0,0,1,1,.21,1,1,0,0,1,.12.83c-.78.93-1.57,1.85-2.39,2.75-.54.6-1.4,1.24-2.07.78a4.38,4.38,0,0,1-.48-1c.38-.51.76-1,1.16-1.52A5.11,5.11,0,0,1,426.71,317Z" transform="translate(-29.87 -19.75)"/>
                </g>
              </g>
              <g>
                <path class="cls-9" d="M433.82,298.5a3.46,3.46,0,0,1,.94,3.77,9.72,9.72,0,0,1-2.26,3.43,148.34,148.34,0,0,1-10.6,10.68,1.09,1.09,0,0,1-.73.36c-.42,0-.64-.51-.71-.92-.47-2.54.89-5,2.21-7.25C424.88,304.83,428.14,294.26,433.82,298.5Z" transform="translate(-29.87 -19.75)"/>
                <path class="cls-4" d="M424.5,312.19a1,1,0,0,1,.5.06,1,1,0,0,1,.52.71q-1.78,1.74-3.62,3.42a1.09,1.09,0,0,1-.73.36c-.42,0-.64-.51-.71-.92,0-.05,0-.09,0-.14.71-.78,1.41-1.55,2.14-2.3A3.24,3.24,0,0,1,424.5,312.19Z" transform="translate(-29.87 -19.75)"/>
                <path class="cls-10" d="M420.54,313.33a16.76,16.76,0,0,1,2.13-4.76c2.14-3.64,5.29-13.72,10.68-10.39a26.78,26.78,0,0,1-2.41,3.2C427.53,305.41,424.05,309.39,420.54,313.33Z" transform="translate(-29.87 -19.75)"/>
              </g>
              <g>
                <path class="cls-9" d="M430.83,294.26a3.55,3.55,0,0,1,1.39,1.24c.66,1.28-.32,2.76-1.25,3.85q-5.12,6-10.6,11.73a3.2,3.2,0,0,1-1.11.86,1.11,1.11,0,0,1-1.29-.29,1.54,1.54,0,0,1-.14-1.08c.55-4.62,3.27-8.65,5.91-12.48C424.05,297.63,428.6,293,430.83,294.26Z" transform="translate(-29.87 -19.75)"/>
                <path class="cls-4" d="M419.93,308.64a3.55,3.55,0,0,1,1.37-.94,1.3,1.3,0,0,1,1.48.49,1,1,0,0,1,.09.21c-.84.89-1.65,1.8-2.5,2.68a3.2,3.2,0,0,1-1.11.86,1.09,1.09,0,0,1-1.28-.29,1.13,1.13,0,0,1-.18-.7A27.36,27.36,0,0,1,419.93,308.64Z" transform="translate(-29.87 -19.75)"/>
              </g>
            </g>
            <g>
              <path class="cls-8" d="M386.55,193a1.83,1.83,0,1,1-1.83-1.83A1.83,1.83,0,0,1,386.55,193Z" transform="translate(-29.87 -19.75)"/>
              <path class="cls-8" d="M377.19,194.29a1.83,1.83,0,1,1-1.83-1.82A1.83,1.83,0,0,1,377.19,194.29Z" transform="translate(-29.87 -19.75)"/>
              <path class="cls-21" d="M385,192.77a47.44,47.44,0,0,0,4.33,31.59c2,3.83,4.56,7.41,6,11.49,2.35,6.65,1.55,13.94.53,20.91q-1.2,8.17-2.73,16.28" transform="translate(-29.87 -19.75)"/>
              <path class="cls-21" d="M375.6,194.9c.53,4.06,1.07,8.18.4,12.22-1.18,7.08-6,13.32-6.35,20.49-.34,6.39,2.88,12.36,5.83,18s5.83,11.93,4.75,18.24" transform="translate(-29.87 -19.75)"/>
            </g>
          </g>
          <g>
            <g>
              <path class="cls-5" d="M500,500.1a46.41,46.41,0,0,1-1.25-7c-4-33.12-1.75-66.66,1.07-99.9.54-6.41,1.12-12.88,3-19C507,360.73,516.77,348,521,334.55c8.86-1.89,19.4-.08,28.45.18,13.19.38,26.49,1.26,39.67,1.65a188.91,188.91,0,0,1,27.08,69.27c.87,5,1.54,10,2.2,14.94q2.5,18.74,4.91,37.47c1.78,13.88,1.59,27.2.69,41.17H570.34c-10.76-30.08-12.48-63.18-14-95.1-4.83,23.53-4.82,47.75-4.78,71.77a203,203,0,0,0,1,24.67Z" transform="translate(-29.87 -19.75)"/>
              <g class="cls-6">
                <path class="cls-5" d="M580.89,355.06a91.26,91.26,0,0,0,14.49-8.14c-2-3.58-4.07-7.1-6.29-10.54-13.18-.39-26.48-1.27-39.67-1.65-9-.26-19.59-2.07-28.45-.18a82.32,82.32,0,0,1-4.89,11.77C534,360.46,559.86,364.14,580.89,355.06Z" transform="translate(-29.87 -19.75)"/>
              </g>
              <g class="cls-6">
                <path class="cls-5" d="M574.52,363.22c1,7.77,3.67,15.53,8.94,21.15a32.21,32.21,0,0,0,18,9.28,48.69,48.69,0,0,0,12.24.46c-.29-1.19-.59-2.39-.9-3.58a43.84,43.84,0,0,1-7.5-.58,30.58,30.58,0,0,1-16.9-8.38c-4.92-5.09-7.46-12.1-8.36-19.12s-.27-14.14.35-21.19l.45-5.18-5.66-.25c-.11,1.31-.23,2.63-.34,3.94C574.23,347.58,573.57,355.45,574.52,363.22Z" transform="translate(-29.87 -19.75)"/>
                <path class="cls-5" d="M547.1,380.46c.09,6.36.3,13.11,3.77,18.45,1.5,2.32,3.93,4.4,6.69,4.22a318.67,318.67,0,0,1,2-57.85c.43-3.38.86-6.76,1.34-10.11-3.26-.15-6.52-.27-9.77-.38q-1.2,5.9-2.28,11.8C546.77,357.72,546.93,369.14,547.1,380.46Z" transform="translate(-29.87 -19.75)"/>
                <path class="cls-5" d="M523.59,387.21c5.27-5.63,8-13.39,8.94-21.16s.29-15.64-.37-23.44q-.39-4.46-.76-8.91c-1.92,0-3.83,0-5.69.18l.9,10.21c.62,7.05,1.24,14.17.35,21.19s-3.44,14-8.36,19.12a30.59,30.59,0,0,1-16.9,8.39c-.61.1-1.22.17-1.83.25,0,.07,0,.14,0,.21-.11,1.28-.21,2.56-.32,3.84a45,45,0,0,0,6-.61A32.2,32.2,0,0,0,523.59,387.21Z" transform="translate(-29.87 -19.75)"/>
              </g>
              <path class="cls-5" d="M554.56,356.15a2.25,2.25,0,1,1-2.25-2.25A2.24,2.24,0,0,1,554.56,356.15Z" transform="translate(-29.87 -19.75)"/>
            </g>
            <g class="cls-6">
              <path class="cls-1" d="M555.89,406.33c.16-.43.32-.87.47-1.32,0-.29,0-.59-.05-.89C556.16,404.86,556,405.6,555.89,406.33Z" transform="translate(-29.87 -19.75)"/>
              <path class="cls-5" d="M547,419.74c-2.27,1-4.88-.09-7.09-1.23-11.95-6.14-23.71-13.7-31.06-24.95a40.17,40.17,0,0,1-6.34-18.14c-1.61,5.79-2.16,11.83-2.67,17.83-2.82,33.24-5.09,66.78-1.07,99.9a46.41,46.41,0,0,0,1.25,7l52.53.46a203,203,0,0,1-1-24.67c0-23.27,0-46.72,4.36-69.56a41.86,41.86,0,0,1-6.11,10.92A7.68,7.68,0,0,1,547,419.74Z" transform="translate(-29.87 -19.75)"/>
              <path class="cls-5" d="M605.48,476.87c-5-1.86-9.91-3.9-14.22-7s-7.67-6.86-11.1-10.71c-5.17-5.79-10.39-11.65-14.06-18.49-6-11.12-8.09-24-9.43-36.59-.1.31-.21.61-.31.91,1.53,31.65,3.32,64.41,14,94.21H624c.35-5.42.59-10.75.65-16Q614.93,480.4,605.48,476.87Z" transform="translate(-29.87 -19.75)"/>
            </g>
            <g>
              <path class="cls-22" d="M512.87,219.1a34.52,34.52,0,0,0-9.26,5.53c-4.25,3.9-6.41,9.53-8.09,15a145.33,145.33,0,0,0-5.41,25.86c-1.07,9.32-2.52,25.67,1.42,34.17,1.5,3.23,5.48,0,9,0,2.64,0,4.93-1.83,6.67-3.83,4.65-5.39,7-12.43,8-19.46s1-14.19,1.39-21.29a149.76,149.76,0,0,1,3.93-26.55q.81-3.33,1.76-6.62c.37-1.26,2.22-4.88,1.56-6.07C522.58,213.44,514.83,218.2,512.87,219.1Z" transform="translate(-29.87 -19.75)"/>
              <g>
                <path class="cls-4" d="M520.6,228.57q.81-3.33,1.76-6.62c.37-1.26,2.22-4.88,1.56-6.07-1.34-2.44-9.09,2.32-11,3.22a34.52,34.52,0,0,0-9.26,5.53c-4.25,3.9-6.41,9.53-8.09,15a145.33,145.33,0,0,0-5.41,25.86c-.12,1.1-.25,2.3-.38,3.57,7.77,4.27,17.32,5,26.06,3,.53-5.64.55-11.33.88-17A149.76,149.76,0,0,1,520.6,228.57Z" transform="translate(-29.87 -19.75)"/>
                <path class="cls-23" d="M490.28,264.24c0,.43-.12.86-.17,1.29-.12,1.1-.25,2.3-.38,3.57,7.77,4.27,17.32,5,26.06,3,.15-1.54.25-3.08.33-4.62A49.1,49.1,0,0,1,490.28,264.24Z" transform="translate(-29.87 -19.75)"/>
              </g>
              <g class="cls-6">
                <path class="cls-23" d="M523.92,215.88c-1.34-2.44-9.09,2.32-11,3.22a40.34,40.34,0,0,0-7.87,4.39c0,2.32,0,4.64-.2,6.95a56.58,56.58,0,0,1-3.69,15.92,112.82,112.82,0,0,1-4.94,10.5l-6.33,12.3c7.75,4.21,17.25,4.94,25.95,2.95.53-5.64.55-11.33.88-17a149.76,149.76,0,0,1,3.93-26.55q.81-3.33,1.76-6.62C522.73,220.69,524.58,217.07,523.92,215.88Z" transform="translate(-29.87 -19.75)"/>
              </g>
            </g>
            <path class="cls-4" d="M593.44,340.88c1.19-4.58,2.38-9.17,4-13.62,1.32-3.66,2.92-7.22,4.06-10.94a93.58,93.58,0,0,0,2.36-10.62c1-5.59,2.26-11.45,3.71-16.93,2.45-9.28,1.74-19,1.92-28.63.29-15.58,2.89-31.73-2.51-46.35-1.34-3.61,2.09-8.15-1.2-10.16-5.06-3.09-17-.58-22.81-1.57-6.09-1-11.55-4.89-17.72-5.2a16.82,16.82,0,0,0-2.13,0,20.81,20.81,0,0,0-4.35.79c-6.69,2-12.26,6-18.89,8.23s-13.38,4.68-20,7.31a12.19,12.19,0,0,0-4.92,3,11.87,11.87,0,0,0-2.07,4.36,154.58,154.58,0,0,0,.73,93.42c2.94,8.93,6.86,16.2,6,25.57,6.22,3.68,13.47,6,20.46,7.92A85.06,85.06,0,0,0,552.76,350C566.11,351.48,581.93,347.82,593.44,340.88Z" transform="translate(-29.87 -19.75)"/>
            <g class="cls-6">
              <path class="cls-23" d="M607,213.79c-1.34-3.61,2.09-8.15-1.2-10.16-1.69-1-4.15-1.43-6.89-1.55a20.41,20.41,0,0,0-8.23,10.62c-1.89,5.2-2.18,10.81-2.35,16.33a428.85,428.85,0,0,0,2,56.89c-14.59-1-28.53,5.65-43,7.81-10.57,1.58-21.36.72-32,1.58-2.12.18-4.24.43-6.35.72A154.33,154.33,0,0,0,513.64,314c1.85,5.61,4.08,10.56,5.28,15.79a27.45,27.45,0,0,1,7.71-3.66,34.85,34.85,0,0,1,8-1.12,68.29,68.29,0,0,1,10.21.32c7.54.8,14.91,2.84,22.45,3.69a92,92,0,0,0,30.24-2.06c1.3-3.54,2.83-7,3.93-10.6a93.58,93.58,0,0,0,2.36-10.62c1-5.59,2.26-11.45,3.71-16.93,2.45-9.28,1.74-19,1.92-28.63C609.76,244.56,612.36,228.41,607,213.79Z" transform="translate(-29.87 -19.75)"/>
            </g>
            <path class="cls-23" d="M548.25,218.1a33.17,33.17,0,0,0,22.68-4.88A43.5,43.5,0,0,0,582.81,202c-6-1.07-11.46-4.86-17.58-5.17a16.82,16.82,0,0,0-2.13,0,20.81,20.81,0,0,0-4.35.79c-6.69,2-12.26,6-18.89,8.23-2.64.88-5.26,1.8-7.88,2.74A26.59,26.59,0,0,0,548.25,218.1Z" transform="translate(-29.87 -19.75)"/>
            <path class="cls-24" d="M576.23,199.69a28.22,28.22,0,0,1-10.63-13.28c-1.91-5-2.37-10.34-2.76-15.63q-.48-6.42-.88-12.85c-9.18,4.85-17.1,12.06-24.57,19.27a39.32,39.32,0,0,0-5.89,6.62.46.46,0,0,0-.11.35c0,.12.24.18.29.06a33.06,33.06,0,0,1,6.82,11.11,17.53,17.53,0,0,1-.17,12.79c4.24,2.64,8.79,4.88,13.79,5.06C566.76,213.69,575.06,202,576.23,199.69Z" transform="translate(-29.87 -19.75)"/>
            <path class="cls-22" d="M552.92,193.85c4.47-4.49,7-10.55,8.8-16.62.46-1.51.87-3,1.26-4.56-.05-.63-.09-1.26-.14-1.89q-.48-6.42-.88-12.85c-9.18,4.85-17.1,12.06-24.57,19.27a39.32,39.32,0,0,0-5.89,6.62.46.46,0,0,0-.11.35c0,.12.24.18.29.06a33.06,33.06,0,0,1,6.82,11.11,20.68,20.68,0,0,1,1,4.34A19.13,19.13,0,0,0,552.92,193.85Z" transform="translate(-29.87 -19.75)"/>
            <path class="cls-25" d="M595.78,270.89c-6.86,5.3-16.36,5.45-24.95,4.29s-17.28-3.38-25.83-1.94c-7.78,1.31-15.28,5.63-23.08,4.41-7.25-1.13-13-6.88-16.76-13.17,3.3,8.65,7.83,17.3,16.15,21.37a34.39,34.39,0,0,0,9.8,2.85c9.51,1.55,19.24,1.15,28.82.07,5.82-.66,11.7-1.6,17.06-4C583.68,281.82,590.39,275.83,595.78,270.89Z" transform="translate(-29.87 -19.75)"/>
            <g>
              <g>
                <path class="cls-24" d="M507,149a55.6,55.6,0,0,0,1.5,11c1.52,5.91,4.5,11.32,7,16.88,1.78,3.9,3.41,8,6.46,11,4,3.92,10,5.34,15.43,6.49a10.54,10.54,0,0,0,5.6,0c2.1-.74,3.6-2.56,5-4.3,4.39-5.49,9-11.47,9.37-18.49a34.4,34.4,0,0,0-.77-7.89,61,61,0,0,0-2.16-9.28,30.5,30.5,0,0,0-12.81-15.91,26.07,26.07,0,0,0-17.68-3.72,26.87,26.87,0,0,0-9.13,3.5C510.85,140.65,506.73,144.39,507,149Z" transform="translate(-29.87 -19.75)"/>
                <path class="cls-22" d="M514.81,155.2a11.14,11.14,0,0,0,6.65-5.09,9.73,9.73,0,0,0,14.6,1.92,11.79,11.79,0,0,0,13.62,7.26,28.51,28.51,0,0,0,7.59,13.18c0-.29.07-.58.08-.88a34.4,34.4,0,0,0-.77-7.89,61,61,0,0,0-2.16-9.28,30.5,30.5,0,0,0-12.81-15.91,26.07,26.07,0,0,0-17.68-3.72,26.87,26.87,0,0,0-9.13,3.5c-3.95,2.36-8.07,6.1-7.82,10.7.13,2.31.34,4.61.69,6.89A20.9,20.9,0,0,0,514.81,155.2Z" transform="translate(-29.87 -19.75)"/>
                <g>
                  <path class="cls-22" d="M528.37,160.57a19.49,19.49,0,0,0,3,6.45,15.41,15.41,0,0,1,.61-7.17,10.59,10.59,0,0,1,4.39-5.6c-.13.08-3-.87-3.51-.86a6.21,6.21,0,0,0-2.86.54C528.06,155.16,528,158.63,528.37,160.57Z" transform="translate(-29.87 -19.75)"/>
                  <path class="cls-22" d="M520.81,158.94a8.54,8.54,0,0,1,2.1,2,20.13,20.13,0,0,1,3.63,7.16,13.11,13.11,0,0,0-14.95-5.2c1.05-.34,2.22-3.23,3.43-3.94A5.67,5.67,0,0,1,520.81,158.94Z" transform="translate(-29.87 -19.75)"/>
                  <path class="cls-14" d="M511.23,164.41a9.3,9.3,0,0,1,4.75-5.75" transform="translate(-29.87 -19.75)"/>
                  <path class="cls-14" d="M529.33,154.55a9.74,9.74,0,0,1,8.54.06" transform="translate(-29.87 -19.75)"/>
                  <path class="cls-26" d="M534.88,181.89a7.68,7.68,0,0,0,1.09-.34,2.71,2.71,0,0,0,.67-.64c1.22-1.53,2.48-3.18,4.32-3.86a3,3,0,0,1,1.22-.23,2.79,2.79,0,0,1,2.37,2.1,4.87,4.87,0,0,1-.45,3.28,8,8,0,0,1-6.85,4.36c-1.2,0-2.24-.09-2.94-1.11S533.27,182.49,534.88,181.89Z" transform="translate(-29.87 -19.75)"/>
                  <path class="cls-27" d="M549.26,162.79c1.35,1.49.26,4.68-2.44,7.11s-6,3.21-7.32,1.72-.26-4.67,2.44-7.11S547.92,161.3,549.26,162.79Z" transform="translate(-29.87 -19.75)"/>
                  <path class="cls-22" d="M534.66,172.53a6.17,6.17,0,0,0-1.83,1.67,11.14,11.14,0,0,1-5.84,2.88,3.6,3.6,0,0,0,.69.39,16.11,16.11,0,0,0,6.2,1.32,3.3,3.3,0,0,0-.19-2.15,2.3,2.3,0,0,1-.2-.49.84.84,0,0,1,.29-.81c.14-.12.32-.19.46-.31a1.25,1.25,0,0,0,.32-.6A4.52,4.52,0,0,0,534.66,172.53Z" transform="translate(-29.87 -19.75)"/>
                  <path class="cls-15" d="M519.07,158a16.72,16.72,0,0,1,7.53,17.18,2.24,2.24,0,0,0,0,1.4,2,2,0,0,0,1.09.86,16,16,0,0,0,6.27,1.32" transform="translate(-29.87 -19.75)"/>
                  <g>
                    <path class="cls-11" d="M520.35,168.5c-1.84.69-3.49-.92-3.92-2.51a4.06,4.06,0,0,0,1.69,1.07,1.18,1.18,0,0,0,1.28-.32l1,1.76Z" transform="translate(-29.87 -19.75)"/>
                    <path class="cls-11" d="M522.17,168.15c.7,1.34.7,2.74,0,3.12s-1.87-.41-2.58-1.75-.7-2.74,0-3.12S521.46,166.81,522.17,168.15Z" transform="translate(-29.87 -19.75)"/>
                  </g>
                  <g>
                    <path class="cls-11" d="M535.77,161.21c-1.84.7-3.49-.92-3.92-2.51a4,4,0,0,0,1.69,1.08c.56.15,1.15,0,1.27-.32l1,1.75Z" transform="translate(-29.87 -19.75)"/>
                    <path class="cls-11" d="M537.58,160.87c.71,1.34.7,2.73,0,3.11s-1.87-.4-2.58-1.74-.71-2.74,0-3.12S536.87,159.52,537.58,160.87Z" transform="translate(-29.87 -19.75)"/>
                  </g>
                  <path class="cls-12" d="M533.35,185.55a16,16,0,0,0,11.15-11.41" transform="translate(-29.87 -19.75)"/>
                  <path class="cls-27" d="M519.57,182.19c3.6-.5,6.29-2.51,6-4.5s-3.41-3.21-7-2.71a10.67,10.67,0,0,0-3.45,1.06l.37.81c.83,1.82,1.63,3.67,2.55,5.44A11.4,11.4,0,0,0,519.57,182.19Z" transform="translate(-29.87 -19.75)"/>
                </g>
              </g>
              <g>
                <path class="cls-28" d="M567.79,135.76a20.84,20.84,0,0,1,3.9,10.94,28.36,28.36,0,0,1-.12,4.12c-.55,5.76-2.54,11.63-6.79,15.55-1.14,1-2.62,2-4.15,1.71a4.69,4.69,0,0,1-3-2.47c-1.88-3.16-1.92-7.32-2.09-11a9.07,9.07,0,0,1-7.65,3.24,10.54,10.54,0,0,1-7.35-4A11.93,11.93,0,0,1,538,146a16.1,16.1,0,0,1-4.14,4,8.28,8.28,0,0,1-5.52,1.33A7.81,7.81,0,0,1,522,145c-1.72,4.18-8.18,8.6-13,4.81.84,1.3-2,6.09-7.37,5.83a12.51,12.51,0,0,1-10.85-8.48,14.6,14.6,0,0,1,2.86-13.72,8.77,8.77,0,0,1-2.2-7.4,15.27,15.27,0,0,1,3.44-7.31,19.73,19.73,0,0,1,11-7,15.18,15.18,0,0,1,12.52,2.71c3.58-4.53,8.58-8.56,14.34-8.92a16,16,0,0,1,10.76,3.59,21.59,21.59,0,0,1,6.6,9.36,15.55,15.55,0,0,1,10.91-3.17,10.75,10.75,0,0,1,8.87,6.56,12.33,12.33,0,0,1,.48,5.91A21.05,21.05,0,0,1,567.79,135.76Z" transform="translate(-29.87 -19.75)"/>
                <g class="cls-6">
                  <path class="cls-28" d="M518.8,125.62A31.31,31.31,0,0,0,517.62,114a15.28,15.28,0,0,0-11.83-2.23l-.26.07a14.15,14.15,0,0,1,13.27,13.83Z" transform="translate(-29.87 -19.75)"/>
                  <path class="cls-28" d="M494.11,138a8.29,8.29,0,0,0,6.37-.29,20.22,20.22,0,0,0,5.35-3.74c-3.07,1-6.41,2-9.48,1a8.3,8.3,0,0,1-3.45-2.33,7.11,7.11,0,0,0,.7.86,14.54,14.54,0,0,0-1.89,2.87A7.36,7.36,0,0,0,494.11,138Z" transform="translate(-29.87 -19.75)"/>
                  <path class="cls-28" d="M566.59,127.63a11.37,11.37,0,0,1-2.29,5.81,14.59,14.59,0,0,1-4.64,3.2,24.41,24.41,0,0,0,6.56-.17,11.56,11.56,0,0,0,1.72-.48l-.15-.23a21.05,21.05,0,0,0,2.48-8,12.33,12.33,0,0,0-.48-5.91,9.75,9.75,0,0,0-3.77-4.67A26.31,26.31,0,0,1,566.59,127.63Z" transform="translate(-29.87 -19.75)"/>
                  <path class="cls-28" d="M506.17,140.54a10.14,10.14,0,0,1-1.42,8.48,7.14,7.14,0,0,1-7.86,2.64,9.26,9.26,0,0,1-3.18-2.16,18.45,18.45,0,0,1-3.53-4.87,12.37,12.37,0,0,0,.56,2.52,12.51,12.51,0,0,0,10.85,8.48,7.56,7.56,0,0,0,7-3.65A13.36,13.36,0,0,0,506.17,140.54Z" transform="translate(-29.87 -19.75)"/>
                  <path class="cls-28" d="M540.88,111.73a16.24,16.24,0,0,1,3.56,7.51,8.65,8.65,0,0,1-2.5,7.67,18.15,18.15,0,0,0,8.53-8.76l-.46.31a21.59,21.59,0,0,0-6.6-9.36,16.35,16.35,0,0,0-9.34-3.6A28.84,28.84,0,0,1,540.88,111.73Z" transform="translate(-29.87 -19.75)"/>
                  <path class="cls-28" d="M571.31,143.8a30.56,30.56,0,0,1-1.93,7.34c-1.65,4.12-4.75,8.21-9.15,8.8a1.67,1.67,0,0,1-1.45-.31c-.59-.61-.11-1.6.27-2.36a13.72,13.72,0,0,0,1-7.54,35.21,35.21,0,0,0-2.13-9.22,11.71,11.71,0,0,1-2.32,10c-2.4,2.91-6.9,4.45-10,2.34a8,8,0,0,1-2-2,13.2,13.2,0,0,1-2.34-6c-.47-3.72.64-7.67-.78-11.13A14.73,14.73,0,0,1,531.74,147a6.07,6.07,0,0,1-4.21.48c-2.29-.74-3.33-3.36-3.87-5.71a41,41,0,0,1-1-7.06c-.92,5.78-2.76,11.81-6.77,15.93a11.12,11.12,0,0,0,6-5.69,7.81,7.81,0,0,0,6.36,6.34,8.28,8.28,0,0,0,5.52-1.33,16.1,16.1,0,0,0,4.14-4,11.93,11.93,0,0,0,2.6,7.82,10.54,10.54,0,0,0,7.35,4,9.07,9.07,0,0,0,7.65-3.24c.17,3.68.21,7.84,2.09,11a4.69,4.69,0,0,0,3,2.47c1.53.28,3-.66,4.15-1.71,4.25-3.92,6.24-9.79,6.79-15.55a28.36,28.36,0,0,0,.12-4.12A21.5,21.5,0,0,0,571.31,143.8Z" transform="translate(-29.87 -19.75)"/>
                  <path class="cls-28" d="M529.86,127a6,6,0,0,0,3.61-3.7,3.66,3.66,0,0,0,3.24-.82,7.07,7.07,0,0,0,2.35-6.42,11.48,11.48,0,0,0-3.24-6.24c1.65,1.74,1.58,5.94.73,7.91-.75,1.74-2.67,3.09-4.51,2.63a5.42,5.42,0,0,1-7,5.37A4.56,4.56,0,0,0,529.86,127Z" transform="translate(-29.87 -19.75)"/>
                  <path class="cls-28" d="M554.43,129.56a5.75,5.75,0,0,0,5.36-2.51,10,10,0,0,0,1.59-5.92,9.64,9.64,0,0,1-5.09,6.07,5,5,0,0,1-4.19.32,10.15,10.15,0,0,1-4.8,7.2,4.21,4.21,0,0,1-1.45.56c2.56-.23,4.69-.64,6.73-2.37A4.34,4.34,0,0,0,554.43,129.56Z" transform="translate(-29.87 -19.75)"/>
                  <path class="cls-28" d="M509.34,129.66a6.43,6.43,0,0,1-3.44-3.94,5.28,5.28,0,0,1-8.47-5.5c-1.31,2.31-1.81,5-.36,7.27a5.5,5.5,0,0,0,7,2,5.12,5.12,0,0,0,5,3.11,7.36,7.36,0,0,0,5.56-2.87A6.4,6.4,0,0,1,509.34,129.66Z" transform="translate(-29.87 -19.75)"/>
                </g>
                <path class="cls-19" d="M551.1,142.74a13.93,13.93,0,0,0,4.31-7.36,11.44,11.44,0,0,1-1.06,7,11.71,11.71,0,0,1-1.51,2.58,6.55,6.55,0,0,1-6.27,2.45,4.87,4.87,0,0,1-3.84-5.08C543.88,146.48,548.8,144.8,551.1,142.74Z" transform="translate(-29.87 -19.75)"/>
                <path class="cls-19" d="M539.62,126.15a25.9,25.9,0,0,1-2.27,6,11,11,0,0,1-4.45,4.46,5,5,0,0,1-2.54.62,4,4,0,0,1-3.53-3.61,10.66,10.66,0,0,0,.35,3.48,4,4,0,0,0,2.41,2.57,4.3,4.3,0,0,0,2.67-.15,10.39,10.39,0,0,0,5.82-5.69C539.23,131.25,539.37,128.92,539.62,126.15Z" transform="translate(-29.87 -19.75)"/>
                <path class="cls-19" d="M520.34,131.56a23.61,23.61,0,0,1-1.92,6.46,8,8,0,0,1-5,4.25,2.43,2.43,0,0,1-1.31,0,2.59,2.59,0,0,1-1.16-.94,8,8,0,0,1-1.39-2.65,10.75,10.75,0,0,0,.17,3.16,4.36,4.36,0,0,0,2.08,2.72,4.11,4.11,0,0,0,4-.43,8.13,8.13,0,0,0,2.65-3.21C520,138,519.72,134.77,520.34,131.56Z" transform="translate(-29.87 -19.75)"/>
                <path class="cls-19" d="M515.25,127.16c0-1.91-1.21-3.58-2.4-5.08a25.93,25.93,0,0,0-4.18-4.51,8.52,8.52,0,0,0-5.68-2C510.37,113.38,515.35,120.32,515.25,127.16Z" transform="translate(-29.87 -19.75)"/>
                <path class="cls-19" d="M528.69,118.22a9.11,9.11,0,0,0-.6-7.7c2.44,1.31,3.24,4.58,2.62,7.28a8.54,8.54,0,0,1-4.4,5.82,6.44,6.44,0,0,1-7-.79C522.59,124,527.4,121.26,528.69,118.22Z" transform="translate(-29.87 -19.75)"/>
                <path class="cls-19" d="M566.76,151.31a12.08,12.08,0,0,1-7.28,6.66c1.46-.4,2.38-1.82,3-3.18a26.06,26.06,0,0,0,2.11-15.89c.11.57,1.54,1.62,1.88,2.25a10.75,10.75,0,0,1,.87,2.77A12.23,12.23,0,0,1,566.76,151.31Z" transform="translate(-29.87 -19.75)"/>
              </g>
              <g>
                <path class="cls-22" d="M561.62,151.11c1.16,2.46,1.31,5.55,1.26,8.48a10,10,0,0,1-.37,3,7.42,7.42,0,0,1-2.12,3,3.44,3.44,0,0,1-1.64,1.1c-1.1.18-2.07-1-2.74-2.2-1.67-3-3.42-9.32-2.18-13.14C555.3,146.8,559.87,147.37,561.62,151.11Z" transform="translate(-29.87 -19.75)"/>
                <path class="cls-29" d="M555.65,157.16a3,3,0,0,1,1-2.48,6,6,0,0,1,2.21-1.08,1.67,1.67,0,0,1,.79-.13,1.41,1.41,0,0,1,.78.46c1.46,1.47,1.32,4.24.87,6.49-.19,1-.6,2.08-1.4,2.14a1.73,1.73,0,0,1-1-.41,7.33,7.33,0,0,1-2.06-1.8,3.45,3.45,0,0,1-.54-2.89" transform="translate(-29.87 -19.75)"/>
                <path class="cls-24" d="M557.42,163.67a3.79,3.79,0,0,1,1.25-4.16c.48-.31,1.08-.51,1.31-1.06a1.72,1.72,0,0,0-.88-1.95,7.83,7.83,0,0,1-1.9-1.17,2.66,2.66,0,0,1-.29-2.77,3.28,3.28,0,0,1,2.12-1.72,3.81,3.81,0,0,1,2.59.26c-1.76-3.73-6.32-4.3-7.79.19-1.24,3.82.51,10.13,2.18,13.14.67,1.22,1.64,2.38,2.74,2.2a1.94,1.94,0,0,0,.78-.35A4.7,4.7,0,0,1,557.42,163.67Z" transform="translate(-29.87 -19.75)"/>
              </g>
              <path class="cls-22" d="M529.83,188.53a4.44,4.44,0,0,0-2.09-2.1,5.56,5.56,0,0,0-3.33-.07,16.94,16.94,0,0,0-2.95,1,6.52,6.52,0,0,0,.5.55,21.76,21.76,0,0,0,9.17,4.95c-.11-.47-.23-.95-.35-1.42A13.06,13.06,0,0,0,529.83,188.53Z" transform="translate(-29.87 -19.75)"/>
              <path class="cls-4" d="M560.65,163.83a2,2,0,1,1-2-2A2,2,0,0,1,560.65,163.83Z" transform="translate(-29.87 -19.75)"/>
              <path class="cls-23" d="M560,162.34a1.9,1.9,0,0,1,.17.79,2,2,0,0,1-2,2,2,2,0,0,1-1.27-.48,2,2,0,0,0,3.77-.8A1.93,1.93,0,0,0,560,162.34Z" transform="translate(-29.87 -19.75)"/>
            </g>
            <g>
              <g>
                <path class="cls-24" d="M598.25,294.29c-2.25-13.62-.09-29.22-1.47-43-.31-3.14-.63-6.28-.94-9.43-.86-8.56-1.72-17.2-.8-25.76.51-4.72-2.5-10.91,1.31-13.74a25.58,25.58,0,0,1,19.07,11.28,41.79,41.79,0,0,1,5.11,12.91c6.29,25,4.54,51.26.31,76.65-.8,4.8-2.35,11.95-10.38,14.12a134.31,134.31,0,0,1-61.75,2.38c-4.87-1-9.68-2.2-14.59-3-4-.63-8.42-.87-11.86,1.31-2.53,1.6-4.16,4.28-6.28,6.39s-5.38,3.7-8.08,2.38a4.54,4.54,0,0,1-5.83-2.12,4.17,4.17,0,0,1-3.44-5,9.9,9.9,0,0,1-3.7-9.54c9.46-8.07,22-9.07,34.39-8.83,2.25.05,4.49.24,6.73.25a79.09,79.09,0,0,0,15.76-1.95q11.88-2.32,23.67-5.17C582.16,292.92,592,291.39,598.25,294.29Z" transform="translate(-29.87 -19.75)"/>
                <path class="cls-22" d="M620.53,226.59a41.79,41.79,0,0,0-5.11-12.91,25.58,25.58,0,0,0-19.07-11.28c-3.81,2.83-5.32,7.93-5.83,12.66-.92,8.56,2.45,16.77,3.31,25.34.31,3.14.63,6.28.94,9.43,1.38,13.73,1.23,30.84,3.48,44.46-6.23-2.9-16.09-1.37-22.77.23q-11.78,2.84-23.67,5.17a79.09,79.09,0,0,1-15.76,1.95c-2.24,0-4.48-.2-6.73-.25-12.43-.24-24.93.76-34.39,8.83a9.68,9.68,0,0,0,2.25,8.15,15.19,15.19,0,0,0,8.63-2.64c3.37-2.13,6.26-5,9.76-6.9,7.23-3.95,16-3.41,24.2-3.55a128.13,128.13,0,0,0,30-4.08c4.71-1.22,9.38-2.72,14.21-3.27s10-.09,14.15,2.38c3,1.77,5.33,4.44,7.61,7.06a31.58,31.58,0,0,1-4.1-26.3,2.05,2.05,0,0,1,.63-1.14,2.15,2.15,0,0,1,1.4-.26,29.88,29.88,0,0,0,20.75-8.21C625.13,256.34,624.22,241.24,620.53,226.59Z" transform="translate(-29.87 -19.75)"/>
              </g>
              <g>
                <path class="cls-4" d="M612.25,275.15a31,31,0,0,0,13.42-10,151.4,151.4,0,0,0-4.23-38.07c-1.18-4.66-2.65-9.34-5.3-13.36a26.43,26.43,0,0,0-19.73-11.67c-3.94,2.93-5.5,8.21-6,13.1-1,8.85-.07,17.8.82,26.66.33,3.25.66,6.51,1,9.76.83,8.27,1.67,16.55,2.68,24.8A31,31,0,0,0,612.25,275.15Z" transform="translate(-29.87 -19.75)"/>
                <path class="cls-23" d="M612.25,270.43a31,31,0,0,1-18,1.12c.18,1.61.37,3.23.57,4.85a30.51,30.51,0,0,0,30.81-11.22c0-1.57,0-3.13,0-4.69A31,31,0,0,1,612.25,270.43Z" transform="translate(-29.87 -19.75)"/>
              </g>
            </g>
            <g>
              <path class="cls-24" d="M529.35,203.36c2.16,2.49,2.58,6.1,2,9.35s-3.88,5.59-4.94,8.71c-3.09,9.12-1.56,19.59-2,29.21-.31,7.06-.61,14.11-.85,21.18a70.46,70.46,0,0,1-1.31,13.61,46.47,46.47,0,0,1-8.55,17.18c-2.88,3.81-6.26,7.42-10.56,9.52a5.8,5.8,0,0,1-4.08.7,6.21,6.21,0,0,1-2.92-2.43c-6.56-8.56-9.62-20.05-6.84-30.46,1.23-4.6,3.5-8.83,5.75-13,7.25-13.54,14.53-27.57,16-42.85.56-5.76-3.58-11.59-4.39-17.32a7.74,7.74,0,0,1,.13-3.8c.73-1.9,2.74-3,4.62-3.74,3.18-1.34,6.61-2.46,10-2S528.82,200,529.35,203.36Z" transform="translate(-29.87 -19.75)"/>
              <path class="cls-22" d="M531.29,213.17a18,18,0,0,1-14.2,9.55c-.08.92.8,1.59,1.42,2.28,1.37,1.52,1.66,3.72,1.83,5.77,1.43,16.4.35,32.91-.73,49.34a93.59,93.59,0,0,1-1.48,13.05c-.37,1.71-.82,3.38-1.35,5a42.06,42.06,0,0,0,5.52-12.78,70.46,70.46,0,0,0,1.31-13.61c.24-7.07.54-14.12.85-21.18.43-9.62-1.1-20.09,2-29.21C527.46,218.45,530.53,216.19,531.29,213.17Z" transform="translate(-29.87 -19.75)"/>
              <path class="cls-22" d="M526.19,210.37l.19.31A12.15,12.15,0,0,0,512,204.05C516.65,206.61,521,209.08,526.19,210.37Z" transform="translate(-29.87 -19.75)"/>
              <g>
                <g>
                  <path class="cls-24" d="M526,188.55a2.33,2.33,0,0,1,1,0,2,2,0,0,1,.92.74,12.39,12.39,0,0,1,2,5.66c.34,1.84.67,3.68,1,5.52.11.61.09,1.45-.51,1.62a1.23,1.23,0,0,1-1.09-.47c-2.08-2-3.24-4.83-4.93-7.21a2.28,2.28,0,0,0-2.37-1.23c-2.25,0-4.78.33-7,0C517.5,191.05,522.73,188.55,526,188.55Z" transform="translate(-29.87 -19.75)"/>
                  <path class="cls-22" d="M526.32,191a2.67,2.67,0,0,0-.77-1,2.52,2.52,0,0,0-1.46-.3,20.47,20.47,0,0,0-4.46.67,19.52,19.52,0,0,0-4.5,2.82c2.2.37,4.73.05,7,0a2.28,2.28,0,0,1,2.37,1.23c1.69,2.38,2.85,5.17,4.93,7.21a1.23,1.23,0,0,0,1.09.47.63.63,0,0,0,.36-.25A80.46,80.46,0,0,0,526.32,191Z" transform="translate(-29.87 -19.75)"/>
                </g>
                <g>
                  <path class="cls-24" d="M516,192.26a32.19,32.19,0,0,1,6.82-1.28,2.83,2.83,0,0,1,1.61.18,2.74,2.74,0,0,1,.9,1,42.53,42.53,0,0,1,5,11.26c.16.6.23,1.41-.33,1.68a1.2,1.2,0,0,1-.65.07c-2.06-.26-3.48-2.15-4.52-3.94s-2.13-3.79-4.06-4.56a5.56,5.56,0,0,0-4.52.39c-1.52.78-4.1,2.61-4.55-.18C511.25,194.34,514,192.88,516,192.26Z" transform="translate(-29.87 -19.75)"/>
                  <g>
                    <path class="cls-4" d="M528.48,201.55a3.61,3.61,0,0,0,.5,2.2,8.21,8.21,0,0,0,.85,1.39.61.61,0,0,0,.13,0c.56-.27.49-1.08.33-1.68-.29-1-.61-2-1-3A1.67,1.67,0,0,0,528.48,201.55Z" transform="translate(-29.87 -19.75)"/>
                    <path class="cls-22" d="M526.1,199a21.84,21.84,0,0,0-2.63-5.38,2.84,2.84,0,0,0-1-.87,3.11,3.11,0,0,0-1.36-.15,31.05,31.05,0,0,0-8.54,1.64,3.08,3.08,0,0,0-.89,2.68c.45,2.79,3,1,4.55.18a5.56,5.56,0,0,1,4.52-.39c1.93.77,3,2.77,4.06,4.56s2.46,3.68,4.52,3.94h.08A36.53,36.53,0,0,1,526.1,199Z" transform="translate(-29.87 -19.75)"/>
                  </g>
                </g>
                <g>
                  <path class="cls-24" d="M506.66,202.69c-.65-2.26.79-4.7,2.77-5.95a16.31,16.31,0,0,1,6.71-1.92l4-.55a4.27,4.27,0,0,1,1.38,0c1.23.26,1.93,1.52,2.47,2.65l3.58,7.57a3.44,3.44,0,0,1,.45,1.48,1.19,1.19,0,0,1-.83,1.18,1.71,1.71,0,0,1-1.42-.69,33.72,33.72,0,0,1-5.15-6.56,15.75,15.75,0,0,1-4.63,1.47l-6.65,1.53a3.52,3.52,0,0,1-1.44.13C507.41,202.91,506.8,203.15,506.66,202.69Z" transform="translate(-29.87 -19.75)"/>
                  <path class="cls-22" d="M521.81,199a1.64,1.64,0,0,0-.82-.58,1.68,1.68,0,0,0-.8.08q-6.84,1.78-13.59,3.89c0,.11,0,.23.06.35.14.46.75.22,1.22.31a3.52,3.52,0,0,0,1.44-.13l6.65-1.53a15.75,15.75,0,0,0,4.63-1.47,33.72,33.72,0,0,0,5.15,6.56,1.71,1.71,0,0,0,1.42.69,1,1,0,0,0,.54-.36,28.66,28.66,0,0,1-3.73-4.63A25.48,25.48,0,0,0,521.81,199Z" transform="translate(-29.87 -19.75)"/>
                  <path class="cls-4" d="M526,203.14a3.15,3.15,0,0,0,.47,1.58,18.92,18.92,0,0,0,1.26,2.06,1.41,1.41,0,0,0,.32-.84,3.44,3.44,0,0,0-.45-1.48c-.36-.78-.73-1.55-1.1-2.32A1.39,1.39,0,0,0,526,203.14Z" transform="translate(-29.87 -19.75)"/>
                </g>
              </g>
            </g>
          </g>
          <g>
            <g>
              <polygon class="cls-30" points="242.69 340.27 447.29 340.27 564.98 450.32 125.29 450.32 242.69 340.27"/>
              <g>
                <rect class="cls-30" x="125.29" y="450.32" width="439.69" height="29.93"/>
                <rect class="cls-31" x="125.29" y="450.32" width="439.69" height="29.93"/>
              </g>
            </g>
            <rect class="cls-31" x="213.04" y="425.35" width="265.52" height="11.46"/>
            <g>
              <polygon class="cls-4" points="418.98 328.38 291.86 328.38 214.57 425.35 480.1 425.35 418.98 328.38"/>
              <g>
                <polyline class="cls-32" points="410.13 339.42 408.64 336.82 405.64 336.82"/>
                <line class="cls-33" x1="399.58" y1="336.82" x2="305.63" y2="336.82"/>
                <polyline class="cls-32" points="302.6 336.82 299.6 336.82 297.88 339.27"/>
                <line class="cls-34" x1="294.52" y1="344.07" x2="249.18" y2="408.77"/>
                <polyline class="cls-32" points="247.5 411.16 245.78 413.62 248.78 413.62"/>
                <line class="cls-35" x1="254.87" y1="413.62" x2="446.74" y2="413.62"/>
                <polyline class="cls-32" points="449.78 413.62 452.78 413.62 451.29 411.02"/>
                <line class="cls-36" x1="448.12" y1="405.51" x2="411.72" y2="342.17"/>
              </g>
              <g>
                <path class="cls-37" d="M404.64,371.49c1.09,4.83,0,10.12,2,14.66,1.88,4.29,6.09,7,9.27,10.43,3.68,4,6.12,9.5,5,14.8-.94,4.58-4.4,8.35-8.48,10.65s-8.74,3.32-13.37,4.07a138.54,138.54,0,0,1-19.51,1.75c-6,.1-12.11-.21-17.59-2.58s-10.24-7.16-11.11-13.07c-1-6.58,2.92-12.91,7.41-17.81,2.56-2.78,5.45-5.47,6.71-9,1.45-4.06.53-8.54-.4-12.75C378.18,373,391,371.88,404.64,371.49Z" transform="translate(-29.87 -19.75)"/>
                <path class="cls-38" d="M381.28,372.07q-4,18.42-9.16,36.53" transform="translate(-29.87 -19.75)"/>
                <path class="cls-38" d="M386.71,373.68q4,18.38,9.33,36.42" transform="translate(-29.87 -19.75)"/>
                <path class="cls-39" d="M371.13,390.86A35.92,35.92,0,0,0,365.05,401a13.91,13.91,0,0,0-1.21,6.29,6.38,6.38,0,0,0,3.27,5.25,6.24,6.24,0,0,0,5.66-.44,12.25,12.25,0,0,0,4.05-4.2,23.76,23.76,0,0,0,3.62-12.09c0-.87-.08-1.89-1.11-2.19a1.89,1.89,0,0,0-2.2,1.12,17.57,17.57,0,0,0-.21,13.56c1,2.42,2.89,4.84,5.5,5a6.78,6.78,0,0,0,4.63-2,15.94,15.94,0,0,0,4.37-16.34,1.1,1.1,0,0,0-2.08,0c-.71,2.09-.32,4.65.25,6.87.72,2.82,1.65,5.68,4,7.63a6.07,6.07,0,0,0,2.13,1.16c4.81,1.42,8-3.44,8.37-7.8.24-3.24-.55-6.46-1.33-9.61" transform="translate(-29.87 -19.75)"/>
                <g class="cls-6">
                  <path class="cls-37" d="M415.9,396.58c-3.18-3.44-7.39-6.14-9.27-10.43-2-4.54-.9-9.83-2-14.66-13.6.39-26.46,1.48-40.06,1.12a37.86,37.86,0,0,1,1.16,8,29.05,29.05,0,0,1,6.78-1.06,54.67,54.67,0,0,1,10.7-.11,37.17,37.17,0,0,1,7.9,2c8.1,2.89,15.94,8,19.47,15.83a13.48,13.48,0,0,1,0,12.37c-3.18,6.84-9.88,11.6-17.1,13.77s-15,2-22.44,1c-5.79-.76-11.74-2.15-16.84-4.87a20.87,20.87,0,0,0,7.75,5.77c5.48,2.37,11.62,2.68,17.59,2.58a138.54,138.54,0,0,0,19.51-1.75c4.63-.75,9.29-1.77,13.37-4.07s7.54-6.07,8.48-10.65C422,406.08,419.58,400.55,415.9,396.58Z" transform="translate(-29.87 -19.75)"/>
                </g>
                <g>
                  <rect class="cls-40" x="332.08" y="348.12" width="45.51" height="8.83" rx="4.11"/>
                  <g class="cls-41">
                    <path class="cls-42" d="M368,370.61l26.79.64c4.25.11,8.87.38,12.5,2.32a4.2,4.2,0,0,0,.22-1.29,4.42,4.42,0,0,0-4.42-4.41H366.36a4.4,4.4,0,0,0-4.37,4,5.14,5.14,0,0,1,1.62-.89A12.41,12.41,0,0,1,368,370.61Z" transform="translate(-29.87 -19.75)"/>
                  </g>
                </g>
                <g>
                  <rect class="cls-40" x="336.59" y="341.29" width="36.5" height="7.08" rx="3.3"/>
                  <g class="cls-41">
                    <path class="cls-42" d="M371.27,363.23l21.48.52c3.41.08,7.12.3,10,1.86a3.49,3.49,0,0,0-3.37-4.57H370a3.52,3.52,0,0,0-3.5,3.23,4.24,4.24,0,0,1,1.3-.72A10.16,10.16,0,0,1,371.27,363.23Z" transform="translate(-29.87 -19.75)"/>
                  </g>
                </g>
              </g>
              <path class="cls-40" d="M280.56,431.5c0,1.53-2.22,2.78-4.95,2.78s-4.94-1.25-4.94-2.78,2.21-2.78,4.94-2.78S280.56,430,280.56,431.5Z" transform="translate(-29.87 -19.75)"/>
              <path class="cls-40" d="M334.33,356.92c0,1.54-2.22,2.78-4.95,2.78s-4.94-1.24-4.94-2.78,2.21-2.78,4.94-2.78S334.33,355.39,334.33,356.92Z" transform="translate(-29.87 -19.75)"/>
              <path class="cls-40" d="M443.92,356.92c0,1.54-2.21,2.78-4.94,2.78s-5-1.24-5-2.78,2.22-2.78,5-2.78S443.92,355.39,443.92,356.92Z" transform="translate(-29.87 -19.75)"/>
              <path class="cls-40" d="M486.54,433.37c0,1.53-2.22,2.78-5,2.78s-4.94-1.25-4.94-2.78,2.21-2.78,4.94-2.78S486.54,431.83,486.54,433.37Z" transform="translate(-29.87 -19.75)"/>
              <path class="cls-32" d="M415.63,378l15-10.83" transform="translate(-29.87 -19.75)"/>
              <path class="cls-32" d="M420.23,389.15,440,390.58" transform="translate(-29.87 -19.75)"/>
              <path class="cls-32" d="M426.39,404.64a179.27,179.27,0,0,0,18.39,11.72" transform="translate(-29.87 -19.75)"/>
              <path class="cls-32" d="M355.55,374.55l-12.3-6.78" transform="translate(-29.87 -19.75)"/>
              <path class="cls-32" d="M348.72,385.12c-6.83,1.31-13.73,2.29-20.66,2.94" transform="translate(-29.87 -19.75)"/>
              <path class="cls-32" d="M343.52,401l-28,9.8" transform="translate(-29.87 -19.75)"/>
            </g>
          </g>
          <g>
            <g>
              <path class="cls-17" d="M230.59,243.82a141.63,141.63,0,0,1-14.44,17.52c-3.3,3.42-6.89,6.74-11.29,8.54a27.57,27.57,0,0,1-13.64,1.44,45.21,45.21,0,0,1-40-43c-.6-14.08,5.34-27.5,10-40.81,2.18-6.29,4.1-12.66,6.21-19,4.1-12.22,7.94-24,13.91-35.41,2.94-5.62,9.73-13.19,15.88-15.39s12.89-1.71,19.11.1,13.73,3.74,18.4,8.23a30.7,30.7,0,0,1,9,25.28c-.51,4.32-1.95,8.47-3,12.68-2.61,10-3.35,20.34-4.08,30.64l-3.06,43.16C233.31,241.05,232.43,241.17,230.59,243.82Z" transform="translate(-29.87 -19.75)"/>
              <path class="cls-19" d="M235.34,200.64l-.69,7.51c-.6,6.59-1.22,13.23-3.21,19.53.75-4.2,1.13-8.45,1.51-12.7l4.13-46.13c.23-2.47.11-5.28.8-7.67.67,2.81.18,6.28.07,9.14-.23,6-.94,12-1.49,18Q235.91,194.48,235.34,200.64Z" transform="translate(-29.87 -19.75)"/>
              <path class="cls-18" d="M235.2,173.79c-1.92,18.12-.33,36.84-5.9,54.18-2.47,7.69-6.9,15.48-14.38,18.51,3.05-1.39,4.87-4.5,6.51-7.42,2.42-4.32,4.86-8.7,6.13-13.48,1.33-5,1.36-10.18,1.37-15.33,0-10.31,0-20.77-2.62-30.73a90.18,90.18,0,0,1-1.64,36.35c-2.51,9.89-7,19.74-15.09,26,6.2-9.23,9.09-20.37,10-31.46s-.11-22.24-1.11-33.32a95.72,95.72,0,0,1-7.51,46c-2.38,5.49-5.33,10.82-9.51,15.09q1.24-19.9,2.51-39.81c.57-9.08,1.16-18.22,3.43-27s6.37-17.36,13-23.55a24.78,24.78,0,0,1,8.48-5.34c2.12-.75,6.19-2,8.07-.07,1.49,1.5.92,4.38.78,6.25-.29,3.69-.38,7.38-.78,11.07C236.44,164.42,235.7,169.09,235.2,173.79Z" transform="translate(-29.87 -19.75)"/>
              <g class="cls-6">
                <path class="cls-17" d="M170.65,248.24c4.38-3.3,7.31-8.14,9.73-13.05,5.22-10.56,8.6-21.9,12-33.19,1-3.45,1.54-7.24,2.47-10.72,2-7.61-7.2-19.78-6.21-27.6s2.65-15.75,6.81-22.44c-5.47,6.59-8.27,15-9.95,23.4s-2.37,17-4.26,25.34c-2,8.8-5.29,17.23-8.58,25.63,2.57-13.54,5.89-28.82,6.5-42.6.22-4.93,4.19-24.86,7.5-28.52-10.18,11.25-11.43,36.41-13.44,47-3,15.78-12.71,30.41-11.72,46.44-2.85-7.85-2.35-16.56-.56-24.72s4.79-16,6.92-24.08c2.71-10.3,4-21,7.22-31.1a84.41,84.41,0,0,1,15.17-27.92,103.21,103.21,0,0,0-16.85,21.13c-2.11,5.67-4,11.42-6,17.28-2.11,6.31-4,12.68-6.21,19-4.63,13.31-10.57,26.73-10,40.81A45.64,45.64,0,0,0,159.84,253l.38-.09A28.94,28.94,0,0,0,170.65,248.24Z" transform="translate(-29.87 -19.75)"/>
              </g>
            </g>
            <g>
              <g>
                <path class="cls-10" d="M317.58,358c.26.7.44,1.62-.1,2.1s-1.54.05-2.17-.48a41.46,41.46,0,0,1-8.07-8.94c-.83-1.24-2.3-4-.48-5.17,1.55-.95,3.22,1.49,4.16,2.47A30.61,30.61,0,0,1,317.58,358Z" transform="translate(-29.87 -19.75)"/>
                <path class="cls-9" d="M317.17,358c1.66,2.2,3.43,4.83,2.81,7.57a1,1,0,0,1-.39.69c-.31.18-.7,0-1-.21a44.16,44.16,0,0,1-8.56-7.91c-2-2.29-4.12-4.78-4.65-7.87-.27-1.57.22-3,1.84-3.32,1.39-.27,2,.65,2.88,1.71C312.51,351.71,314.82,354.87,317.17,358Z" transform="translate(-29.87 -19.75)"/>
                <path class="cls-10" d="M305.87,347.69a3.13,3.13,0,0,0-.49,2.56c.53,3.09,2.62,5.58,4.65,7.87a44.16,44.16,0,0,0,8.56,7.91c.3.2.69.39,1,.21a1,1,0,0,0,.39-.69,5.05,5.05,0,0,0,.12-1.15A125.71,125.71,0,0,0,305.87,347.69Z" transform="translate(-29.87 -19.75)"/>
                <path class="cls-9" d="M319.4,364.77a8.67,8.67,0,0,1,2.29,4,1.62,1.62,0,0,1-.17,1.17c-.56.79-1.79.34-2.6-.19a50.08,50.08,0,0,1-14.2-14.29c-1.08-1.66-2.62-4.59-.69-6.29s3.65.67,4.69,2.07Q313.86,358.15,319.4,364.77Z" transform="translate(-29.87 -19.75)"/>
                <path class="cls-10" d="M303.17,350.62c-.33,1.62.74,3.58,1.55,4.83a50.08,50.08,0,0,0,14.2,14.29c.81.53,2,1,2.6.19a1.29,1.29,0,0,0,.2-.74C315.55,363,309.93,356.14,303.17,350.62Z" transform="translate(-29.87 -19.75)"/>
                <path class="cls-9" d="M234.18,270.16C244.93,292,263,309.41,276,330c3.07,4.87,5.92,10.09,6.55,15.82.48,4.26-.26,8.81,1.6,12.69a88.18,88.18,0,0,0,9.1,15.73c.25.32.58.68,1,.63s.69-.78.68-1.32c-.05-5.86-2.85-11.73-1.32-17.39,4.8,2.81,8.6,7,13,10.46s9.9,6.14,15.37,5.12l-16.65-18.52a9.31,9.31,0,0,0,3.75-7.2c-13.9-12.67-23.23-31.09-32-47.73q-8.69-16.41-17.35-32.84c-1.49-2.84-3.07-5.76-5.63-7.7a11.22,11.22,0,0,0-11.73-.93C238.68,258.79,232.36,266.45,234.18,270.16Z" transform="translate(-29.87 -19.75)"/>
                <path class="cls-10" d="M287.67,345.94c1.6-3.78,6.12-6.12,6.59-10.19-2.93,1.71-6.83.77-9.5-1.33s-4.4-5.14-6.14-8.06a229.33,229.33,0,0,0-15-22.22c-5.12-6.7-10.69-13.26-13.84-21.08a4.8,4.8,0,0,1-.47-2.89,5.06,5.06,0,0,1,1.19-1.95l9.81-11.59c-.2-.38-.4-.77-.61-1.15-1.49-2.84-3.07-5.76-5.63-7.7a11.22,11.22,0,0,0-11.73-.93c-3.66,1.94-10,9.6-8.16,13.31C244.93,292,263,309.41,276,330c3.07,4.87,5.92,10.09,6.55,15.82.48,4.26-.26,8.81,1.6,12.69a93.91,93.91,0,0,0,7.94,14.12A62.86,62.86,0,0,1,287,352.39,13.77,13.77,0,0,1,287.67,345.94Z" transform="translate(-29.87 -19.75)"/>
                <path class="cls-10" d="M311.14,366.19c-2-1.55-3.83-3.24-5.68-4.93l-6.7-6.12a4,4,0,0,0-2.24-1.28c-1.33-.1-2.41,1.23-2.56,2.57,4.63,2.8,8.36,6.88,12.63,10.22,4,3.14,9,5.68,14,5.29A48.65,48.65,0,0,1,311.14,366.19Z" transform="translate(-29.87 -19.75)"/>
                <g class="cls-43">
                  <path class="cls-4" d="M317.9,370.66a8.42,8.42,0,0,0,1.41,1.32,12.52,12.52,0,0,0,2.65-.21l-4.85-5.39C316.26,367.67,316.89,369.46,317.9,370.66Z" transform="translate(-29.87 -19.75)"/>
                  <path class="cls-4" d="M292.08,370a2.59,2.59,0,0,0-1.82-.09c.92,1.47,1.9,2.92,3,4.36.25.32.58.68,1,.63s.68-.76.68-1.3l-.22-.44A6.51,6.51,0,0,0,292.08,370Z" transform="translate(-29.87 -19.75)"/>
                </g>
                <g class="cls-43">
                  <path class="cls-4" d="M319,366.31a4,4,0,0,0,1,1.76,14.69,14.69,0,0,0,1.65,1.6,1.86,1.86,0,0,0,0-.91,8.67,8.67,0,0,0-2.29-4l-.07-.09A2.29,2.29,0,0,0,319,366.31Z" transform="translate(-29.87 -19.75)"/>
                </g>
              </g>
              <path class="cls-4" d="M217.33,208q5.35,2.55,10.54,5.44c4.21,2.34,8.4,4.9,11.61,8.51,2.82,3.18,4.75,7,6.66,10.83q7,14,14,28c-1.72,3-4.63,5.1-7.41,7.11-5.13,3.69-10.36,7.44-16.35,9.47-2.63-2.47-4.49-6.19-6-9.46l-5.14-11.1c-3.4-7.34-6.82-14.74-8.81-22.58A52.52,52.52,0,0,1,217.33,208Z" transform="translate(-29.87 -19.75)"/>
              <g class="cls-6">
                <path class="cls-23" d="M235.73,242.79a105.73,105.73,0,0,0-12.19-31.72c-2.06-1.07-4.12-2.12-6.21-3.11a52.52,52.52,0,0,0-.88,26.26c2,7.84,5.41,15.24,8.81,22.58l5.14,11.1c1.4,3,3.09,6.39,5.4,8.83A84.88,84.88,0,0,0,235.73,242.79Z" transform="translate(-29.87 -19.75)"/>
              </g>
            </g>
            <g>
              <path class="cls-4" d="M208.42,329.24A21.47,21.47,0,0,0,211.88,312a14.26,14.26,0,0,1-.55-2.87c-.08-2.38,1.33-4.51,2.67-6.47,7-10.22,13.75-21,16.4-33.06,3.83-17.46-1.28-35.51-6.47-52.61a11.85,11.85,0,0,0-8.22-9.49c-10.78-5.08-21-10.36-31.79-15.44l-24.35,3.52a18.32,18.32,0,0,0-6.5,1.78c-4.89,2.77-6.15,9.17-6.56,14.78-1.58,21.6,1.66,43.26,1.37,64.91-.11,7.41-.62,14.82-1.14,22.21l-1.65,23.78c13.22,7.66,28.82,11.94,43.94,9.73C195.51,331.84,202,330.41,208.42,329.24Z" transform="translate(-29.87 -19.75)"/>
              <g class="cls-6">
                <path class="cls-23" d="M185,210.35a32.61,32.61,0,0,0,23,7.29,28,28,0,0,0,14-5.33,9,9,0,0,0-.85-1.2,15.9,15.9,0,0,0-5.49-3.59c-10.78-5.08-21-10.36-31.79-15.44L173,193.66A40,40,0,0,0,185,210.35Z" transform="translate(-29.87 -19.75)"/>
              </g>
              <path class="cls-25" d="M192.7,269.61c4.81-1,9.37-3.5,14.29-3.42,3.78.07,7.38,1.66,11.15,1.95a16.42,16.42,0,0,0,11.13-3.31,32.89,32.89,0,0,1-19,12.11,64.83,64.83,0,0,1-14,1,39.94,39.94,0,0,1-8.33-.57,24.15,24.15,0,0,1-12.63-7.58,29.71,29.71,0,0,1-4.86-7.08C175.74,268.72,185.06,271.23,192.7,269.61Z" transform="translate(-29.87 -19.75)"/>
              <g class="cls-6">
                <path class="cls-23" d="M191.29,314.84a27.17,27.17,0,0,0,21-.7c-.09-.71-.21-1.42-.37-2.12a14.26,14.26,0,0,1-.55-2.87c-.08-2.38,1.33-4.51,2.67-6.47,5.65-8.25,11.14-16.86,14.44-26.23-5.09,8.48-11.49,16.28-17.82,23.94C205.37,306.73,199.41,313.5,191.29,314.84Z" transform="translate(-29.87 -19.75)"/>
                <path class="cls-23" d="M169.91,326.2a48.51,48.51,0,0,1-10-3.54,16.22,16.22,0,0,1-8.11-8.19,23.64,23.64,0,0,1-1.31-7.39c-.83-13.8.23-27.93,1.75-41.57.4-3.51.51-7.13,1.94-10.36,1.18-2.66,3.17-4.86,4.86-7.23,7.36-10.34,8.87-23.86,7.52-36.48-.4-3.73-1.08-7.58-3.22-10.67a9.88,9.88,0,0,0-7.77-4.4,10.83,10.83,0,0,0-2.5,1c-4.89,2.77-6.15,9.17-6.56,14.78-1.58,21.6,1.66,43.26,1.37,64.91-.11,7.41-.62,14.82-1.14,22.21l-1.65,23.78c13.22,7.66,28.82,11.94,43.94,9.73,6.48-1,12.95-2.38,19.39-3.55a21,21,0,0,0,2.84-5.54,28.23,28.23,0,0,1-6,1.9C194.08,328.09,181.4,329,169.91,326.2Z" transform="translate(-29.87 -19.75)"/>
              </g>
            </g>
            <g>
              <g>
                <path class="cls-9" d="M140.41,355.93a4.66,4.66,0,0,1-1.29,1.29,1.64,1.64,0,0,1-1.73,0,2.25,2.25,0,0,1-.53-2.28,20.2,20.2,0,0,1,1.76-4.8c2.15-4.57,4.72-9.54,9-12.49,1.83-1.25,4.27-.4,3.17,2a67.59,67.59,0,0,1-4.54,7.86Q143.51,351.88,140.41,355.93Z" transform="translate(-29.87 -19.75)"/>
                <path class="cls-10" d="M146.63,338.45c-3.68,3-6,7.52-8,11.72a20.2,20.2,0,0,0-1.76,4.8,2.25,2.25,0,0,0,.53,2.28,1.64,1.64,0,0,0,1.73,0,4.66,4.66,0,0,0,1.29-1.29c.69-.9,1.35-1.83,2-2.75.35-.9.64-1.83.93-2.76C144.57,346.47,145.77,342.49,146.63,338.45Z" transform="translate(-29.87 -19.75)"/>
              </g>
              <g>
                <path class="cls-9" d="M140.94,351.73c-1.2,2.7-2.48,5.51-4.76,7.36a2.49,2.49,0,0,1-1.24.63,2.55,2.55,0,0,1-1.18-.21,10.34,10.34,0,0,1-6.35-7.43c1.67-.38,3.49.51,5.1-.1a5.41,5.41,0,0,0,1.77-1.31,31.9,31.9,0,0,0,3.25-3.81c2-2.84,3.71-6.13,6.6-8.08,3.92-2.64,1.27,2.9.65,4.3Z" transform="translate(-29.87 -19.75)"/>
                <path class="cls-10" d="M134.53,356.67a8.88,8.88,0,0,0,1.74-1.67,37.41,37.41,0,0,0,7.93-16.26l-.07,0c-2.89,2-4.56,5.24-6.6,8.08a31.9,31.9,0,0,1-3.25,3.81,5.41,5.41,0,0,1-1.77,1.31c-1.61.61-3.43-.28-5.1.1a10.26,10.26,0,0,0,2.85,5.14l.11,0A4.9,4.9,0,0,0,134.53,356.67Z" transform="translate(-29.87 -19.75)"/>
              </g>
              <g>
                <path class="cls-9" d="M122.73,347.52a3.19,3.19,0,0,0,1,1.43,55.53,55.53,0,0,0,6.94,6.34,2.07,2.07,0,0,0,1,.48,2.22,2.22,0,0,0,1.52-.83c3.77-3.73,7.68-7.66,9.29-12.71.42-1.32.52-3.08-.67-3.79a2.34,2.34,0,0,0-2.25.09,6.62,6.62,0,0,0-1.75,1.55l-4.06,4.49a4.79,4.79,0,0,1-5.32,2.19C127.28,346.62,122.15,345.11,122.73,347.52Z" transform="translate(-29.87 -19.75)"/>
                <path class="cls-10" d="M131,351.2a5.19,5.19,0,0,0,3-1.69,28.1,28.1,0,0,0,7.17-11.28,2.6,2.6,0,0,0-1.61.3,6.62,6.62,0,0,0-1.75,1.55l-4.06,4.49a4.79,4.79,0,0,1-5.32,2.19c-1.15-.14-6.28-1.65-5.7.76a2,2,0,0,0,.29.64c1.83.89,3.68,1.74,5.57,2.5A5.72,5.72,0,0,0,131,351.2Z" transform="translate(-29.87 -19.75)"/>
                <path class="cls-4" d="M126.84,350.73a5.07,5.07,0,0,0-1.93-1.68c-.63-.36-1.28-.68-1.94-1a5.43,5.43,0,0,0,.72.88c1.12,1.14,2.25,2.29,3.42,3.39A2.27,2.27,0,0,0,126.84,350.73Z" transform="translate(-29.87 -19.75)"/>
              </g>
              <g>
                <path class="cls-9" d="M152.08,336.54c2.37-10.09-1.05-20.67-5.83-29.87S135.3,289,131.52,279.31a4.32,4.32,0,0,1-.39-1.57,4.49,4.49,0,0,1,.82-2.19l6.9-11.65c2-3.29,4-6.92,3.45-10.71a15,15,0,0,0-2.05-5.24,58.9,58.9,0,0,0-9.69-12.68c-1.39-1.38.43-2.73-1.44-3.34s-3.94-.43-5.17,1.1c-9.2,11.44-14.46,22.58-20.6,35.92a8,8,0,0,0,.34,9.25c8.06,14.23,18.92,26.17,30.34,37.88,4.29,4.41,2.17,11.63,3.53,17.63-2.25,3.09-4.72,6.2-7,9.3a13.44,13.44,0,0,0-9.15,1.19c-.75.4-1.56,1.05-1.47,1.9a81.76,81.76,0,0,0,8,3.29,4.68,4.68,0,0,0,1.94.37,4.46,4.46,0,0,0,2.2-1.12,29.76,29.76,0,0,0,6.57-7.32c.22-.35.48-.74.89-.82a1.64,1.64,0,0,1,1,.28,8.34,8.34,0,0,0,6.12.76C148.71,341,151.6,338.59,152.08,336.54Z" transform="translate(-29.87 -19.75)"/>
                <path class="cls-10" d="M146.25,306.67c-4.77-9.2-10.95-17.7-14.73-27.36a4.32,4.32,0,0,1-.39-1.57,4.49,4.49,0,0,1,.82-2.19l6.9-11.65c2-3.29,4-6.92,3.45-10.71a15,15,0,0,0-2.05-5.24,58.9,58.9,0,0,0-9.69-12.68c-1.39-1.38.43-2.73-1.44-3.34s-3.94-.43-5.17,1.1c-1.93,2.4-6.38,8.53-8.18,11,4.38,4.52,12.58,14.53,17,19.05.88.9-1.4,5.54-2.4,9.59a35.92,35.92,0,0,0-18.87,1.21c5,.91,10.27,1.9,14.46,4.85s11.94,21.91,14.89,27c3.68,6.3,7.41,12.73,9.07,19.84a74.57,74.57,0,0,1,1.29,8.56c.13,1.2.26,2.4.4,3.59a4.29,4.29,0,0,0,.52-1.17C154.45,326.45,151,315.87,146.25,306.67Z" transform="translate(-29.87 -19.75)"/>
                <path class="cls-10" d="M130,344.39a1.05,1.05,0,0,0,.52.08.94.94,0,0,0,.49-.39q2.92-3.52,5.71-7.18a3.71,3.71,0,0,0,1.06-2.56,1.8,1.8,0,0,0-.19-.62c-2.24,3.09-4.72,6.19-7,9.29a13.44,13.44,0,0,0-9.15,1.19,3.59,3.59,0,0,0-.77.52A14.1,14.1,0,0,1,130,344.39Z" transform="translate(-29.87 -19.75)"/>
                <path class="cls-4" d="M123.46,345.4A3.32,3.32,0,0,0,120,346a.4.4,0,0,1,0,.11c1.87.88,3.77,1.67,5.7,2.41A3.9,3.9,0,0,0,123.46,345.4Z" transform="translate(-29.87 -19.75)"/>
              </g>
            </g>
            <path class="cls-4" d="M144.28,203.35c-9.92,9-19,19-28.12,28.92a3.59,3.59,0,0,0-1.23,2.46,3.4,3.4,0,0,0,.94,1.83l24.95,30.16c11.84-8.94,18.12-24.49,22.05-39.69,2.1-8.17,4.37-19.1-.44-26.51C157.13,192.36,149.88,198.3,144.28,203.35Z" transform="translate(-29.87 -19.75)"/>
            <g>
              <g>
                <path class="cls-9" d="M219.52,209.25c-2.84-1.63-6-3.62-6.64-6.81a11.71,11.71,0,0,1,.33-4.88l1.34-6.35a15.83,15.83,0,0,0,.51-4.93,13.35,13.35,0,0,0-1-3.52c-2.48-6.19-6.25-11.77-10-17.3-1.44-2.13-2.94-4.32-5.12-5.7a9.7,9.7,0,0,0-9.1-.25,80,80,0,0,1-.51,24.61,11.65,11.65,0,0,1-1.3,4.1c-1.6,2.62-4.82,3.66-7.76,4.52a20,20,0,0,0,7.52,12.71C196.12,212.22,209.47,213.05,219.52,209.25Z" transform="translate(-29.87 -19.75)"/>
                <path class="cls-10" d="M213.56,195.91l1-4.7a15.83,15.83,0,0,0,.51-4.93,13.35,13.35,0,0,0-1-3.52c-2.48-6.19-6.25-11.77-10-17.3-1.44-2.13-2.94-4.32-5.12-5.7a9.7,9.7,0,0,0-9.1-.25,80.83,80.83,0,0,1,.53,16,42.63,42.63,0,0,0,7.1,11.14A28.68,28.68,0,0,0,213.56,195.91Z" transform="translate(-29.87 -19.75)"/>
              </g>
              <g>
                <g>
                  <path class="cls-9" d="M203.81,136.53c-4,5.33-8,10.81-10.41,17-2.11,5.43-2.92,11.53-1.24,17.11a30.56,30.56,0,0,0,2,4.92c2.37,4.74,5.4,9.31,9.69,12.42s10,4.59,15,2.82c3.94-1.38,7-4.55,9.44-7.92a49.57,49.57,0,0,0,7.26-14.43c1.45-4.65,2.23-9.55,3.81-14.13a13.61,13.61,0,0,0-1.35-11.72,35.19,35.19,0,0,0-5.33-6.48,47.87,47.87,0,0,0-13.52-8.82,10.14,10.14,0,0,0-5.5-1.23c-2.51.38-4.4,2.43-5.81,4.53S205.24,134.61,203.81,136.53Z" transform="translate(-29.87 -19.75)"/>
                  <path class="cls-10" d="M238.09,142.64a35.19,35.19,0,0,0-5.33-6.48,47.87,47.87,0,0,0-13.52-8.82,10.14,10.14,0,0,0-5.5-1.23c-2.51.38-4.4,2.43-5.81,4.53s-2.69,4-4.12,5.89c-4,5.33-8,10.81-10.41,17a31.28,31.28,0,0,0-2,7.85,8.88,8.88,0,0,0,4.49-.12,15.61,15.61,0,0,0,7.21-5.21c4.44-5.24,7.08-11.8,8.77-18.46,2.91,7.23,10.16,11.56,17.47,14.28a36.42,36.42,0,0,0,10.09,2.41A13.67,13.67,0,0,0,238.09,142.64Z" transform="translate(-29.87 -19.75)"/>
                  <g>
                    <path class="cls-10" d="M227.91,157.85a5.31,5.31,0,0,1,.8-1.68,3.94,3.94,0,0,1,3-1.27,28,28,0,0,1,3.39.34,1.58,1.58,0,0,1,1,.32c.46.48,2.24,1.45,1.84,2-1,1.27-4.36,0-7.28,2.84-2.07,2-2.84,6.42-3.44,6.84-1.41,1-.62-.7-.82-3.25C226.25,162,227.31,159.69,227.91,157.85Z" transform="translate(-29.87 -19.75)"/>
                    <path class="cls-10" d="M217.46,150.25a2.36,2.36,0,0,1,1.95.84,1.88,1.88,0,0,1,.23,1c0,2.56-1.84,4.75-3.87,6.31a1,1,0,0,1-.46.23c-.44,0-.65-.52-.79-.94a6.92,6.92,0,0,0-2.58-3.1,20.09,20.09,0,0,1-3.18-2.55C210.56,150.21,215.1,150.09,217.46,150.25Z" transform="translate(-29.87 -19.75)"/>
                    <path class="cls-14" d="M208.41,152.22c3.09-2.19,7.22-2.12,11-1.55" transform="translate(-29.87 -19.75)"/>
                    <path class="cls-14" d="M232.67,154.93c1.56,0,4.46,1.28,5.28,2.61" transform="translate(-29.87 -19.75)"/>
                    <g>
                      <path class="cls-11" d="M212.3,158.33c-.74,1.41-.73,2.87,0,3.27s2-.42,2.7-1.83.74-2.87,0-3.27S213,156.93,212.3,158.33Z" transform="translate(-29.87 -19.75)"/>
                      <path class="cls-11" d="M215.32,157.11c.75.93,2.39,0,3.13-.84a3.84,3.84,0,0,1-2.48,2.67,2.72,2.72,0,0,1-1.61-.08l1-1.75Z" transform="translate(-29.87 -19.75)"/>
                    </g>
                    <g>
                      <path class="cls-11" d="M232.74,162.16c.75.93,2.39,0,3.13-.83a3.83,3.83,0,0,1-2.48,2.66,2.63,2.63,0,0,1-1.61-.07l1-1.76Z" transform="translate(-29.87 -19.75)"/>
                      <path class="cls-11" d="M229.86,163.6c-.75,1.41-.74,2.87,0,3.27s2-.43,2.71-1.83.73-2.87,0-3.27S230.6,162.19,229.86,163.6Z" transform="translate(-29.87 -19.75)"/>
                    </g>
                    <path class="cls-13" d="M212.38,168.62c-.88,1.67-4,1.73-7.06.13s-4.74-4.23-3.87-5.89,4-1.73,7.06-.14S213.26,167,212.38,168.62Z" transform="translate(-29.87 -19.75)"/>
                    <g>
                      <path class="cls-27" d="M209.57,180.22a5.67,5.67,0,0,0,1.31,3.46,5.06,5.06,0,0,0,5.38,1.11,7.6,7.6,0,0,0,4.05-4,5.53,5.53,0,0,0,.36-4.49,6,6,0,0,0-3.46-2.85,6.77,6.77,0,0,0-3.28-.57C210.53,173.32,209.39,177.32,209.57,180.22Z" transform="translate(-29.87 -19.75)"/>
                      <path class="cls-44" d="M220.93,180.14a4.93,4.93,0,0,1-1.69,1.34,8.55,8.55,0,0,1-3.17,1.16,5.83,5.83,0,0,1-4.52-1.58,7.22,7.22,0,0,1-2.12-4.35,2.87,2.87,0,0,1,.86-2.79,2.7,2.7,0,0,1,2.64.06c2,1,3.44,3.09,5.63,3.41.72.1,2.07-.13,2.6.5S221.28,179.64,220.93,180.14Z" transform="translate(-29.87 -19.75)"/>
                      <path class="cls-4" d="M214.93,178.41a10.14,10.14,0,0,0,6.44.14,1.11,1.11,0,0,0-.21-.66c-.53-.63-1.88-.4-2.6-.5-2.19-.32-3.64-2.44-5.63-3.41a2.7,2.7,0,0,0-2.64-.06l0,0A8.3,8.3,0,0,0,214.93,178.41Z" transform="translate(-29.87 -19.75)"/>
                    </g>
                    <path class="cls-10" d="M224,171a5.76,5.76,0,0,1-3.45-2.28c-.13-.19-.31-.41-.54-.37s-.32.5-.24.82a18.7,18.7,0,0,0,1.58,3.92c1.65-.27,4.1-1,5.2-2.05,0,0,.09-.1.14-.15A5.7,5.7,0,0,1,224,171Z" transform="translate(-29.87 -19.75)"/>
                    <path class="cls-15" d="M230.14,154.43A14.19,14.19,0,0,0,227,168.18a3.21,3.21,0,0,1,.24,1.94,2.47,2.47,0,0,1-.65.89c-1.19,1.14-3.94,1.89-5.58,2.11" transform="translate(-29.87 -19.75)"/>
                    <path class="cls-13" d="M233.51,169.49c-3.36.59-5.82,2.56-5.5,4.42.25,1.42,2.05,2.36,4.39,2.46a49.87,49.87,0,0,0,2.95-7A11.84,11.84,0,0,0,233.51,169.49Z" transform="translate(-29.87 -19.75)"/>
                  </g>
                </g>
                <g>
                  <path class="cls-17" d="M191.39,157.31c2,1.79,5.18,1.6,7.46.22s3.8-3.72,5.08-6.06A53,53,0,0,0,210.28,131a42.23,42.23,0,0,0,29.9,21.37,22.79,22.79,0,0,0-3.05-17.68c-2.62-3.82-6.36-6.73-10.23-9.28a27.08,27.08,0,0,0-4.5-2.49c-6.26-2.57-13.65-.83-19.23,3s-9.62,9.47-13.17,15.23a14.4,14.4,0,0,0-2.27,5.17,12.15,12.15,0,0,0,.07,3.51A12.55,12.55,0,0,0,191.39,157.31Z" transform="translate(-29.87 -19.75)"/>
                  <path class="cls-18" d="M206.71,118.74a15.5,15.5,0,0,0-15.71,8.7,27.1,27.1,0,0,1,12.09-6.23c-4.79,4.11-8.34,10.1-8.09,16.41a100,100,0,0,1,8.36-14c-1.33,7.8-3.09,15.8-7.72,22.22a23.24,23.24,0,0,0,7.69-10.75c1.58-4.17,3.55-9,4.3-13.36a51.81,51.81,0,0,0,12.51,11.38A134.21,134.21,0,0,0,210.06,121a47.09,47.09,0,0,1,17.08,13.55c-3.57-5.81-7.82-11.66-14-14.45A61.41,61.41,0,0,1,227,127.74a27.83,27.83,0,0,0-8.62-7.44C215,118.55,210.5,119.24,206.71,118.74Z" transform="translate(-29.87 -19.75)"/>
                  <g class="cls-6">
                    <path class="cls-17" d="M208.5,124.56a70.93,70.93,0,0,1-6.24,22,24.82,24.82,0,0,1-4.23,6.68,10.85,10.85,0,0,1-6.91,3.55h-.23c.17.17.32.34.5.5,2,1.79,5.18,1.6,7.46.21s3.8-3.71,5.08-6.05A53,53,0,0,0,210.28,131a42.23,42.23,0,0,0,29.9,21.37,23.92,23.92,0,0,0,.51-3.27,38.6,38.6,0,0,1-16-7.38C218.41,137,213.33,130.81,208.5,124.56Z" transform="translate(-29.87 -19.75)"/>
                  </g>
                  <g class="cls-6">
                    <path class="cls-17" d="M232.7,129.1a43.28,43.28,0,0,1,5.68,14.31,44.51,44.51,0,0,0-10-11,129.1,129.1,0,0,1,7.95,12.22l-9.6-5.82A27.87,27.87,0,0,0,241.5,148a28.87,28.87,0,0,0-1.63-10.38A31.61,31.61,0,0,0,232.7,129.1Z" transform="translate(-29.87 -19.75)"/>
                  </g>
                  <path class="cls-19" d="M228.71,137.13l-5-9.36a44.82,44.82,0,0,1,7.86,6.12,34.76,34.76,0,0,0-6.66-10.72c4.85,3.49,7.8,9,10.46,14.33a25.85,25.85,0,0,0-8.32-5.71,37,37,0,0,1,4.75,7.71,46.59,46.59,0,0,1-9.58-4.91,27.15,27.15,0,0,0,9.46,10.1,18.48,18.48,0,0,1-9.09-7.31c-1.82-2.66-4.41-7-4.51-10.21,1.36,1.07,2.26,2.76,3.46,4C223.34,133.1,227.57,135,228.71,137.13Z" transform="translate(-29.87 -19.75)"/>
                  <path class="cls-19" d="M197.37,124.47c-3.78,4.74-4.75,11.07-5.58,17.09A41.37,41.37,0,0,0,200,131q-4.09,9.12-8.52,18.09c6.47-1.9,10.94-7.9,13.51-14.14a24.84,24.84,0,0,1-6.55,12.74c-2.83,2.92-6.36,5.13-8.89,8.31a28.56,28.56,0,0,0-4.44,9c-3,9.2-4.21,18.9-5.35,28.52a145.08,145.08,0,0,1,2-23.82,41.15,41.15,0,0,1,3.12-11.16c1.69-3.49,6.48-12.12,9.12-16.64l-5.84,5.56q1.74-6.15,3.5-12.3a51.85,51.85,0,0,0-11.3,17c-4.45,10.83-5.09,22.8-8.07,34.12.62-10.61,1.28-21.44,5.21-31.31,2.75-6.9,7-13.08,11.21-19.19l5.82-8.46a50.92,50.92,0,0,0-15,14.32c2.13-3.1,4-6.71,6.68-9.33A43.25,43.25,0,0,1,197.37,124.47Z" transform="translate(-29.87 -19.75)"/>
                </g>
                <g>
                  <path class="cls-10" d="M189.85,168.14a3,3,0,0,1-1.13-1.1,14.37,14.37,0,0,1-2.47-8.7,7.89,7.89,0,0,1,2.2-5.55c1.51-1.39,4.07-1.72,5.57-.33,1.35,1.24,1.44,3.33,1.23,5.16S193.57,169.77,189.85,168.14Z" transform="translate(-29.87 -19.75)"/>
                  <path class="cls-20" d="M188.68,157.37a6.28,6.28,0,0,0-.06,3.93c.23,1,.69,2.2,1.71,2.44a2,2,0,0,0,1.78-.61c1-1,2.31-4.86,1.7-6.33C192.84,154.46,189.51,155.52,188.68,157.37Z" transform="translate(-29.87 -19.75)"/>
                  <path class="cls-9" d="M194,152.46a4.12,4.12,0,0,0-4.88-.18,3.76,3.76,0,0,1,.88.09A4.24,4.24,0,0,1,193,155a2.19,2.19,0,0,1-.76,2.77,8.53,8.53,0,0,1-1.16.27,2.31,2.31,0,0,0-1.54,1.38c-.27.67,0,1.65.7,1.75.35,0,.7-.14,1-.08a1.33,1.33,0,0,1,.88.86,4.75,4.75,0,0,1-.14,4.19,4.82,4.82,0,0,1-2.19,2l0,0c3.72,1.63,5.18-8.64,5.4-10.52S195.37,153.7,194,152.46Z" transform="translate(-29.87 -19.75)"/>
                </g>
              </g>
            </g>
          </g>
        </g>
      </g>
    </g>
  </g>
</svg>
