<svg id="Layer_1" data-name="Layer 1" xmlns="http://www.w3.org/2000/svg" viewBox="0 0 266.71 293.48">
  <defs>
    <style>
      .cls-1 {
        fill: #ffae01;
      }

      .cls-2 {
        fill: #fff;
      }

      .cls-3 {
        fill: #ff6d00;
      }

      .cls-4 {
        fill: #ff827c;
      }

      .cls-5 {
        fill: #404add;
      }

      .cls-6 {
        fill: #6893e6;
      }

      .cls-7 {
        fill: #0d005a;
      }

      .cls-8 {
        fill: #e43d4e;
      }
    </style>
  </defs>
  <g>
    <g>
      <g>
        <rect class="cls-1" x="136.27" y="273.24" width="122.81" height="15.48"/>
        <g>
          <path class="cls-2" d="M233.11,321.56a.32.32,0,0,1-.32-.32v-8a.32.32,0,0,1,.63,0v8A.31.31,0,0,1,233.11,321.56Z" transform="translate(-89.21 -36.27)"/>
          <path class="cls-2" d="M241.36,321.56a.31.31,0,0,1-.31-.32v-8a.32.32,0,0,1,.63,0v8A.32.32,0,0,1,241.36,321.56Z" transform="translate(-89.21 -36.27)"/>
          <path class="cls-2" d="M249.62,321.56a.32.32,0,0,1-.32-.32v-8a.32.32,0,0,1,.63,0v8A.31.31,0,0,1,249.62,321.56Z" transform="translate(-89.21 -36.27)"/>
          <path class="cls-2" d="M257.87,321.56a.31.31,0,0,1-.31-.32v-8a.32.32,0,0,1,.63,0v8A.32.32,0,0,1,257.87,321.56Z" transform="translate(-89.21 -36.27)"/>
          <path class="cls-2" d="M266.13,321.56a.32.32,0,0,1-.32-.32v-8a.32.32,0,0,1,.63,0v8A.31.31,0,0,1,266.13,321.56Z" transform="translate(-89.21 -36.27)"/>
          <path class="cls-2" d="M274.38,321.56a.31.31,0,0,1-.31-.32v-8a.32.32,0,0,1,.63,0v8A.32.32,0,0,1,274.38,321.56Z" transform="translate(-89.21 -36.27)"/>
          <path class="cls-2" d="M282.64,321.56a.32.32,0,0,1-.32-.32v-8a.32.32,0,0,1,.63,0v8A.31.31,0,0,1,282.64,321.56Z" transform="translate(-89.21 -36.27)"/>
          <path class="cls-2" d="M290.89,321.56a.32.32,0,0,1-.32-.32v-8a.32.32,0,0,1,.32-.31.31.31,0,0,1,.32.31v8A.32.32,0,0,1,290.89,321.56Z" transform="translate(-89.21 -36.27)"/>
          <path class="cls-2" d="M299.14,321.56a.31.31,0,0,1-.31-.32v-8a.32.32,0,0,1,.63,0v8A.32.32,0,0,1,299.14,321.56Z" transform="translate(-89.21 -36.27)"/>
          <path class="cls-2" d="M307.4,321.56a.32.32,0,0,1-.32-.32v-8a.31.31,0,0,1,.32-.31.32.32,0,0,1,.32.31v8A.32.32,0,0,1,307.4,321.56Z" transform="translate(-89.21 -36.27)"/>
          <path class="cls-2" d="M315.65,321.56a.31.31,0,0,1-.31-.32v-8a.32.32,0,0,1,.63,0v8A.32.32,0,0,1,315.65,321.56Z" transform="translate(-89.21 -36.27)"/>
          <path class="cls-2" d="M323.91,321.56a.32.32,0,0,1-.32-.32v-8a.32.32,0,0,1,.63,0v8A.31.31,0,0,1,323.91,321.56Z" transform="translate(-89.21 -36.27)"/>
          <path class="cls-2" d="M332.16,321.56a.31.31,0,0,1-.31-.32v-8a.32.32,0,0,1,.63,0v8A.32.32,0,0,1,332.16,321.56Z" transform="translate(-89.21 -36.27)"/>
          <path class="cls-2" d="M340.42,321.56a.32.32,0,0,1-.32-.32v-8a.32.32,0,0,1,.63,0v8A.31.31,0,0,1,340.42,321.56Z" transform="translate(-89.21 -36.27)"/>
        </g>
      </g>
      <g>
        <rect class="cls-1" x="126.26" y="242.28" width="122.81" height="15.48"/>
        <g>
          <path class="cls-2" d="M223.1,290.6a.32.32,0,0,1-.32-.32v-8a.32.32,0,0,1,.63,0v8A.31.31,0,0,1,223.1,290.6Z" transform="translate(-89.21 -36.27)"/>
          <path class="cls-2" d="M231.35,290.6a.32.32,0,0,1-.32-.32v-8a.32.32,0,0,1,.64,0v8A.32.32,0,0,1,231.35,290.6Z" transform="translate(-89.21 -36.27)"/>
          <path class="cls-2" d="M239.61,290.6a.32.32,0,0,1-.32-.32v-8a.32.32,0,0,1,.63,0v8A.31.31,0,0,1,239.61,290.6Z" transform="translate(-89.21 -36.27)"/>
          <path class="cls-2" d="M247.86,290.6a.32.32,0,0,1-.32-.32v-8a.32.32,0,0,1,.64,0v8A.32.32,0,0,1,247.86,290.6Z" transform="translate(-89.21 -36.27)"/>
          <path class="cls-2" d="M256.11,290.6a.31.31,0,0,1-.31-.32v-8a.32.32,0,0,1,.63,0v8A.32.32,0,0,1,256.11,290.6Z" transform="translate(-89.21 -36.27)"/>
          <path class="cls-2" d="M264.37,290.6a.32.32,0,0,1-.32-.32v-8a.31.31,0,0,1,.32-.31.32.32,0,0,1,.32.31v8A.32.32,0,0,1,264.37,290.6Z" transform="translate(-89.21 -36.27)"/>
          <path class="cls-2" d="M272.62,290.6a.31.31,0,0,1-.31-.32v-8a.32.32,0,0,1,.63,0v8A.32.32,0,0,1,272.62,290.6Z" transform="translate(-89.21 -36.27)"/>
          <path class="cls-2" d="M280.88,290.6a.32.32,0,0,1-.32-.32v-8a.32.32,0,0,1,.63,0v8A.31.31,0,0,1,280.88,290.6Z" transform="translate(-89.21 -36.27)"/>
          <path class="cls-2" d="M289.13,290.6a.31.31,0,0,1-.31-.32v-8a.32.32,0,0,1,.63,0v8A.32.32,0,0,1,289.13,290.6Z" transform="translate(-89.21 -36.27)"/>
          <path class="cls-2" d="M297.39,290.6a.32.32,0,0,1-.32-.32v-8a.32.32,0,0,1,.63,0v8A.31.31,0,0,1,297.39,290.6Z" transform="translate(-89.21 -36.27)"/>
          <path class="cls-2" d="M305.64,290.6a.31.31,0,0,1-.31-.32v-8a.32.32,0,0,1,.63,0v8A.32.32,0,0,1,305.64,290.6Z" transform="translate(-89.21 -36.27)"/>
          <path class="cls-2" d="M313.9,290.6a.32.32,0,0,1-.32-.32v-8a.32.32,0,0,1,.63,0v8A.31.31,0,0,1,313.9,290.6Z" transform="translate(-89.21 -36.27)"/>
          <path class="cls-2" d="M322.15,290.6a.31.31,0,0,1-.31-.32v-8a.32.32,0,0,1,.63,0v8A.32.32,0,0,1,322.15,290.6Z" transform="translate(-89.21 -36.27)"/>
          <path class="cls-2" d="M330.41,290.6a.32.32,0,0,1-.32-.32v-8a.32.32,0,0,1,.63,0v8A.31.31,0,0,1,330.41,290.6Z" transform="translate(-89.21 -36.27)"/>
        </g>
      </g>
      <g>
        <rect class="cls-1" x="120.12" y="195.84" width="122.81" height="15.48"/>
        <g>
          <path class="cls-2" d="M217,244.16a.32.32,0,0,1-.32-.32v-8a.32.32,0,0,1,.64,0v8A.32.32,0,0,1,217,244.16Z" transform="translate(-89.21 -36.27)"/>
          <path class="cls-2" d="M225.21,244.16a.31.31,0,0,1-.31-.32v-8a.32.32,0,0,1,.63,0v8A.32.32,0,0,1,225.21,244.16Z" transform="translate(-89.21 -36.27)"/>
          <path class="cls-2" d="M233.47,244.16a.32.32,0,0,1-.32-.32v-8a.31.31,0,0,1,.32-.31.32.32,0,0,1,.32.31v8A.32.32,0,0,1,233.47,244.16Z" transform="translate(-89.21 -36.27)"/>
          <path class="cls-2" d="M241.72,244.16a.31.31,0,0,1-.31-.32v-8a.32.32,0,0,1,.63,0v8A.32.32,0,0,1,241.72,244.16Z" transform="translate(-89.21 -36.27)"/>
          <path class="cls-2" d="M250,244.16a.32.32,0,0,1-.32-.32v-8a.32.32,0,0,1,.63,0v8A.31.31,0,0,1,250,244.16Z" transform="translate(-89.21 -36.27)"/>
          <path class="cls-2" d="M258.23,244.16a.31.31,0,0,1-.31-.32v-8a.32.32,0,0,1,.63,0v8A.32.32,0,0,1,258.23,244.16Z" transform="translate(-89.21 -36.27)"/>
          <path class="cls-2" d="M266.49,244.16a.32.32,0,0,1-.32-.32v-8a.32.32,0,0,1,.63,0v8A.31.31,0,0,1,266.49,244.16Z" transform="translate(-89.21 -36.27)"/>
          <path class="cls-2" d="M274.74,244.16a.31.31,0,0,1-.31-.32v-8a.32.32,0,0,1,.63,0v8A.32.32,0,0,1,274.74,244.16Z" transform="translate(-89.21 -36.27)"/>
          <path class="cls-2" d="M283,244.16a.32.32,0,0,1-.32-.32v-8a.32.32,0,0,1,.63,0v8A.31.31,0,0,1,283,244.16Z" transform="translate(-89.21 -36.27)"/>
          <path class="cls-2" d="M291.25,244.16a.32.32,0,0,1-.32-.32v-8a.32.32,0,0,1,.32-.31.31.31,0,0,1,.32.31v8A.32.32,0,0,1,291.25,244.16Z" transform="translate(-89.21 -36.27)"/>
          <path class="cls-2" d="M299.51,244.16a.32.32,0,0,1-.32-.32v-8a.32.32,0,0,1,.63,0v8A.31.31,0,0,1,299.51,244.16Z" transform="translate(-89.21 -36.27)"/>
          <path class="cls-2" d="M307.76,244.16a.32.32,0,0,1-.32-.32v-8a.32.32,0,0,1,.64,0v8A.32.32,0,0,1,307.76,244.16Z" transform="translate(-89.21 -36.27)"/>
          <path class="cls-2" d="M316,244.16a.31.31,0,0,1-.31-.32v-8a.32.32,0,0,1,.63,0v8A.32.32,0,0,1,316,244.16Z" transform="translate(-89.21 -36.27)"/>
          <path class="cls-2" d="M324.27,244.16a.32.32,0,0,1-.32-.32v-8a.31.31,0,0,1,.32-.31.32.32,0,0,1,.32.31v8A.32.32,0,0,1,324.27,244.16Z" transform="translate(-89.21 -36.27)"/>
        </g>
      </g>
      <g>
        <rect class="cls-1" x="113.66" y="180.36" width="122.81" height="15.48"/>
        <g>
          <path class="cls-2" d="M210.5,228.68a.32.32,0,0,1-.32-.32v-8a.32.32,0,0,1,.64,0v8A.32.32,0,0,1,210.5,228.68Z" transform="translate(-89.21 -36.27)"/>
          <path class="cls-2" d="M218.76,228.68a.32.32,0,0,1-.32-.32v-8a.32.32,0,0,1,.63,0v8A.31.31,0,0,1,218.76,228.68Z" transform="translate(-89.21 -36.27)"/>
          <path class="cls-2" d="M227,228.68a.32.32,0,0,1-.32-.32v-8a.32.32,0,0,1,.64,0v8A.32.32,0,0,1,227,228.68Z" transform="translate(-89.21 -36.27)"/>
          <path class="cls-2" d="M235.26,228.68a.31.31,0,0,1-.31-.32v-8a.32.32,0,0,1,.63,0v8A.32.32,0,0,1,235.26,228.68Z" transform="translate(-89.21 -36.27)"/>
          <path class="cls-2" d="M243.52,228.68a.32.32,0,0,1-.32-.32v-8a.31.31,0,0,1,.32-.31.32.32,0,0,1,.32.31v8A.32.32,0,0,1,243.52,228.68Z" transform="translate(-89.21 -36.27)"/>
          <path class="cls-2" d="M251.77,228.68a.31.31,0,0,1-.31-.32v-8a.32.32,0,0,1,.63,0v8A.32.32,0,0,1,251.77,228.68Z" transform="translate(-89.21 -36.27)"/>
          <path class="cls-2" d="M260,228.68a.32.32,0,0,1-.32-.32v-8a.32.32,0,0,1,.63,0v8A.31.31,0,0,1,260,228.68Z" transform="translate(-89.21 -36.27)"/>
          <path class="cls-2" d="M268.28,228.68a.31.31,0,0,1-.31-.32v-8a.32.32,0,0,1,.63,0v8A.32.32,0,0,1,268.28,228.68Z" transform="translate(-89.21 -36.27)"/>
          <path class="cls-2" d="M276.54,228.68a.32.32,0,0,1-.32-.32v-8a.32.32,0,0,1,.63,0v8A.31.31,0,0,1,276.54,228.68Z" transform="translate(-89.21 -36.27)"/>
          <path class="cls-2" d="M284.79,228.68a.31.31,0,0,1-.31-.32v-8a.32.32,0,0,1,.63,0v8A.32.32,0,0,1,284.79,228.68Z" transform="translate(-89.21 -36.27)"/>
          <path class="cls-2" d="M293.05,228.68a.32.32,0,0,1-.32-.32v-8a.32.32,0,0,1,.63,0v8A.31.31,0,0,1,293.05,228.68Z" transform="translate(-89.21 -36.27)"/>
          <path class="cls-2" d="M301.3,228.68a.31.31,0,0,1-.31-.32v-8a.32.32,0,0,1,.63,0v8A.32.32,0,0,1,301.3,228.68Z" transform="translate(-89.21 -36.27)"/>
          <path class="cls-2" d="M309.56,228.68a.32.32,0,0,1-.32-.32v-8a.32.32,0,0,1,.63,0v8A.31.31,0,0,1,309.56,228.68Z" transform="translate(-89.21 -36.27)"/>
          <path class="cls-2" d="M317.81,228.68a.32.32,0,0,1-.32-.32v-8a.32.32,0,0,1,.32-.31.31.31,0,0,1,.32.31v8A.32.32,0,0,1,317.81,228.68Z" transform="translate(-89.21 -36.27)"/>
        </g>
      </g>
      <g>
        <rect class="cls-1" x="138.04" y="211.32" width="122.81" height="15.48"/>
        <g>
          <path class="cls-2" d="M234.89,259.64a.32.32,0,0,1-.32-.32v-8a.32.32,0,0,1,.63,0v8A.31.31,0,0,1,234.89,259.64Z" transform="translate(-89.21 -36.27)"/>
          <path class="cls-2" d="M243.14,259.64a.32.32,0,0,1-.32-.32v-8a.32.32,0,0,1,.64,0v8A.32.32,0,0,1,243.14,259.64Z" transform="translate(-89.21 -36.27)"/>
          <path class="cls-2" d="M251.39,259.64a.31.31,0,0,1-.31-.32v-8a.32.32,0,0,1,.63,0v8A.32.32,0,0,1,251.39,259.64Z" transform="translate(-89.21 -36.27)"/>
          <path class="cls-2" d="M259.65,259.64a.32.32,0,0,1-.32-.32v-8a.31.31,0,0,1,.32-.31.32.32,0,0,1,.32.31v8A.32.32,0,0,1,259.65,259.64Z" transform="translate(-89.21 -36.27)"/>
          <path class="cls-2" d="M267.9,259.64a.31.31,0,0,1-.31-.32v-8a.32.32,0,0,1,.63,0v8A.32.32,0,0,1,267.9,259.64Z" transform="translate(-89.21 -36.27)"/>
          <path class="cls-2" d="M276.16,259.64a.32.32,0,0,1-.32-.32v-8a.32.32,0,0,1,.63,0v8A.31.31,0,0,1,276.16,259.64Z" transform="translate(-89.21 -36.27)"/>
          <path class="cls-2" d="M284.41,259.64a.31.31,0,0,1-.31-.32v-8a.32.32,0,0,1,.63,0v8A.32.32,0,0,1,284.41,259.64Z" transform="translate(-89.21 -36.27)"/>
          <path class="cls-2" d="M292.67,259.64a.32.32,0,0,1-.32-.32v-8a.32.32,0,0,1,.63,0v8A.31.31,0,0,1,292.67,259.64Z" transform="translate(-89.21 -36.27)"/>
          <path class="cls-2" d="M300.92,259.64a.31.31,0,0,1-.31-.32v-8a.32.32,0,0,1,.63,0v8A.32.32,0,0,1,300.92,259.64Z" transform="translate(-89.21 -36.27)"/>
          <path class="cls-2" d="M309.18,259.64a.32.32,0,0,1-.32-.32v-8a.32.32,0,0,1,.63,0v8A.31.31,0,0,1,309.18,259.64Z" transform="translate(-89.21 -36.27)"/>
          <path class="cls-2" d="M317.43,259.64a.32.32,0,0,1-.32-.32v-8a.32.32,0,0,1,.32-.31.31.31,0,0,1,.32.31v8A.32.32,0,0,1,317.43,259.64Z" transform="translate(-89.21 -36.27)"/>
          <path class="cls-2" d="M325.68,259.64a.31.31,0,0,1-.31-.32v-8a.32.32,0,0,1,.63,0v8A.32.32,0,0,1,325.68,259.64Z" transform="translate(-89.21 -36.27)"/>
          <path class="cls-2" d="M333.94,259.64a.32.32,0,0,1-.32-.32v-8a.31.31,0,0,1,.32-.31.32.32,0,0,1,.32.31v8A.32.32,0,0,1,333.94,259.64Z" transform="translate(-89.21 -36.27)"/>
          <path class="cls-2" d="M342.19,259.64a.31.31,0,0,1-.31-.32v-8a.32.32,0,0,1,.63,0v8A.32.32,0,0,1,342.19,259.64Z" transform="translate(-89.21 -36.27)"/>
        </g>
      </g>
      <g>
        <rect class="cls-1" x="130.29" y="226.8" width="122.81" height="15.48"/>
        <g>
          <path class="cls-2" d="M227.13,275.12a.31.31,0,0,1-.31-.32v-8a.32.32,0,0,1,.63,0v8A.32.32,0,0,1,227.13,275.12Z" transform="translate(-89.21 -36.27)"/>
          <path class="cls-2" d="M235.39,275.12a.32.32,0,0,1-.32-.32v-8a.32.32,0,0,1,.63,0v8A.31.31,0,0,1,235.39,275.12Z" transform="translate(-89.21 -36.27)"/>
          <path class="cls-2" d="M243.64,275.12a.31.31,0,0,1-.31-.32v-8a.32.32,0,0,1,.63,0v8A.32.32,0,0,1,243.64,275.12Z" transform="translate(-89.21 -36.27)"/>
          <path class="cls-2" d="M251.9,275.12a.32.32,0,0,1-.32-.32v-8a.32.32,0,0,1,.63,0v8A.31.31,0,0,1,251.9,275.12Z" transform="translate(-89.21 -36.27)"/>
          <path class="cls-2" d="M260.15,275.12a.31.31,0,0,1-.31-.32v-8a.32.32,0,0,1,.63,0v8A.32.32,0,0,1,260.15,275.12Z" transform="translate(-89.21 -36.27)"/>
          <path class="cls-2" d="M268.41,275.12a.32.32,0,0,1-.32-.32v-8a.32.32,0,0,1,.63,0v8A.31.31,0,0,1,268.41,275.12Z" transform="translate(-89.21 -36.27)"/>
          <path class="cls-2" d="M276.66,275.12a.32.32,0,0,1-.32-.32v-8a.32.32,0,0,1,.32-.31.31.31,0,0,1,.32.31v8A.32.32,0,0,1,276.66,275.12Z" transform="translate(-89.21 -36.27)"/>
          <path class="cls-2" d="M284.92,275.12a.32.32,0,0,1-.32-.32v-8a.32.32,0,0,1,.63,0v8A.31.31,0,0,1,284.92,275.12Z" transform="translate(-89.21 -36.27)"/>
          <path class="cls-2" d="M293.17,275.12a.32.32,0,0,1-.32-.32v-8a.32.32,0,0,1,.32-.31.31.31,0,0,1,.32.31v8A.32.32,0,0,1,293.17,275.12Z" transform="translate(-89.21 -36.27)"/>
          <path class="cls-2" d="M301.42,275.12a.31.31,0,0,1-.31-.32v-8a.32.32,0,0,1,.63,0v8A.32.32,0,0,1,301.42,275.12Z" transform="translate(-89.21 -36.27)"/>
          <path class="cls-2" d="M309.68,275.12a.32.32,0,0,1-.32-.32v-8a.31.31,0,0,1,.32-.31.32.32,0,0,1,.32.31v8A.32.32,0,0,1,309.68,275.12Z" transform="translate(-89.21 -36.27)"/>
          <path class="cls-2" d="M317.93,275.12a.31.31,0,0,1-.31-.32v-8a.32.32,0,0,1,.63,0v8A.32.32,0,0,1,317.93,275.12Z" transform="translate(-89.21 -36.27)"/>
          <path class="cls-2" d="M326.19,275.12a.32.32,0,0,1-.32-.32v-8a.32.32,0,0,1,.63,0v8A.31.31,0,0,1,326.19,275.12Z" transform="translate(-89.21 -36.27)"/>
          <path class="cls-2" d="M334.44,275.12a.31.31,0,0,1-.31-.32v-8a.32.32,0,0,1,.63,0v8A.32.32,0,0,1,334.44,275.12Z" transform="translate(-89.21 -36.27)"/>
        </g>
      </g>
      <g>
        <rect class="cls-1" x="143.9" y="257.76" width="122.81" height="15.48"/>
        <g>
          <path class="cls-2" d="M240.74,306.08a.32.32,0,0,1-.32-.32v-8a.32.32,0,0,1,.64,0v8A.32.32,0,0,1,240.74,306.08Z" transform="translate(-89.21 -36.27)"/>
          <path class="cls-2" d="M249,306.08a.31.31,0,0,1-.31-.32v-8a.32.32,0,0,1,.63,0v8A.32.32,0,0,1,249,306.08Z" transform="translate(-89.21 -36.27)"/>
          <path class="cls-2" d="M257.25,306.08a.32.32,0,0,1-.32-.32v-8a.32.32,0,0,1,.63,0v8A.31.31,0,0,1,257.25,306.08Z" transform="translate(-89.21 -36.27)"/>
          <path class="cls-2" d="M265.5,306.08a.31.31,0,0,1-.31-.32v-8a.32.32,0,0,1,.63,0v8A.32.32,0,0,1,265.5,306.08Z" transform="translate(-89.21 -36.27)"/>
          <path class="cls-2" d="M273.76,306.08a.32.32,0,0,1-.32-.32v-8a.32.32,0,0,1,.63,0v8A.31.31,0,0,1,273.76,306.08Z" transform="translate(-89.21 -36.27)"/>
          <path class="cls-2" d="M282,306.08a.31.31,0,0,1-.31-.32v-8a.32.32,0,0,1,.63,0v8A.32.32,0,0,1,282,306.08Z" transform="translate(-89.21 -36.27)"/>
          <path class="cls-2" d="M290.27,306.08a.32.32,0,0,1-.32-.32v-8a.32.32,0,0,1,.63,0v8A.31.31,0,0,1,290.27,306.08Z" transform="translate(-89.21 -36.27)"/>
          <path class="cls-2" d="M298.52,306.08a.31.31,0,0,1-.31-.32v-8a.32.32,0,0,1,.63,0v8A.32.32,0,0,1,298.52,306.08Z" transform="translate(-89.21 -36.27)"/>
          <path class="cls-2" d="M306.78,306.08a.32.32,0,0,1-.32-.32v-8a.32.32,0,0,1,.63,0v8A.31.31,0,0,1,306.78,306.08Z" transform="translate(-89.21 -36.27)"/>
          <path class="cls-2" d="M315,306.08a.32.32,0,0,1-.32-.32v-8a.32.32,0,0,1,.32-.31.31.31,0,0,1,.32.31v8A.32.32,0,0,1,315,306.08Z" transform="translate(-89.21 -36.27)"/>
          <path class="cls-2" d="M323.29,306.08a.32.32,0,0,1-.32-.32v-8a.32.32,0,0,1,.63,0v8A.31.31,0,0,1,323.29,306.08Z" transform="translate(-89.21 -36.27)"/>
          <path class="cls-2" d="M331.54,306.08a.32.32,0,0,1-.32-.32v-8a.32.32,0,0,1,.64,0v8A.32.32,0,0,1,331.54,306.08Z" transform="translate(-89.21 -36.27)"/>
          <path class="cls-2" d="M339.79,306.08a.31.31,0,0,1-.31-.32v-8a.32.32,0,0,1,.63,0v8A.32.32,0,0,1,339.79,306.08Z" transform="translate(-89.21 -36.27)"/>
          <path class="cls-2" d="M348.05,306.08a.32.32,0,0,1-.32-.32v-8a.31.31,0,0,1,.32-.31.32.32,0,0,1,.32.31v8A.32.32,0,0,1,348.05,306.08Z" transform="translate(-89.21 -36.27)"/>
        </g>
      </g>
      <path class="cls-3" d="M317.81,232.43H214.48a.32.32,0,0,1,0-.63H317.81a.32.32,0,1,1,0,.63Z" transform="translate(-89.21 -36.27)"/>
      <path class="cls-3" d="M339.29,263.39H233.11a.32.32,0,1,1,0-.63H339.29a.32.32,0,0,1,0,.63Z" transform="translate(-89.21 -36.27)"/>
      <path class="cls-3" d="M332.51,278.87H226.33a.32.32,0,0,1-.32-.32.32.32,0,0,1,.32-.32H332.51a.32.32,0,0,1,.31.32A.31.31,0,0,1,332.51,278.87Z" transform="translate(-89.21 -36.27)"/>
      <path class="cls-3" d="M336.1,294.35H236.62a.32.32,0,1,1,0-.63H336.1a.32.32,0,0,1,0,.63Z" transform="translate(-89.21 -36.27)"/>
      <path class="cls-3" d="M344.33,309.83H236.78a.32.32,0,0,1,0-.63H344.33a.32.32,0,1,1,0,.63Z" transform="translate(-89.21 -36.27)"/>
      <path class="cls-3" d="M328.51,247.91h-98a.32.32,0,0,1,0-.63h98a.32.32,0,0,1,0,.63Z" transform="translate(-89.21 -36.27)"/>
    </g>
    <g>
      <path class="cls-4" d="M157.77,295.32c-.65.76-1.29,1.59-1.92,2.45a68.28,68.28,0,0,0-5.21,8.48A178.38,178.38,0,0,0,142.27,325s-37.68,4.63-53.06-7.75c6-12.29,27.68-3.56,43.31-16.09a32.05,32.05,0,0,0,7.77-9.18,40.78,40.78,0,0,0,2.84-5.69Z" transform="translate(-89.21 -36.27)"/>
      <path class="cls-5" d="M150.64,306.25c-2.45,4.6-4.63,9.54-6.4,13.84-.74,1.77-1.39,3.41-2,4.91,0,0-37.68,4.63-53.06-7.75a10.9,10.9,0,0,1,1.9-2.75c7.82-8.17,27.15-1.9,41.41-13.34C136.6,305.11,145.53,306.76,150.64,306.25Z" transform="translate(-89.21 -36.27)"/>
      <path class="cls-6" d="M144.24,320.09c-.74,1.77-1.39,3.41-2,4.91,0,0-37.68,4.63-53.06-7.75a10.9,10.9,0,0,1,1.9-2.75C99.66,319.56,120,325.2,144.24,320.09Z" transform="translate(-89.21 -36.27)"/>
      <path class="cls-2" d="M106.6,319.41h0a.31.31,0,0,1-.28-.34,8.3,8.3,0,0,0-4-7.94.31.31,0,0,1-.11-.43.32.32,0,0,1,.44-.11,8.92,8.92,0,0,1,4.25,8.54A.32.32,0,0,1,106.6,319.41Z" transform="translate(-89.21 -36.27)"/>
      <path class="cls-2" d="M106.65,313.82a.32.32,0,0,1,0-.63,62.81,62.81,0,0,0,28.9-8.74.31.31,0,0,1,.43.11.32.32,0,0,1-.11.44,63.61,63.61,0,0,1-29.18,8.82Z" transform="translate(-89.21 -36.27)"/>
      <path class="cls-7" d="M157.77,295.32c-.65.76-1.29,1.59-1.92,2.45L140.29,292a40.78,40.78,0,0,0,2.84-5.69Z" transform="translate(-89.21 -36.27)"/>
      <path class="cls-4" d="M230.18,130.05s-8.64-6.72-16.15-3.27-12.29,20.65-12.29,20.65,2.54,1.46,5.09-3.75a52.39,52.39,0,0,1,3.09-5.91s2.48,5.61,7,2.58c-.06,4.6,1.88,7.08,4.42,6.78-.91-3.27-1.7-12.85,4.48-10.42Z" transform="translate(-89.21 -36.27)"/>
      <path class="cls-8" d="M209.73,137a.32.32,0,0,1-.3-.24,11,11,0,0,1,.46-6.08.33.33,0,0,1,.42-.16.31.31,0,0,1,.15.42,10.45,10.45,0,0,0-.42,5.66.33.33,0,0,1-.23.39Z" transform="translate(-89.21 -36.27)"/>
      <path class="cls-8" d="M217.57,140a.3.3,0,0,1-.26-.13.32.32,0,0,1,.07-.44c1.49-1.11,2-2.23,1.69-2.71a1,1,0,0,0-.64-.51,2.07,2.07,0,0,0-1.48.59,2.33,2.33,0,0,1-2.49.33c-.55-.27-1.48-1-1.45-3.13a.31.31,0,0,1,.32-.31h0a.31.31,0,0,1,.31.32c0,1.29.38,2.2,1.11,2.56a1.7,1.7,0,0,0,1.81-.27,2.51,2.51,0,0,1,2-.71,1.56,1.56,0,0,1,1.07.8c.55.89-.2,2.32-1.86,3.55A.3.3,0,0,1,217.57,140Z" transform="translate(-89.21 -36.27)"/>
      <path class="cls-5" d="M264.84,120.22,236.74,97.3a14.45,14.45,0,0,1-.65-21.84l21.69-19.94L270.53,75.1l-7.78,7.32a6.66,6.66,0,0,0,.6,10.18l10.25,7.6Z" transform="translate(-89.21 -36.27)"/>
      <path class="cls-4" d="M282.1,39.94c1.88-2.84,4.26-4.24,6-3.45s0,3,0,3,2.08-3.16,4.63-1.38-.37,4.56-.37,4.56,2.73-2.91,4.49-1.33,0,3.83,0,3.83,2.6-.68,3.45,1.56-2.74,5.17-2.74,5.17l-12.35-2.7Z" transform="translate(-89.21 -36.27)"/>
      <path class="cls-6" d="M258.91,112.83a.27.27,0,0,1-.18,0,.32.32,0,0,1-.09-.44,12.2,12.2,0,0,0,.94-9.41c-1-3.36-3.45-5.81-7.18-7.28-4.09-1.61-6.35-3.44-6.93-5.6-.73-2.74,1.36-5.66,3.75-8.66,1.55-1.94,4-5.59,2.81-8.35-.8-1.91-3.19-3.08-7.08-3.47a.31.31,0,0,1-.28-.35.29.29,0,0,1,.34-.28c4.14.42,6.7,1.71,7.6,3.85s-.07,5.46-2.89,9c-2.29,2.87-4.29,5.65-3.64,8.11.52,2,2.66,3.64,6.55,5.17a12,12,0,0,1,7.55,7.69,12.91,12.91,0,0,1-1,10A.3.3,0,0,1,258.91,112.83Z" transform="translate(-89.21 -36.27)"/>
      <g>
        <path class="cls-7" d="M260.19,62.66c-5.32-1.38-7.1-6.47-5-10.1s5.37-4,7.9-2.42c-1.36-9,8.82-13.24,14.71-7.59,1.29-5,11.47-4.44,11.71,6,8.11-3.9,18.25,10.34,5.14,24.27a7.88,7.88,0,0,0-2.16,6.1c.31,3.46.81,7.86.81,7.86L278.86,70.93Z" transform="translate(-89.21 -36.27)"/>
        <path class="cls-4" d="M279,88.8l1.34-3.62-.15.1a28.23,28.23,0,0,1-7.82,2.93A4.32,4.32,0,0,1,267.65,86c-4-7.57-6.93-16.68-7.46-23.33,2.4.71,8.4-.68,10.17-4.55.35,2.12,4.17,4.6,7.08.91-.78,5,4.53,8.85,4.53,8.85s4.43-6.5,7.39-2a5.43,5.43,0,0,1-.89,7.52l9.06,18.64H277.8Z" transform="translate(-89.21 -36.27)"/>
        <path class="cls-7" d="M264.84,68.06h-.08a.32.32,0,0,1-.23-.39A5.71,5.71,0,0,1,269,63.49a.33.33,0,0,1,.37.25.32.32,0,0,1-.25.37,5.06,5.06,0,0,0-3.93,3.71A.33.33,0,0,1,264.84,68.06Z" transform="translate(-89.21 -36.27)"/>
        <path class="cls-7" d="M283.55,71.69l-.1,0a.31.31,0,0,1-.19-.4,8.91,8.91,0,0,1,3.39-4.4.31.31,0,0,1,.35.52,8.4,8.4,0,0,0-3.15,4.09A.3.3,0,0,1,283.55,71.69Z" transform="translate(-89.21 -36.27)"/>
        <path class="cls-4" d="M263,69.86c-2,1.83-2.74,4.85-3,6.72a1.57,1.57,0,0,0,1.52,1.8,14.73,14.73,0,0,0,5.3-.83Z" transform="translate(-89.21 -36.27)"/>
        <path class="cls-8" d="M270.53,81.06a7.51,7.51,0,0,0,3.46-4.6,2.88,2.88,0,0,1-3.46,4.6Z" transform="translate(-89.21 -36.27)"/>
        <path class="cls-2" d="M271.4,71.47a4.14,4.14,0,0,1-.56.55A6.44,6.44,0,0,1,266,73.67a7.59,7.59,0,0,1,6.81-7.9A6.49,6.49,0,0,1,271.4,71.47Z" transform="translate(-89.21 -36.27)"/>
        <path class="cls-7" d="M270.84,72A6.44,6.44,0,0,1,266,73.67a7.5,7.5,0,0,1,2-5.49A4.51,4.51,0,0,1,270.84,72Z" transform="translate(-89.21 -36.27)"/>
        <path class="cls-7" d="M285.18,81.59S284.91,86,279,88.8l1.34-3.62A26.87,26.87,0,0,0,285.18,81.59Z" transform="translate(-89.21 -36.27)"/>
        <path class="cls-5" d="M261.63,54.71a10.07,10.07,0,0,1-3-.62,6.82,6.82,0,0,0-2.76-.51.3.3,0,0,1-.35-.28.32.32,0,0,1,.28-.35,7.2,7.2,0,0,1,3,.53c1.77.57,3.6,1.16,5.86-.47,1.72-1.24,2-3.29,2.32-5.45.44-3.11.9-6.32,5.77-7a.31.31,0,0,1,.36.27.33.33,0,0,1-.27.36c-4.41.63-4.81,3.47-5.24,6.48-.31,2.2-.63,4.47-2.57,5.87A5.66,5.66,0,0,1,261.63,54.71Z" transform="translate(-89.21 -36.27)"/>
        <path class="cls-5" d="M292.76,74a.31.31,0,0,1-.28-.17c0-.08-1-2.09,1.69-8.18,1.14-2.6,1.13-4.78-.05-6.15s-3.08-1.67-5.21-1.09c-4.78,1.3-8,.11-10.32-3.86a4.27,4.27,0,0,0-3-2.29c-1.89-.29-4.28.83-7,3.24-4.4,3.93-8.13,5.32-11.73,4.37a.32.32,0,0,1-.23-.38.34.34,0,0,1,.39-.23c3.39.89,6.92-.46,11.15-4.23,2.87-2.57,5.4-3.7,7.48-3.4a4.89,4.89,0,0,1,3.45,2.6c2.22,3.73,5.1,4.79,9.61,3.57,2.39-.65,4.62-.15,5.86,1.29s1.39,4,.14,6.81c-2.53,5.73-1.71,7.63-1.7,7.65a.31.31,0,0,1-.14.42Z" transform="translate(-89.21 -36.27)"/>
        <path class="cls-5" d="M287.63,55.83a5.34,5.34,0,0,1-3.81-1.73c-2.21-2.17-1.34-4.81-.5-7.36.75-2.27,1.45-4.41,0-6.11a.32.32,0,0,1,0-.44.31.31,0,0,1,.44,0c1.69,2,.9,4.38.13,6.72s-1.59,4.82.34,6.71c2.88,2.82,5.57,1.24,8.16-.3,1.64-1,3.2-1.9,4.62-1.45a4,4,0,0,1,2.24,2.35.31.31,0,0,1-.15.42.31.31,0,0,1-.42-.15,3.36,3.36,0,0,0-1.85-2c-1.16-.36-2.6.49-4.11,1.39S289.48,55.83,287.63,55.83Z" transform="translate(-89.21 -36.27)"/>
        <path class="cls-5" d="M277.53,47.31h-.09a1.23,1.23,0,0,1-1.14-.83c-.29-.78,0-2.12,1.33-3.36l.28-.25.2.31c.94,1.43,1.22,2.64.78,3.41A1.48,1.48,0,0,1,277.53,47.31Zm.26-3.45a2.62,2.62,0,0,0-.9,2.4.59.59,0,0,0,.57.41.94.94,0,0,0,.88-.39C278.48,46,278.68,45.34,277.79,43.86Z" transform="translate(-89.21 -36.27)"/>
        <path class="cls-5" d="M288,52.83a1.75,1.75,0,0,1-.83-.22,1.21,1.21,0,0,1-.69-1.22c.07-.83.9-1.93,2.62-2.49l.36-.12.06.37c.25,1.69,0,2.91-.73,3.43A1.37,1.37,0,0,1,288,52.83Zm.94-3.2c-1.19.49-1.78,1.26-1.83,1.81a.6.6,0,0,0,.35.61.91.91,0,0,0,1,0C288.68,51.9,289.15,51.35,289,49.63Z" transform="translate(-89.21 -36.27)"/>
        <path class="cls-7" d="M261.87,78.7h-.43A1.88,1.88,0,0,1,260,78a1.85,1.85,0,0,1-.42-1.48c.27-1.75,1-5,3.14-6.9a.31.31,0,0,1,.45,0,.33.33,0,0,1,0,.45c-2,1.8-2.68,4.87-2.94,6.54a1.22,1.22,0,0,0,.27,1,1.3,1.3,0,0,0,.95.46,13.91,13.91,0,0,0,5.18-.81.31.31,0,0,1,.4.19.31.31,0,0,1-.19.41A14.64,14.64,0,0,1,261.87,78.7Z" transform="translate(-89.21 -36.27)"/>
      </g>
      <path class="cls-5" d="M300.57,103v-7.6a4.06,4.06,0,0,0-4.06-4.06h-22a4,4,0,0,0-4.05,4.06v9.16A50.41,50.41,0,0,0,258.69,135a30.78,30.78,0,0,0-9.74-3.27,14.74,14.74,0,0,0-8.17,1.09l-8.12-4.69a2.26,2.26,0,0,0-3.09.82l-5.45,9.45a2.26,2.26,0,0,0,.82,3.09l6.89,4a14.34,14.34,0,0,0,3.38,10.63c6.58,7.6,18.32,14.14,29.07,16.81l.5.1-.5,2.81,38.47,10.65c4.91-19.22,6.81-43.43,4.7-58.51l1-2.75A18.19,18.19,0,0,0,300.57,103Z" transform="translate(-89.21 -36.27)"/>
      <path class="cls-6" d="M302.92,172.49c-5.7,0-6.82-3.2-8.22-7.2-1.23-3.52-2.62-7.51-7.5-10.69-5.05-3.28-11.2-.19-17.15,2.8-6.53,3.27-13.26,6.66-18.05.89s-2.45-11.14-.55-15.44c1.71-3.9,3.06-7-.59-9.44a.31.31,0,0,1-.09-.44.32.32,0,0,1,.44-.08c4.09,2.76,2.5,6.38.82,10.21-1.92,4.36-4.1,9.3.46,14.79s10.69,2.25,17.27-1.06c6.11-3.07,12.43-6.24,17.78-2.76,5.06,3.3,6.56,7.57,7.76,11,1.45,4.14,2.5,7.14,8.64,6.75a.32.32,0,0,1,.34.29.32.32,0,0,1-.3.34Z" transform="translate(-89.21 -36.27)"/>
      <path class="cls-6" d="M296.33,151a.31.31,0,0,1-.26-.14c-1.86-2.73-2.59-8.86.21-15.87,1.5-3.74,1.18-7.41-.78-8.91s-5.57-.7-9.88,2.5c-6.55,4.88-10,3.84-11.41,2.79-2.08-1.52-2.64-4.79-1.43-8.35,1.49-4.39,1.45-7.76-.09-9.24-1.3-1.25-3.66-1.22-7,.07a.32.32,0,0,1-.41-.18.32.32,0,0,1,.18-.41c3.6-1.39,6.18-1.37,7.68.06,2.37,2.27,1.17,7.18.25,9.9-1.12,3.29-.65,6.29,1.2,7.64,2.22,1.62,6.11.6,10.66-2.79,6.15-4.57,9.31-3.53,10.65-2.49,2.21,1.7,2.6,5.58,1,9.65-2.9,7.25-1.76,13.11-.28,15.28a.31.31,0,0,1-.08.44A.37.37,0,0,1,296.33,151Z" transform="translate(-89.21 -36.27)"/>
      <path class="cls-2" d="M272,149.45h0a.32.32,0,0,1-.29-.24c-.91-3.31-8.39-10.42-12-13a.32.32,0,1,1,.37-.51c3,2.16,10.17,8.71,11.94,12.6l14-33.66a.31.31,0,0,1,.41-.17.31.31,0,0,1,.17.41l-14.29,34.4A.32.32,0,0,1,272,149.45Z" transform="translate(-89.21 -36.27)"/>
      <path class="cls-6" d="M237.47,135.4a.33.33,0,0,1-.16-.05l-6.78-3.87a.32.32,0,0,1-.12-.43.31.31,0,0,1,.43-.12l6.79,3.88a.31.31,0,0,1,.11.43A.3.3,0,0,1,237.47,135.4Z" transform="translate(-89.21 -36.27)"/>
      <path class="cls-6" d="M235.54,138.83a.3.3,0,0,1-.16-.05l-6.78-3.87a.32.32,0,0,1-.12-.44.31.31,0,0,1,.43-.11l6.78,3.87a.32.32,0,0,1-.15.6Z" transform="translate(-89.21 -36.27)"/>
      <path class="cls-6" d="M233.57,142a.26.26,0,0,1-.15,0L226.63,138a.32.32,0,0,1,.32-.55l6.78,3.88a.32.32,0,0,1,.12.43A.33.33,0,0,1,233.57,142Z" transform="translate(-89.21 -36.27)"/>
      <path class="cls-6" d="M275,102.21h0a.32.32,0,0,1-.28-.35l.87-7.19a.31.31,0,0,1,.35-.28.31.31,0,0,1,.27.36l-.86,7.18A.31.31,0,0,1,275,102.21Z" transform="translate(-89.21 -36.27)"/>
      <path class="cls-6" d="M281.54,102.21h0a.31.31,0,0,1-.28-.35l.86-7.19a.31.31,0,0,1,.35-.28.33.33,0,0,1,.28.36l-.86,7.18A.32.32,0,0,1,281.54,102.21Z" transform="translate(-89.21 -36.27)"/>
      <path class="cls-6" d="M288.06,102.21h0a.32.32,0,0,1-.28-.35l.86-7.19a.31.31,0,0,1,.35-.28.32.32,0,0,1,.28.36l-.86,7.18A.32.32,0,0,1,288.06,102.21Z" transform="translate(-89.21 -36.27)"/>
      <path class="cls-6" d="M294.57,102.21h0a.32.32,0,0,1-.28-.35l.87-7.19a.31.31,0,0,1,.35-.28.31.31,0,0,1,.27.36l-.86,7.18A.31.31,0,0,1,294.57,102.21Z" transform="translate(-89.21 -36.27)"/>
      <path class="cls-2" d="M302.51,178.39h-.08l-18.83-4.84a.32.32,0,0,1-.23-.39.3.3,0,0,1,.38-.22l18.84,4.84a.33.33,0,0,1,.23.39A.32.32,0,0,1,302.51,178.39Z" transform="translate(-89.21 -36.27)"/>
      <path class="cls-7" d="M289.59,168.16a22.73,22.73,0,0,0,5.94-8.75l10-26.26C304.92,149.78,302.26,161.51,289.59,168.16Z" transform="translate(-89.21 -36.27)"/>
      <path class="cls-2" d="M274.44,174.31h-.33a48.83,48.83,0,0,1-7.42-.61.31.31,0,1,1,.11-.62,50,50,0,0,0,7.32.6h.32a22.29,22.29,0,0,0,20.79-14.36L306,130.75a.31.31,0,0,1,.4-.19.32.32,0,0,1,.19.41l-10.81,28.56A22.94,22.94,0,0,1,274.44,174.31Z" transform="translate(-89.21 -36.27)"/>
      <g>
        <g>
          <path class="cls-2" d="M201.65,77.72A19.59,19.59,0,0,0,184,105.93l-8,9.22,11.88-3.83a19.63,19.63,0,1,0,13.78-33.6Z" transform="translate(-89.21 -36.27)"/>
          <path class="cls-6" d="M201.65,117.3a19.79,19.79,0,0,1-13.86-5.62L175,115.8l8.64-9.92a19.94,19.94,0,1,1,38-8.53A20,20,0,0,1,201.65,117.3ZM188,111l.13.14a19.52,19.52,0,1,0-3.79-5.31l.09.19L177,114.5Z" transform="translate(-89.21 -36.27)"/>
        </g>
        <g>
          <path class="cls-3" d="M210.81,100.55a9.44,9.44,0,1,1-5.9-12A9.43,9.43,0,0,1,210.81,100.55Z" transform="translate(-89.21 -36.27)"/>
          <path class="cls-1" d="M211.54,100.8a9.44,9.44,0,1,1-5.91-12A9.45,9.45,0,0,1,211.54,100.8Z" transform="translate(-89.21 -36.27)"/>
          <path class="cls-2" d="M207,96h-3.12c0-.7-.74-.85-1.19-.85-.29,0-1.22,0-1.22.57,0,1.28,5.75-.05,5.75,3.57,0,2.17-1.7,3-3.79,3.13l.13,2.31h-1.9l.12-2.32c-1.94-.21-3.74-1.12-3.74-3.07h3.11v.07c0,.86,1,1,1.47,1s1.4,0,1.4-.65c0-1.33-5.75-.12-5.75-3.62,0-2,1.57-2.8,3.51-3l-.12-2.32h1.9l-.13,2.3C205.27,93.29,207,94.09,207,96Z" transform="translate(-89.21 -36.27)"/>
        </g>
      </g>
      <path class="cls-5" d="M229.83,154.27H191v4.41h38.8a2.21,2.21,0,1,0,0-4.41Z" transform="translate(-89.21 -36.27)"/>
      <polygon class="cls-5" points="74.66 78.53 39.99 78.53 72.26 122.41 106.92 122.41 74.66 78.53"/>
      <path class="cls-2" d="M164.79,134.78c3.2,4.6,4.27,8.33,2.39,8.33s-6-3.73-9.22-8.33-4.27-8.33-2.38-8.33S161.58,130.18,164.79,134.78Z" transform="translate(-89.21 -36.27)"/>
      <path class="cls-8" d="M302.74,186.43a75.31,75.31,0,0,1-13.15,30.38l-80.25-.17A664.39,664.39,0,0,0,177.84,282c-1.57,3.75-3.17,7.62-4.73,11.56q-1.61,4-3.19,8.2s-27.78-9.71-40.53-24.41c0,0,14.11-55,41.34-93.33a27.63,27.63,0,0,1,20.09-11.54c15.45-1.47,43.59-2.63,73.47,3.29Z" transform="translate(-89.21 -36.27)"/>
      <path class="cls-7" d="M177.84,282c-1.57,3.75-3.17,7.62-4.73,11.56-3.55-9.1-10.55-34.88-11.41-53.71Z" transform="translate(-89.21 -36.27)"/>
      <path class="cls-1" d="M145.13,282.3h-.06a.32.32,0,0,1-.25-.37c1.46-7.61,6.59-28.75,22.72-60.76,19.78-39.22,56.4-27.56,74-21.95l1,.32c17.77,5.64,38.84,3.1,45.83-15.32a.33.33,0,0,1,.41-.18.31.31,0,0,1,.19.41c-7.15,18.8-28.57,21.42-46.62,15.69l-1-.31c-17.44-5.56-53.72-17.12-73.25,21.63-16.1,31.93-21.22,53-22.67,60.59A.31.31,0,0,1,145.13,282.3Z" transform="translate(-89.21 -36.27)"/>
      <g>
        <path class="cls-7" d="M235.54,174a49.62,49.62,0,0,0-25,11.8c1.52,9.8,3.11,21,2.09,30.84h-5.16L200,179.89Z" transform="translate(-89.21 -36.27)"/>
        <path class="cls-8" d="M205.36,184.33a433,433,0,0,1,14.15,96.57A58.59,58.59,0,0,1,177.69,289a179.6,179.6,0,0,1-15.41-113.19,21.18,21.18,0,0,1,7.38-12.73c.06,0,.08-.07.13-.1a20,20,0,0,1,11.29-4.07,142.87,142.87,0,0,1,70.56,14.77A76.13,76.13,0,0,0,205.36,184.33Z" transform="translate(-89.21 -36.27)"/>
        <path class="cls-7" d="M219.51,280.9A58.59,58.59,0,0,1,177.69,289,51.1,51.1,0,0,1,219.51,280.9Z" transform="translate(-89.21 -36.27)"/>
        <path class="cls-1" d="M198.85,273.77h0a.33.33,0,0,1-.31-.33,258.38,258.38,0,0,0-12.48-86.13,14,14,0,0,1,11.09-18.08A116.42,116.42,0,0,1,243.35,171a.31.31,0,0,1,.23.38.3.3,0,0,1-.38.23,116.1,116.1,0,0,0-46-1.76,13.37,13.37,0,0,0-10.58,17.27,259.38,259.38,0,0,1,12.51,86.34A.33.33,0,0,1,198.85,273.77Z" transform="translate(-89.21 -36.27)"/>
        <path class="cls-4" d="M211.84,304.15c-4.25,7.92-22.31,28.18-36.13,25.32a4.88,4.88,0,0,1-3.89-4.45c-1-12.83,16.74-16.75,19.43-27.25.15-.58.27-1.13.38-1.67a30.93,30.93,0,0,0,.2-13.18s5.69-2.75,15.15-2.7c.18,1.92.43,4.35.79,6.93C208.58,293.3,209.89,300.41,211.84,304.15Z" transform="translate(-89.21 -36.27)"/>
        <path class="cls-5" d="M211.84,304.15c-4.25,7.92-22.31,28.18-36.13,25.32a4.88,4.88,0,0,1-3.89-4.45,9.29,9.29,0,0,1,.07-2.43c1.27-10.93,16.85-15,19.36-24.82.15-.58.27-1.13.38-1.67,4.17-.15,13.25-2.53,16.14-9a86,86,0,0,0,2.58,13.15A24.27,24.27,0,0,0,211.84,304.15Z" transform="translate(-89.21 -36.27)"/>
        <path class="cls-6" d="M211.84,304.15c-4.25,7.92-22.31,28.18-36.13,25.32a4.88,4.88,0,0,1-3.89-4.45,9.29,9.29,0,0,1,.07-2.43c.81,4.66,7.57,4.53,14.68.94s19.2-14.67,23.78-23.23A24.27,24.27,0,0,0,211.84,304.15Z" transform="translate(-89.21 -36.27)"/>
        <path class="cls-2" d="M186.32,322.8a.32.32,0,0,1-.32-.26,8.56,8.56,0,0,0-9-7.2.32.32,0,0,1,0-.63l.61,0a9.19,9.19,0,0,1,9.09,7.75.32.32,0,0,1-.26.36Z" transform="translate(-89.21 -36.27)"/>
        <path class="cls-2" d="M182.52,315.32a.31.31,0,0,1-.2-.07.32.32,0,0,1,0-.45,83.36,83.36,0,0,1,7.77-7.71c4.32-3.91,7.45-6.74,7.58-11.1a.3.3,0,0,1,.31-.3h0a.31.31,0,0,1,.31.32c-.14,4.63-3.35,7.53-7.79,11.55a84.59,84.59,0,0,0-7.71,7.65A.29.29,0,0,1,182.52,315.32Z" transform="translate(-89.21 -36.27)"/>
      </g>
      <path class="cls-7" d="M168,271.13a.32.32,0,0,1-.31-.23c-4.54-16.57-9.05-42.86-8.89-61a.32.32,0,0,1,.31-.32h0a.33.33,0,0,1,.31.32c-.16,18.14,4.35,44.36,8.87,60.88a.31.31,0,0,1-.22.39Z" transform="translate(-89.21 -36.27)"/>
      <path class="cls-7" d="M289.11,183H289l-24.84-6.88a.31.31,0,0,1-.22-.39.31.31,0,0,1,.39-.22l24.83,6.88a.31.31,0,0,1,.22.39A.3.3,0,0,1,289.11,183Z" transform="translate(-89.21 -36.27)"/>
      <path class="cls-7" d="M262.94,117a.27.27,0,0,1-.12,0,.32.32,0,0,1-.17-.41c.34-.81,3.36-8,7.52-12.1v-4.33a.32.32,0,1,1,.63,0v4.46a.32.32,0,0,1-.09.23c-4.12,4-7.14,11.18-7.47,12A.33.33,0,0,1,262.94,117Z" transform="translate(-89.21 -36.27)"/>
      <path class="cls-1" d="M169.28,296.89l-.09,0a92.3,92.3,0,0,1-36.63-21.55.33.33,0,0,1,0-.45.34.34,0,0,1,.45,0,91.64,91.64,0,0,0,36.37,21.41.32.32,0,0,1-.09.62Z" transform="translate(-89.21 -36.27)"/>
      <path class="cls-1" d="M178.65,284.13a.31.31,0,0,1-.26-.14.31.31,0,0,1,.08-.44,47.28,47.28,0,0,1,39.18-6.66.3.3,0,0,1,.22.38.32.32,0,0,1-.39.23,46.67,46.67,0,0,0-38.65,6.57A.32.32,0,0,1,178.65,284.13Z" transform="translate(-89.21 -36.27)"/>
      <path class="cls-7" d="M215.37,180.51a.32.32,0,0,1-.29-.17.31.31,0,0,1,.14-.42c3.36-1.69,14.94-6.93,28.53-6.93.77,0,1.55,0,2.33,0a.31.31,0,0,1,.3.33.32.32,0,0,1-.33.3c-.77,0-1.54,0-2.3,0-13.45,0-24.91,5.19-28.24,6.86Z" transform="translate(-89.21 -36.27)"/>
    </g>
  </g>
</svg>
